<svg width="269" height="214" viewBox="0 0 269 214" fill="none" xmlns="http://www.w3.org/2000/svg">
<g clip-path="url(#clip0_1_2058)">
<rect width="267.724" height="212.833" transform="translate(0.845154 0.317871)" fill="white"/>
<rect x="6.20428" y="3.77979" width="257.582" height="39.8124" rx="19.9062" fill="#D0EA2A"/>
<g clip-path="url(#clip1_1_2058)">
<path d="M30.7386 24.1243C31.8301 24.1243 32.715 23.2394 32.715 22.1479C32.715 21.0563 31.8301 20.1714 30.7386 20.1714C29.647 20.1714 28.7621 21.0563 28.7621 22.1479C28.7621 23.2394 29.647 24.1243 30.7386 24.1243Z" stroke="black" stroke-width="1.14995" stroke-linecap="round" stroke-linejoin="round"/>
<path d="M34.6913 20.9619H39.0395" stroke="black" stroke-width="1.14995" stroke-linecap="round" stroke-linejoin="round"/>
<path d="M34.6913 23.334H39.0395" stroke="black" stroke-width="1.14995" stroke-linecap="round" stroke-linejoin="round"/>
<path d="M35.8772 25.7056H39.0396" stroke="black" stroke-width="1.14995" stroke-linecap="round" stroke-linejoin="round"/>
<path d="M27.5762 26.4963C27.927 25.1325 29.2651 24.1245 30.7385 24.1245C32.212 24.1245 33.5501 25.1325 33.9009 26.4963" stroke="black" stroke-width="1.14995" stroke-linecap="round" stroke-linejoin="round"/>
</g>
<path d="M49.0942 26.3345L48.533 24.7234H46.0169L45.4467 26.3345H44.2792L46.6686 19.8903H47.9266L50.2798 26.3345H49.0942ZM46.3427 23.8003H48.2162L47.6641 22.1983L47.284 20.9312L46.9039 22.1983L46.3427 23.8003ZM53.6084 21.5557C54.7307 21.5557 55.5725 22.4607 55.5725 23.936C55.5725 25.4113 54.7669 26.4612 53.5451 26.4612C52.9206 26.4612 52.4228 26.1716 52.1151 25.6828L52.097 26.3345H51.1647V19.8903H52.2237V22.1802C52.5314 21.7819 53.0111 21.5557 53.6084 21.5557ZM53.3641 25.538C54.07 25.538 54.5316 24.9045 54.5316 23.936C54.5316 22.9766 54.07 22.4426 53.3641 22.4426C52.6672 22.4426 52.1694 22.9947 52.1694 23.9632C52.1694 24.9316 52.6672 25.538 53.3641 25.538ZM58.6197 26.4702C57.253 26.4702 56.3027 25.4475 56.3027 24.0084C56.3027 22.5513 57.2621 21.5466 58.6378 21.5466C59.9954 21.5466 60.9457 22.5422 60.9457 23.9903C60.9457 25.4294 59.9863 26.4702 58.6197 26.4702ZM58.6197 25.6195C59.4342 25.6195 59.9139 24.9678 59.9139 23.9903C59.9139 23.0128 59.4342 22.3974 58.6197 22.3974C57.8232 22.3974 57.3435 23.0309 57.3435 24.0084C57.3435 24.9859 57.8323 25.6195 58.6197 25.6195ZM64.9167 21.6643H65.9757V26.3345H64.962L64.9439 25.6828C64.6271 26.1806 64.1293 26.4521 63.4958 26.4521C62.5183 26.4521 61.939 25.8457 61.939 24.8501V21.6643H62.998V24.6239C62.998 25.185 63.2604 25.5109 63.8035 25.5109C64.3918 25.5109 64.9167 25.1126 64.9167 24.2075V21.6643ZM68.5817 22.4245V25.0221C68.5817 25.357 68.6994 25.4747 69.0252 25.4747H69.5411V26.3345H68.6994C67.8667 26.3345 67.5228 25.9905 67.5228 25.1579V22.4336L66.853 22.4607V21.6643L67.5228 21.6914V20.2252H68.5817V21.6914L69.5411 21.6643V22.4607L68.5817 22.4245Z" fill="black"/>
<rect x="87.303" y="10.1094" width="91.0486" height="26.4488" rx="6.89968" fill="white"/>
<g clip-path="url(#clip2_1_2058)">
<path d="M104.481 18.9849H96.5746C96.3563 18.9849 96.1793 19.1618 96.1793 19.3802V27.286C96.1793 27.5044 96.3563 27.6813 96.5746 27.6813H104.481C104.699 27.6813 104.876 27.5044 104.876 27.286V19.3802C104.876 19.1618 104.699 18.9849 104.481 18.9849Z" stroke="black" stroke-width="1.14995" stroke-linecap="round" stroke-linejoin="round"/>
<path d="M102.899 18.1948V19.776" stroke="black" stroke-width="1.14995" stroke-linecap="round" stroke-linejoin="round"/>
<path d="M98.1558 18.1948V19.776" stroke="black" stroke-width="1.14995" stroke-linecap="round" stroke-linejoin="round"/>
<path d="M96.1793 21.3569H104.876" stroke="black" stroke-width="1.14995" stroke-linecap="round" stroke-linejoin="round"/>
<path d="M98.7484 24.5194L99.9343 25.7053L102.306 23.3335" stroke="black" stroke-width="1.14995" stroke-linecap="round" stroke-linejoin="round"/>
</g>
<path d="M114.62 26.515C113.054 26.515 112.131 25.7366 112.131 24.3247V19.8898H113.226V24.3519C113.226 25.1302 113.678 25.5556 114.629 25.5556C115.579 25.5556 116.023 25.1302 116.023 24.3519V19.8898H117.118V24.3247C117.118 25.7366 116.195 26.515 114.62 26.515ZM123.536 21.5461C124.478 21.5461 125.002 22.1435 125.002 23.1753V26.334H123.944V23.302C123.944 22.8313 123.708 22.4874 123.229 22.4874C122.704 22.4874 122.242 22.8766 122.242 23.8179V26.334H121.183V23.302C121.183 22.8313 120.948 22.4874 120.468 22.4874C119.952 22.4874 119.491 22.8947 119.491 23.836V26.334H118.432V21.6638H119.454L119.445 22.3154C119.744 21.8086 120.187 21.5461 120.794 21.5461C121.446 21.5461 121.898 21.8448 122.106 22.3788C122.405 21.8177 122.885 21.5461 123.536 21.5461ZM127.702 21.1207L128.308 19.7812H129.666L128.498 21.1207H127.702ZM128.317 26.4697C126.95 26.4697 126 25.447 126 24.0079C126 22.5508 126.96 21.5461 128.335 21.5461C129.693 21.5461 130.643 22.5417 130.643 23.9898C130.643 25.4289 129.684 26.4697 128.317 26.4697ZM128.317 25.619C129.132 25.619 129.611 24.9673 129.611 23.9898C129.611 23.0124 129.132 22.3969 128.317 22.3969C127.521 22.3969 127.041 23.0305 127.041 24.0079C127.041 24.9854 127.53 25.619 128.317 25.619ZM136.732 21.6638H137.836L136.379 26.334H135.356L134.687 23.6459L134.515 22.7408L134.334 23.6459L133.646 26.334H132.614L131.184 21.6638H132.306L132.931 24.0441L133.175 25.2207L133.41 24.0441L134.008 21.6638H135.031L135.619 24.0351L135.854 25.2117L136.089 24.0441L136.732 21.6638ZM142.345 22.4241V25.0216C142.345 25.3565 142.463 25.4742 142.788 25.4742H143.304V26.334H142.463C141.63 26.334 141.286 25.9901 141.286 25.1574V22.4331L140.616 22.4603V21.6638L141.286 21.6909V20.2247H142.345V21.6909L143.304 21.6638V22.4603L142.345 22.4241ZM146.451 21.519C146.559 21.519 146.65 21.528 146.749 21.5461V22.5508C146.65 22.5417 146.559 22.5327 146.469 22.5327C145.763 22.5327 145.238 22.9943 145.22 23.9265V26.334H144.161V21.6638H145.175L145.156 22.5146C145.392 21.8901 145.826 21.519 146.451 21.519ZM151.8 24.026V24.2885L148.352 24.2885C148.397 25.1574 148.877 25.628 149.61 25.628C150.162 25.628 150.515 25.3656 150.696 24.8678L151.71 24.9583C151.42 25.9448 150.642 26.4697 149.61 26.4697C148.135 26.4697 147.275 25.4108 147.275 23.9808C147.275 22.587 148.116 21.5461 149.528 21.5461C150.877 21.5461 151.8 22.4784 151.8 24.026ZM149.556 22.3607C148.895 22.3607 148.424 22.7861 148.361 23.5554H150.741C150.651 22.7861 150.225 22.3607 149.556 22.3607ZM155.276 21.5461C156.254 21.5461 156.833 22.1525 156.833 23.1481V26.334H155.774V23.3744C155.774 22.8132 155.511 22.4874 154.968 22.4874C154.38 22.4874 153.855 22.8856 153.855 23.7907V26.334H152.796V21.6638H153.81L153.828 22.3154C154.145 21.8177 154.643 21.5461 155.276 21.5461ZM158.099 20.9216V19.8898H159.158V20.9216H158.099ZM158.099 26.334V21.6638H159.158V26.334H158.099ZM162.904 21.5461C163.881 21.5461 164.461 22.1525 164.461 23.1481V26.334H163.402V23.3744C163.402 22.8132 163.139 22.4874 162.596 22.4874C162.008 22.4874 161.483 22.8856 161.483 23.7907V26.334H160.424V21.6638H161.438L161.456 22.3154C161.773 21.8177 162.27 21.5461 162.904 21.5461ZM168.94 21.6638H169.9V26.2887C169.9 27.6463 169.049 28.2889 167.691 28.2889C166.478 28.2889 165.736 27.7821 165.628 26.8137H166.623C166.723 27.2934 167.076 27.4834 167.682 27.4834C168.533 27.4834 168.85 27.1124 168.85 26.334V25.7185C168.542 26.1349 168.071 26.3792 167.483 26.3792C166.27 26.3792 165.465 25.3656 165.465 23.9174C165.465 22.4693 166.306 21.5552 167.474 21.5552C168.117 21.5552 168.623 21.8267 168.922 22.3245L168.94 21.6638ZM167.673 25.4742C168.361 25.4742 168.868 24.8859 168.868 23.9265C168.868 22.9671 168.37 22.4241 167.673 22.4241C166.967 22.4241 166.506 22.9762 166.506 23.9174C166.506 24.8768 166.958 25.4742 167.673 25.4742Z" fill="black"/>
<g clip-path="url(#clip3_1_2058)">
<path d="M200.363 22.5425H204.316" stroke="black" stroke-width="1.14995" stroke-linecap="round" stroke-linejoin="round"/>
<path d="M200.363 24.123H204.316" stroke="black" stroke-width="1.14995" stroke-linecap="round" stroke-linejoin="round"/>
<path d="M197.201 26.8907C197.41 26.8907 197.611 26.8074 197.76 26.6591C197.908 26.5109 197.991 26.3098 197.991 26.1001V20.1707C197.991 20.0658 198.033 19.9653 198.107 19.8912C198.181 19.817 198.282 19.7754 198.387 19.7754H206.292C206.397 19.7754 206.498 19.817 206.572 19.8912C206.646 19.9653 206.688 20.0658 206.688 20.1707V26.1001C206.688 26.3098 206.604 26.5109 206.456 26.6591C206.308 26.8074 206.107 26.8907 205.897 26.8907H197.201Z" stroke="black" stroke-width="1.14995" stroke-linecap="round" stroke-linejoin="round"/>
<path d="M197.201 26.8906C196.991 26.8906 196.79 26.8073 196.642 26.659C196.493 26.5107 196.41 26.3097 196.41 26.1V21.3564" stroke="black" stroke-width="1.14995" stroke-linecap="round" stroke-linejoin="round"/>
</g>
<path d="M216.272 26.6478C214.507 26.6478 213.313 25.2721 213.313 23.2447C213.313 21.2174 214.525 19.8869 216.272 19.8869C217.738 19.8869 218.806 20.7286 218.96 22.0681H217.892C217.729 21.2988 217.159 20.8463 216.326 20.8463C215.114 20.8463 214.417 21.7876 214.417 23.2447C214.417 24.7291 215.114 25.6884 216.326 25.6884C217.259 25.6884 217.811 25.1273 217.937 24.2403H218.996C218.833 25.7518 217.811 26.6478 216.272 26.6478ZM224.209 24.1589V24.4213H220.761C220.806 25.2902 221.285 25.7608 222.019 25.7608C222.571 25.7608 222.924 25.4984 223.105 25.0006L224.118 25.0911C223.829 26.0776 223.05 26.6026 222.019 26.6026C220.543 26.6026 219.683 25.5436 219.683 24.1136C219.683 22.7198 220.525 21.6789 221.937 21.6789C223.286 21.6789 224.209 22.6112 224.209 24.1589ZM221.964 22.4935C221.304 22.4935 220.833 22.9189 220.77 23.6882H223.15C223.059 22.9189 222.634 22.4935 221.964 22.4935ZM227.685 21.6789C228.662 21.6789 229.242 22.2853 229.242 23.2809V26.4668H228.183V23.5072C228.183 22.946 227.92 22.6202 227.377 22.6202C226.789 22.6202 226.264 23.0185 226.264 23.9235V26.4668H225.205V21.7966H226.219L226.237 22.4483C226.553 21.9505 227.051 21.6789 227.685 21.6789ZM232.988 21.6789C233.965 21.6789 234.545 22.2853 234.545 23.2809V26.4668H233.486V23.5072C233.486 22.946 233.223 22.6202 232.68 22.6202C232.092 22.6202 231.567 23.0185 231.567 23.9235V26.4668H230.508V21.7966H231.522L231.54 22.4483C231.857 21.9505 232.354 21.6789 232.988 21.6789ZM235.811 21.0544V20.0227H236.87V21.0544H235.811ZM235.811 26.4668V21.7966H236.87V26.4668H235.811ZM241.177 26.4668L239.765 24.2313L239.195 24.7834V26.4668H238.136V20.0227H239.195V23.6611L241.014 21.7966H242.344L240.498 23.5796L242.426 26.4668H241.177Z" fill="black"/>
<g clip-path="url(#clip4_1_2058)">
<path d="M23.1358 71.4699L20.0684 68.4024L23.1358 65.335" stroke="#81858B" stroke-width="1.40228" stroke-linecap="round" stroke-linejoin="round"/>
</g>
<path d="M75.0025 73.1155C72.9945 73.1155 71.7829 72.1619 71.6819 70.367H73.0057C73.0842 71.4776 73.8022 72.0049 75.0138 72.0049C76.158 72.0049 76.7638 71.5449 76.7638 70.7821C76.7638 70.1202 76.3151 69.8061 75.3166 69.5817L74.0153 69.2789C72.7477 68.9872 71.9175 68.3253 71.9175 67.125C71.9175 65.8124 72.8823 64.7355 74.823 64.7355C76.6741 64.7355 77.8408 65.7002 77.9529 67.2596H76.6404C76.5394 66.3509 75.8663 65.8461 74.8118 65.8461C73.8246 65.8461 73.2525 66.2948 73.2525 66.9903C73.2525 67.5176 73.6003 67.8541 74.408 68.0336L75.9112 68.3814C77.2686 68.6955 78.1436 69.3798 78.1436 70.6699C78.1436 72.0834 77.1003 73.1155 75.0025 73.1155ZM81.0833 68.0561V71.2757C81.0833 71.6908 81.2291 71.8366 81.633 71.8366H82.2724V72.9023H81.2291C80.197 72.9023 79.7707 72.4761 79.7707 71.444V68.0673L78.9406 68.1009V67.1137L79.7707 67.1474V65.33H81.0833V67.1474L82.2724 67.1137V68.1009L81.0833 68.0561ZM87.0921 67.1137H88.472L85.9703 73.9793C85.6337 74.9328 85.1738 75.1909 84.3549 75.1909H83.3564V74.0803H84.0183C84.5119 74.0803 84.7251 73.9232 84.9046 73.452L85.0616 73.0257L82.7731 67.1137H84.209L85.4879 70.726L85.645 71.5113L87.0921 67.1137ZM91.7275 73.0706C90.056 73.0706 88.9903 71.9488 88.9903 70.0417C88.9903 68.1346 90.056 66.9679 91.75 66.9679C93.1635 66.9679 94.1058 67.7195 94.3189 69.0769H93.0513C92.883 68.3702 92.4567 68.0224 91.7724 68.0224C90.7852 68.0224 90.2804 68.7516 90.2804 70.0193C90.2804 71.2869 90.8189 72.0161 91.7612 72.0161C92.4679 72.0161 92.8942 71.6122 93.0513 70.8943H94.3189C94.0946 72.2629 93.1859 73.0706 91.7275 73.0706ZM96.7057 71.8366H100.026V72.9023H95.1127V71.9039L98.2763 68.1795H95.3595V67.1137H99.8693V68.0785L96.7057 71.8366ZM106.376 70.0417V70.367H102.102C102.158 71.444 102.753 72.0273 103.662 72.0273C104.346 72.0273 104.783 71.702 105.008 71.085L106.264 71.1972C105.905 72.42 104.94 73.0706 103.662 73.0706C101.833 73.0706 100.767 71.7581 100.767 69.9856C100.767 68.258 101.811 66.9679 103.561 66.9679C105.232 66.9679 106.376 68.1234 106.376 70.0417ZM103.594 67.9775C102.775 67.9775 102.192 68.5048 102.113 69.4583H105.064C104.952 68.5048 104.424 67.9775 103.594 67.9775ZM111.818 64.7803L110.371 66.4406H109.383L110.135 64.7803H111.818ZM110.685 66.9679C111.896 66.9679 112.614 67.7195 112.614 68.9535V72.9023H111.302V69.234C111.302 68.5384 110.976 68.1346 110.303 68.1346C109.574 68.1346 108.924 68.6282 108.924 69.75V72.9023H107.611V67.1137H108.867L108.89 67.9214C109.282 67.3044 109.899 66.9679 110.685 66.9679ZM117.143 72.9023C117.188 71.5786 117.659 70.6699 118.904 69.8285L120.363 68.8301C121.013 68.3926 121.339 67.9551 121.339 67.2932C121.339 66.4182 120.8 65.9358 119.981 65.9358C119.129 65.9358 118.602 66.4519 118.602 67.5064V67.6859H117.267V67.5288C117.267 65.8124 118.332 64.7803 120.004 64.7803C121.619 64.7803 122.741 65.7339 122.741 67.2259C122.741 68.2692 122.191 69.1106 121.17 69.7725L119.981 70.5353C119.129 71.085 118.916 71.3318 118.871 71.7356H122.752V72.9023H117.143ZM127.255 73.0594C125.281 73.0594 124.237 71.6122 124.237 68.8862C124.237 66.1714 125.292 64.7579 127.266 64.7579C129.23 64.7579 130.273 66.1714 130.273 68.8862C130.273 71.6122 129.218 73.0594 127.255 73.0594ZM127.266 71.9039C128.377 71.9039 128.893 70.984 128.893 68.8974C128.893 66.8333 128.377 65.9134 127.255 65.9134C126.133 65.9134 125.617 66.8333 125.617 68.8974C125.617 70.984 126.145 71.9039 127.266 71.9039ZM131.736 72.9023C131.78 71.5786 132.252 70.6699 133.497 69.8285L134.955 68.8301C135.606 68.3926 135.931 67.9551 135.931 67.2932C135.931 66.4182 135.393 65.9358 134.574 65.9358C133.721 65.9358 133.194 66.4519 133.194 67.5064V67.6859H131.859V67.5288C131.859 65.8124 132.925 64.7803 134.596 64.7803C136.212 64.7803 137.334 65.7339 137.334 67.2259C137.334 68.2692 136.784 69.1106 135.763 69.7725L134.574 70.5353C133.721 71.085 133.508 71.3318 133.463 71.7356H137.345V72.9023H131.736ZM143.732 69.9968H144.978V71.1186H143.732V72.9023H142.386V71.1186H138.729V69.7725L142.453 64.915H143.732V69.9968ZM142.386 69.9968V66.8669H142.364L139.963 69.9968H142.386ZM158.061 72.9023C158.106 71.5786 158.577 70.6699 159.822 69.8285L161.281 68.8301C161.932 68.3926 162.257 67.9551 162.257 67.2932C162.257 66.4182 161.718 65.9358 160.899 65.9358C160.047 65.9358 159.52 66.4519 159.52 67.5064V67.6859H158.185V67.5288C158.185 65.8124 159.25 64.7803 160.922 64.7803C162.537 64.7803 163.659 65.7339 163.659 67.2259C163.659 68.2692 163.109 69.1106 162.089 69.7725L160.899 70.5353C160.047 71.085 159.834 71.3318 159.789 71.7356H163.67V72.9023H158.061ZM170.058 69.9968H171.303V71.1186H170.058V72.9023H168.712V71.1186H165.055V69.7725L168.779 64.915H170.058V69.9968ZM168.712 69.9968V66.8669H168.689L166.289 69.9968H168.712ZM175.299 70.4904V69.3349H178.44V70.4904H175.299ZM185.604 73.0818C183.585 73.0818 182.53 71.9488 182.486 70.2773H183.832C183.877 71.343 184.494 71.9264 185.593 71.9264C186.681 71.9264 187.22 71.3542 187.22 70.5577C187.22 69.7612 186.681 69.2676 185.638 69.2676H184.92V68.1907H185.458C186.333 68.1907 186.816 67.7756 186.816 67.0689C186.816 66.3285 186.311 65.9134 185.436 65.9134C184.572 65.9134 184.079 66.2948 184.034 67.3493H182.721C182.777 65.6554 183.776 64.7691 185.492 64.7691C187.164 64.7691 188.196 65.6217 188.196 66.8782C188.196 67.641 187.803 68.258 186.995 68.5721V68.5945C188.072 68.8189 188.644 69.5369 188.644 70.569C188.644 72.0385 187.5 73.0818 185.604 73.0818ZM192.856 73.0594C190.881 73.0594 189.838 71.6122 189.838 68.8862C189.838 66.1714 190.892 64.7579 192.867 64.7579C194.83 64.7579 195.873 66.1714 195.873 68.8862C195.873 71.6122 194.819 73.0594 192.856 73.0594ZM192.867 71.9039C193.977 71.9039 194.493 70.984 194.493 68.8974C194.493 66.8333 193.977 65.9134 192.856 65.9134C191.734 65.9134 191.218 66.8333 191.218 68.8974C191.218 70.984 191.745 71.9039 192.867 71.9039Z" fill="#4F5265"/>
<path d="M149.253 75.1909V64.5223H150.566V75.1909H149.253Z" fill="#DCDCDF"/>
<g clip-path="url(#clip5_1_2058)">
<path d="M244.547 71.4699L247.615 68.4024L244.547 65.335" stroke="#81858B" stroke-width="1.40228" stroke-linecap="round" stroke-linejoin="round"/>
</g>
<path d="M15.7667 95.5517C18.2796 95.5517 19.4239 97.0661 19.4239 99.5454C19.4239 101.98 18.2572 103.539 15.7779 103.539H12.8612V95.5517H15.7667ZM15.6433 102.384C17.3709 102.384 18.0552 101.475 18.0552 99.5454C18.0552 97.571 17.3485 96.6847 15.5536 96.6847H14.2186V102.384H15.6433ZM21.9152 102.473H25.2358V103.539H20.3222V102.541L23.4858 98.8162H20.569V97.7505H25.0787V98.7152L21.9152 102.473ZM26.4116 96.8306V95.5517H27.7241V96.8306H26.4116ZM26.4116 103.539V97.7505H27.7241V103.539H26.4116ZM30.639 97.0774L31.3907 95.4171H33.0734L31.6262 97.0774H30.639ZM31.4916 103.719C29.9659 103.719 29.1021 103.034 28.9675 101.767L30.1903 101.733C30.2801 102.417 30.7176 102.754 31.5365 102.754C32.2993 102.754 32.7481 102.473 32.7481 101.98C32.7481 101.598 32.4788 101.385 31.9179 101.273L30.7624 101.037C29.6294 100.802 29.1134 100.252 29.1134 99.3995C29.1134 98.3114 29.9435 97.6046 31.3682 97.6046C32.7256 97.6046 33.6567 98.2553 33.8026 99.4444L32.5798 99.4781C32.4788 98.8835 32.0525 98.5694 31.3458 98.5694C30.7176 98.5694 30.3249 98.8162 30.3249 99.2649C30.3249 99.6015 30.5493 99.8146 31.099 99.938L32.2881 100.185C33.466 100.443 33.9821 100.97 33.9821 101.834C33.9821 103.023 33.0285 103.719 31.4916 103.719Z" fill="#191D31"/>
<rect x="196.499" y="91.1367" width="12.6091" height="15.8046" rx="2.80456" fill="#D0EA2A"/>
<path d="M202.533 102.696C200.767 102.696 199.844 101.705 199.805 100.242H200.982C201.022 101.175 201.562 101.685 202.524 101.685C203.476 101.685 203.947 101.184 203.947 100.488C203.947 99.7906 203.476 99.3587 202.563 99.3587H201.935V98.4164H202.406C203.171 98.4164 203.594 98.0532 203.594 97.4348C203.594 96.7869 203.152 96.4237 202.386 96.4237C201.63 96.4237 201.198 96.7575 201.159 97.6802H200.011C200.06 96.198 200.933 95.4225 202.435 95.4225C203.898 95.4225 204.801 96.1685 204.801 97.2679C204.801 97.9354 204.457 98.4753 203.751 98.7501V98.7697C204.693 98.9661 205.194 99.5943 205.194 100.497C205.194 101.783 204.192 102.696 202.533 102.696Z" fill="#191D31"/>
<path d="M217.875 95.466C219.814 95.466 220.765 96.7307 220.765 98.7525C220.765 100.737 219.777 102.039 217.69 102.039H215.502V95.466H217.875ZM217.653 101.291C219.186 101.291 219.887 100.46 219.887 98.7525C219.887 97.0077 219.149 96.2138 217.7 96.2138H216.361V101.291H217.653ZM224.05 102.159C222.684 102.159 221.761 101.153 221.761 99.6572C221.761 98.1248 222.711 97.1554 224.078 97.1554C225.407 97.1554 226.349 98.1063 226.349 99.6203C226.349 101.116 225.389 102.159 224.05 102.159ZM224.05 101.448C224.973 101.448 225.499 100.7 225.499 99.6203C225.499 98.5402 224.973 97.8663 224.05 97.8663C223.145 97.8663 222.61 98.5771 222.61 99.6572C222.61 100.737 223.155 101.448 224.05 101.448ZM229.162 102.159C227.961 102.159 227.287 101.624 227.177 100.534H227.989C228.072 101.199 228.469 101.476 229.198 101.476C229.974 101.476 230.334 101.181 230.334 100.728C230.334 100.35 230.085 100.137 229.586 100.036L228.626 99.8327C227.703 99.6388 227.306 99.2141 227.306 98.5402C227.306 97.7093 227.906 97.1646 229.078 97.1646C230.159 97.1646 230.897 97.6355 231.017 98.6602H230.177C230.085 98.1063 229.725 97.8386 229.051 97.8386C228.451 97.8386 228.091 98.0417 228.091 98.4663C228.091 98.771 228.266 98.9833 228.829 99.1033L229.752 99.3064C230.74 99.528 231.146 99.9619 231.146 100.654C231.146 101.587 230.417 102.159 229.162 102.159ZM233.398 97.894V100.867C233.398 101.217 233.509 101.328 233.859 101.328H234.478V102.039H233.61C232.872 102.039 232.549 101.716 232.549 100.977V97.894L231.838 97.9309V97.2754L232.549 97.3031V95.8168H233.398V97.3124L234.487 97.2754V97.9309L233.398 97.894ZM239.652 99.5465V99.8603H236.079C236.107 100.931 236.661 101.457 237.519 101.457C238.221 101.457 238.627 101.107 238.839 100.507L239.615 100.599C239.43 101.208 239.061 101.661 238.562 101.91L237.953 102.316C237.676 102.501 237.593 102.621 237.593 102.796C237.593 103.018 237.722 103.165 238.147 103.165H238.442V103.765H237.935C237.131 103.765 236.818 103.424 236.818 102.953C236.818 102.658 236.947 102.399 237.335 102.15C236.005 102.067 235.23 101.051 235.23 99.6388C235.23 98.1801 236.051 97.1646 237.473 97.1646C238.812 97.1646 239.652 98.0601 239.652 99.5465ZM237.482 97.857C236.725 97.857 236.171 98.3186 236.088 99.251H238.858C238.747 98.3463 238.258 97.857 237.482 97.857ZM243.152 97.1739C244.361 97.1739 245.201 98.1063 245.201 99.5465C245.201 101.024 244.407 102.141 243.115 102.141C242.505 102.141 242.007 101.864 241.702 101.457V103.922H240.853V97.2754H241.591V98.0417C241.868 97.5155 242.45 97.1739 243.152 97.1739ZM243.032 101.411C243.853 101.411 244.352 100.654 244.352 99.5465C244.352 98.4571 243.853 97.9032 243.032 97.9032C242.238 97.9032 241.656 98.4756 241.656 99.6019C241.656 100.728 242.238 101.411 243.032 101.411ZM248.788 97.1554C249.785 97.1554 250.404 97.7278 250.404 98.7341V102.039H249.555V98.9002C249.555 98.2448 249.25 97.894 248.604 97.894C247.948 97.894 247.247 98.254 247.247 99.3895V102.039H246.397V97.2754H247.191V97.9494C247.514 97.4416 248.087 97.1554 248.788 97.1554ZM256.024 99.5465V99.8603H252.451C252.479 100.931 253.033 101.457 253.891 101.457C254.593 101.457 254.999 101.107 255.211 100.507L255.987 100.599C255.691 101.587 254.907 102.15 253.864 102.15C252.442 102.15 251.602 101.107 251.602 99.6388C251.602 98.1801 252.423 97.1646 253.845 97.1646C255.184 97.1646 256.024 98.0601 256.024 99.5465ZM253.854 97.857C253.097 97.857 252.543 98.3186 252.46 99.251H255.23C255.119 98.3463 254.63 97.857 253.854 97.857Z" fill="#191D31"/>
<path d="M15.5985 131.069C13.7699 131.069 12.85 129.745 12.85 126.941C12.85 124.091 13.7923 122.813 15.6209 122.813C17.4495 122.813 18.3694 124.091 18.3694 126.941C18.3694 129.745 17.427 131.069 15.5985 131.069ZM15.6209 130.161C16.81 130.161 17.3036 129.218 17.3036 126.941C17.3036 124.675 16.7988 123.721 15.6097 123.721C14.4205 123.721 13.9157 124.675 13.9157 126.941C13.9157 129.218 14.4318 130.161 15.6209 130.161ZM24.7598 123.688C25.2983 124.372 25.5339 125.393 25.5339 126.739C25.5339 129.431 24.5579 131.08 22.6396 131.08C21.2934 131.08 20.3286 130.284 20.2501 128.994H21.2373C21.3382 129.757 21.8655 130.217 22.662 130.217C23.8511 130.217 24.4681 129.207 24.5354 127.143C24.0979 127.782 23.4136 128.13 22.561 128.13C21.0466 128.13 20.0482 127.075 20.0482 125.527C20.0482 123.878 21.1027 122.779 22.7517 122.779C23.6155 122.779 24.2886 123.093 24.7598 123.688ZM22.7181 127.266C23.7053 127.266 24.3896 126.571 24.3896 125.505C24.3896 124.933 24.2326 124.462 23.9297 124.136C23.638 123.822 23.2229 123.643 22.7293 123.643C21.7421 123.643 21.0914 124.338 21.0914 125.471C21.0914 126.582 21.7197 127.266 22.7181 127.266ZM27.3248 126.279V125.146H28.5925V126.279H27.3248ZM27.3248 130.935V129.802H28.5925V130.935H27.3248ZM33.1494 131.092C31.3433 131.092 30.2102 130.093 30.1429 128.399H31.1862C31.2423 129.577 31.9266 130.161 33.1718 130.161C34.4619 130.161 35.0677 129.532 35.0677 128.612C35.0677 127.737 34.5292 127.199 33.385 127.199H32.5324V126.29H33.1045C34.1254 126.29 34.619 125.841 34.619 125.056C34.619 124.204 34.0581 123.777 33.0484 123.777C32.0051 123.777 31.5227 124.226 31.4667 125.348H30.4234C30.4907 123.732 31.4667 122.846 33.0933 122.846C34.6526 122.846 35.6847 123.688 35.6847 124.966C35.6847 125.696 35.3594 126.29 34.5068 126.649V126.683C35.5725 126.896 36.1334 127.592 36.1334 128.612C36.1334 130.116 34.9331 131.092 33.1494 131.092ZM40.3027 131.069C38.4741 131.069 37.5542 129.745 37.5542 126.941C37.5542 124.091 38.4965 122.813 40.3251 122.813C42.1537 122.813 43.0736 124.091 43.0736 126.941C43.0736 129.745 42.1313 131.069 40.3027 131.069ZM40.3251 130.161C41.5142 130.161 42.0078 129.218 42.0078 126.941C42.0078 124.675 41.503 123.721 40.3139 123.721C39.1248 123.721 38.6199 124.675 38.6199 126.941C38.6199 129.218 39.136 130.161 40.3251 130.161Z" fill="#8F93B1"/>
<path d="M14.5776 147.337V141.548H12.5022V140.763H12.8051C13.3772 140.763 13.8148 140.673 14.1289 140.438C14.4205 140.213 14.6225 139.91 14.7459 139.473L14.7795 139.35H15.6209V147.337H14.5776ZM20.6379 147.472C18.8093 147.472 17.8894 146.148 17.8894 143.343C17.8894 140.494 18.8318 139.215 20.6603 139.215C22.4889 139.215 23.4088 140.494 23.4088 143.343C23.4088 146.148 22.4665 147.472 20.6379 147.472ZM20.6603 146.563C21.8495 146.563 22.3431 145.621 22.3431 143.343C22.3431 141.077 21.8382 140.124 20.6491 140.124C19.46 140.124 18.9552 141.077 18.9552 143.343C18.9552 145.621 19.4712 146.563 20.6603 146.563ZM25.1886 142.681V141.548H26.4562V142.681H25.1886ZM25.1886 147.337V146.204H26.4562V147.337H25.1886ZM30.9907 147.472C29.1621 147.472 28.2422 146.148 28.2422 143.343C28.2422 140.494 29.1845 139.215 31.0131 139.215C32.8417 139.215 33.7616 140.494 33.7616 143.343C33.7616 146.148 32.8192 147.472 30.9907 147.472ZM31.0131 146.563C32.2022 146.563 32.6958 145.621 32.6958 143.343C32.6958 141.077 32.191 140.124 31.0019 140.124C29.8127 140.124 29.3079 141.077 29.3079 143.343C29.3079 145.621 29.824 146.563 31.0131 146.563ZM38.1664 147.472C36.3378 147.472 35.4179 146.148 35.4179 143.343C35.4179 140.494 36.3603 139.215 38.1888 139.215C40.0174 139.215 40.9373 140.494 40.9373 143.343C40.9373 146.148 39.995 147.472 38.1664 147.472ZM38.1888 146.563C39.378 146.563 39.8716 145.621 39.8716 143.343C39.8716 141.077 39.3667 140.124 38.1776 140.124C36.9885 140.124 36.4837 141.077 36.4837 143.343C36.4837 145.621 36.9997 146.563 38.1888 146.563Z" fill="#8F93B1"/>
<rect x="57.9445" y="117.809" width="198.423" height="33.6547" rx="8.06311" fill="#F9FCE6"/>
<rect x="57.9445" y="117.809" width="198.423" height="33.6547" rx="8.06311" stroke="#BEDC00" stroke-width="0.70114"/>
<g clip-path="url(#clip6_1_2058)">
<path d="M70.9157 135.863C72.271 135.863 73.3696 134.764 73.3696 133.409C73.3696 132.054 72.271 130.955 70.9157 130.955C69.5604 130.955 68.4617 132.054 68.4617 133.409C68.4617 134.764 69.5604 135.863 70.9157 135.863Z" stroke="#7B8D03" stroke-width="1.40228" stroke-linecap="round" stroke-linejoin="round"/>
<path d="M67.2347 138.01C67.9775 136.726 69.3264 135.862 70.9157 135.862C72.5051 135.862 73.854 136.726 74.5967 138.01" stroke="#7B8D03" stroke-width="1.40228" stroke-linecap="round" stroke-linejoin="round"/>
</g>
<path d="M89.5701 131.148H90.9612L88.6839 139.136H87.3826L85.8457 132.898L84.32 139.136H83.0075L80.7638 131.148H82.1885L83.2991 135.523L83.6805 137.217L84.062 135.523L85.1501 131.148H86.5636L87.6406 135.523L88.0108 137.217L88.4146 135.523L89.5701 131.148ZM93.9812 139.304C92.2872 139.304 91.1093 138.036 91.1093 136.253C91.1093 134.447 92.2984 133.201 94.0036 133.201C95.6863 133.201 96.8643 134.435 96.8643 136.23C96.8643 138.014 95.6751 139.304 93.9812 139.304ZM93.9812 138.25C94.9908 138.25 95.5854 137.442 95.5854 136.23C95.5854 135.019 94.9908 134.256 93.9812 134.256C92.994 134.256 92.3994 135.041 92.3994 136.253C92.3994 137.464 93.0052 138.25 93.9812 138.25ZM98.0955 139.136V131.148H99.408V139.136H98.0955ZM104.051 133.201C105.262 133.201 105.98 133.953 105.98 135.187V139.136H104.668V135.467C104.668 134.772 104.342 134.368 103.669 134.368C102.94 134.368 102.289 134.862 102.289 135.983V139.136H100.977V133.347H102.233L102.256 134.155C102.648 133.538 103.265 133.201 104.051 133.201ZM111.308 133.347H112.688L110.186 140.213C109.85 141.166 109.39 141.424 108.571 141.424H107.572V140.314H108.234C108.728 140.314 108.941 140.157 109.12 139.685L109.277 139.259L106.989 133.347H108.425L109.704 136.959L109.861 137.745L111.308 133.347ZM118.27 134.289V137.509C118.27 137.924 118.416 138.07 118.82 138.07H119.459V139.136H118.416C117.384 139.136 116.958 138.709 116.958 137.677V134.301L116.128 134.334V133.347L116.958 133.381V131.563H118.27V133.381L119.459 133.347V134.334L118.27 134.289ZM125.805 136.275V136.6H121.531C121.587 137.677 122.181 138.261 123.09 138.261C123.774 138.261 124.212 137.935 124.436 137.318L125.693 137.431C125.334 138.653 124.369 139.304 123.09 139.304C121.261 139.304 120.196 137.991 120.196 136.219C120.196 134.491 121.239 133.201 122.989 133.201C124.661 133.201 125.805 134.357 125.805 136.275ZM123.023 134.211C122.204 134.211 121.62 134.738 121.542 135.692H124.492C124.38 134.738 123.853 134.211 123.023 134.211ZM129.878 133.168C130.012 133.168 130.124 133.179 130.248 133.201V134.447C130.124 134.435 130.012 134.424 129.9 134.424C129.025 134.424 128.374 134.996 128.352 136.152V139.136H127.039V133.347H128.296L128.273 134.402C128.565 133.628 129.104 133.168 129.878 133.168ZM137.551 133.201C138.718 133.201 139.369 133.942 139.369 135.221V139.136H138.056V135.378C138.056 134.794 137.765 134.368 137.17 134.368C136.519 134.368 135.947 134.85 135.947 136.017V139.136H134.635V135.378C134.635 134.794 134.343 134.368 133.748 134.368C133.109 134.368 132.537 134.873 132.537 136.04V139.136H131.224V133.347H132.492L132.481 134.155C132.851 133.527 133.401 133.201 134.152 133.201C134.96 133.201 135.521 133.571 135.779 134.233C136.149 133.538 136.744 133.201 137.551 133.201ZM140.931 132.427V131.148H142.243V132.427H140.931ZM140.931 139.136V133.347H142.243V139.136H140.931ZM146.886 133.201C148.097 133.201 148.815 133.953 148.815 135.187V139.136H147.503V135.467C147.503 134.772 147.177 134.368 146.504 134.368C145.775 134.368 145.124 134.862 145.124 135.983V139.136H143.812V133.347H145.068L145.091 134.155C145.483 133.538 146.1 133.201 146.886 133.201Z" fill="black"/>
<rect x="211.845" y="125.521" width="18.2296" height="18.2296" rx="2.80456" fill="white"/>
<g clip-path="url(#clip7_1_2058)">
<path d="M218.549 130.298H217.103C216.837 130.298 216.621 130.514 216.621 130.78V138.492C216.621 138.759 216.837 138.974 217.103 138.974H218.549C218.816 138.974 219.032 138.759 219.032 138.492V130.78C219.032 130.514 218.816 130.298 218.549 130.298Z" stroke="black" stroke-width="0.70114" stroke-linecap="round" stroke-linejoin="round"/>
<path d="M224.816 130.298H223.37C223.104 130.298 222.888 130.514 222.888 130.78V138.492C222.888 138.759 223.104 138.974 223.37 138.974H224.816C225.082 138.974 225.298 138.759 225.298 138.492V130.78C225.298 130.514 225.082 130.298 224.816 130.298Z" stroke="black" stroke-width="0.70114" stroke-linecap="round" stroke-linejoin="round"/>
<path d="M225.298 131.744H226.744C226.872 131.744 226.995 131.795 227.085 131.885C227.175 131.976 227.226 132.098 227.226 132.226V137.047C227.226 137.174 227.175 137.297 227.085 137.387C226.995 137.478 226.872 137.529 226.744 137.529H225.298" stroke="black" stroke-width="0.70114" stroke-linecap="round" stroke-linejoin="round"/>
<path d="M216.621 137.529H215.175C215.047 137.529 214.925 137.478 214.834 137.387C214.744 137.297 214.693 137.174 214.693 137.047V132.226C214.693 132.098 214.744 131.976 214.834 131.885C214.925 131.795 215.047 131.744 215.175 131.744H216.621" stroke="black" stroke-width="0.70114" stroke-linecap="round" stroke-linejoin="round"/>
<path d="M219.031 134.637H222.888" stroke="black" stroke-width="0.70114" stroke-linecap="round" stroke-linejoin="round"/>
<path d="M227.226 134.637H228.19" stroke="black" stroke-width="0.70114" stroke-linecap="round" stroke-linejoin="round"/>
<path d="M213.729 134.636H214.693" stroke="black" stroke-width="0.70114" stroke-linecap="round" stroke-linejoin="round"/>
</g>
<g clip-path="url(#clip8_1_2058)">
<path d="M242.169 137.704L245.237 134.637L242.169 131.569" stroke="black" stroke-width="1.40228" stroke-linecap="round" stroke-linejoin="round"/>
</g>
<g opacity="0.6">
<path d="M14.5776 171.037V165.248H12.5022V164.463H12.8051C13.3772 164.463 13.8148 164.373 14.1289 164.138C14.4205 163.914 14.6225 163.611 14.7459 163.173L14.7795 163.05H15.6209V171.037H14.5776ZM20.6379 171.172C18.8093 171.172 17.8894 169.848 17.8894 167.043C17.8894 164.194 18.8318 162.915 20.6603 162.915C22.4889 162.915 23.4088 164.194 23.4088 167.043C23.4088 169.848 22.4665 171.172 20.6379 171.172ZM20.6603 170.263C21.8495 170.263 22.3431 169.321 22.3431 167.043C22.3431 164.777 21.8382 163.824 20.6491 163.824C19.46 163.824 18.9552 164.777 18.9552 167.043C18.9552 169.321 19.4712 170.263 20.6603 170.263ZM25.1886 166.382V165.248H26.4562V166.382H25.1886ZM25.1886 171.037V169.904H26.4562V171.037H25.1886ZM30.9907 171.172C29.1621 171.172 28.2422 169.848 28.2422 167.043C28.2422 164.194 29.1845 162.915 31.0131 162.915C32.8417 162.915 33.7616 164.194 33.7616 167.043C33.7616 169.848 32.8192 171.172 30.9907 171.172ZM31.0131 170.263C32.2022 170.263 32.6958 169.321 32.6958 167.043C32.6958 164.777 32.191 163.824 31.0019 163.824C29.8127 163.824 29.3079 164.777 29.3079 167.043C29.3079 169.321 29.824 170.263 31.0131 170.263ZM38.1664 171.172C36.3378 171.172 35.4179 169.848 35.4179 167.043C35.4179 164.194 36.3603 162.915 38.1888 162.915C40.0174 162.915 40.9373 164.194 40.9373 167.043C40.9373 169.848 39.995 171.172 38.1664 171.172ZM38.1888 170.263C39.378 170.263 39.8716 169.321 39.8716 167.043C39.8716 164.777 39.3667 163.824 38.1776 163.824C36.9885 163.824 36.4837 164.777 36.4837 167.043C36.4837 169.321 36.9997 170.263 38.1888 170.263Z" fill="#8F93B1"/>
<path d="M14.5776 187.439V181.651H12.5022V180.866H12.8051C13.3772 180.866 13.8148 180.776 14.1289 180.54C14.4205 180.316 14.6225 180.013 14.7459 179.575L14.7795 179.452H15.6209V187.439H14.5776ZM20.6379 187.574C18.8093 187.574 17.8894 186.25 17.8894 183.446C17.8894 180.596 18.8318 179.317 20.6603 179.317C22.4889 179.317 23.4088 180.596 23.4088 183.446C23.4088 186.25 22.4665 187.574 20.6379 187.574ZM20.6603 186.665C21.8495 186.665 22.3431 185.723 22.3431 183.446C22.3431 181.18 21.8382 180.226 20.6491 180.226C19.46 180.226 18.9552 181.18 18.9552 183.446C18.9552 185.723 19.4712 186.665 20.6603 186.665ZM25.1886 182.784V181.651H26.4562V182.784H25.1886ZM25.1886 187.439V186.306H26.4562V187.439H25.1886ZM31.0131 187.597C29.207 187.597 28.0739 186.598 28.0066 184.904H29.0499C29.106 186.082 29.7903 186.665 31.0355 186.665C32.3256 186.665 32.9314 186.037 32.9314 185.117C32.9314 184.242 32.3929 183.704 31.2487 183.704H30.3961V182.795H30.9682C31.9891 182.795 32.4827 182.346 32.4827 181.561C32.4827 180.709 31.9218 180.282 30.9121 180.282C29.8688 180.282 29.3865 180.731 29.3304 181.853H28.2871C28.3544 180.237 29.3304 179.351 30.957 179.351C32.5163 179.351 33.5484 180.192 33.5484 181.471C33.5484 182.201 33.2231 182.795 32.3705 183.154V183.188C33.4362 183.401 33.9972 184.096 33.9972 185.117C33.9972 186.621 32.7968 187.597 31.0131 187.597ZM38.1664 187.574C36.3378 187.574 35.4179 186.25 35.4179 183.446C35.4179 180.596 36.3603 179.317 38.1888 179.317C40.0174 179.317 40.9373 180.596 40.9373 183.446C40.9373 186.25 39.995 187.574 38.1664 187.574ZM38.1888 186.665C39.378 186.665 39.8716 185.723 39.8716 183.446C39.8716 181.18 39.3667 180.226 38.1776 180.226C36.9885 180.226 36.4837 181.18 36.4837 183.446C36.4837 185.723 36.9997 186.665 38.1888 186.665Z" fill="#8F93B1"/>
<rect x="57.9445" y="157.773" width="198.423" height="33.9308" rx="8.06311" fill="white"/>
<rect x="57.9445" y="157.773" width="198.423" height="33.9308" rx="8.06311" stroke="#DFE0E7" stroke-width="0.70114"/>
<g clip-path="url(#clip9_1_2058)">
<path d="M70.9157 175.967C72.271 175.967 73.3697 174.868 73.3697 173.513C73.3697 172.157 72.271 171.059 70.9157 171.059C69.5604 171.059 68.4617 172.157 68.4617 173.513C68.4617 174.868 69.5604 175.967 70.9157 175.967Z" stroke="#8F93B1" stroke-width="1.40228" stroke-linecap="round" stroke-linejoin="round"/>
<path d="M67.2348 178.113C67.9775 176.83 69.3264 175.966 70.9158 175.966C72.5051 175.966 73.8541 176.83 74.5968 178.113" stroke="#8F93B1" stroke-width="1.40228" stroke-linecap="round" stroke-linejoin="round"/>
</g>
<path d="M85.4044 171.252H86.3916V179.239H85.2025L81.0293 172.755V179.239H80.0421V171.252H81.1976L85.4044 177.77V171.252ZM88.2463 172.362V171.252H89.2784V172.362H88.2463ZM88.2463 179.239V173.451H89.2784V179.239H88.2463ZM96.1098 176.21V176.592H91.7683C91.802 177.893 92.4751 178.533 93.5184 178.533C94.3709 178.533 94.8646 178.106 95.1226 177.377L96.0649 177.489C95.7059 178.69 94.7524 179.374 93.4847 179.374C91.7571 179.374 90.7362 178.106 90.7362 176.323C90.7362 174.55 91.7347 173.316 93.4623 173.316C95.0889 173.316 96.1098 174.404 96.1098 176.21ZM93.4735 174.157C92.5536 174.157 91.8805 174.718 91.7795 175.851H95.145C95.0104 174.752 94.4158 174.157 93.4735 174.157ZM101.484 171.252H102.517V179.239H101.619V178.319C101.271 178.925 100.598 179.363 99.7568 179.363C98.1863 179.363 97.2327 178.05 97.2327 176.255C97.2327 174.505 98.2648 173.327 99.7344 173.327C100.486 173.327 101.114 173.641 101.484 174.146V171.252ZM99.8578 178.476C100.823 178.476 101.541 177.646 101.541 176.278C101.541 174.909 100.845 174.213 99.8802 174.213C98.8818 174.213 98.2648 174.931 98.2648 176.255C98.2648 177.601 98.8594 178.476 99.8578 178.476ZM106.752 179.385C105.092 179.385 103.97 178.162 103.97 176.345C103.97 174.483 105.126 173.305 106.786 173.305C108.401 173.305 109.546 174.46 109.546 176.3C109.546 178.117 108.379 179.385 106.752 179.385ZM106.752 178.521C107.874 178.521 108.514 177.613 108.514 176.3C108.514 174.988 107.874 174.169 106.752 174.169C105.653 174.169 105.002 175.032 105.002 176.345C105.002 177.657 105.664 178.521 106.752 178.521ZM112.964 179.385C111.505 179.385 110.686 178.734 110.552 177.411H111.539C111.64 178.218 112.122 178.555 113.009 178.555C113.951 178.555 114.388 178.196 114.388 177.646C114.388 177.186 114.086 176.928 113.48 176.805L112.313 176.558C111.191 176.323 110.709 175.806 110.709 174.988C110.709 173.978 111.438 173.316 112.863 173.316C114.175 173.316 115.073 173.888 115.219 175.133H114.198C114.086 174.46 113.648 174.135 112.829 174.135C112.1 174.135 111.662 174.382 111.662 174.898C111.662 175.268 111.876 175.526 112.56 175.672L113.682 175.919C114.882 176.188 115.376 176.715 115.376 177.557C115.376 178.69 114.489 179.385 112.964 179.385ZM118.112 174.202V177.815C118.112 178.241 118.246 178.375 118.672 178.375H119.424V179.239H118.37C117.472 179.239 117.079 178.847 117.079 177.949V174.202L116.216 174.247V173.451L117.079 173.484V171.678H118.112V173.496L119.435 173.451V174.247L118.112 174.202ZM125.711 176.21V176.592H121.37C121.403 177.893 122.076 178.533 123.12 178.533C123.972 178.533 124.466 178.106 124.724 177.377L125.666 177.489C125.307 178.69 124.354 179.374 123.086 179.374C121.358 179.374 120.337 178.106 120.337 176.323C120.337 174.55 121.336 173.316 123.064 173.316C124.69 173.316 125.711 174.404 125.711 176.21ZM123.075 174.157C122.155 174.157 121.482 174.718 121.381 175.851H124.746C124.612 174.752 124.017 174.157 123.075 174.157ZM129.964 173.327C131.433 173.327 132.454 174.46 132.454 176.21C132.454 178.005 131.49 179.363 129.919 179.363C129.179 179.363 128.573 179.026 128.203 178.533V181.528H127.171V173.451H128.068V174.382C128.405 173.742 129.111 173.327 129.964 173.327ZM129.818 178.476C130.816 178.476 131.422 177.557 131.422 176.21C131.422 174.887 130.816 174.213 129.818 174.213C128.853 174.213 128.147 174.909 128.147 176.278C128.147 177.646 128.853 178.476 129.818 178.476ZM136.814 173.305C138.025 173.305 138.777 174 138.777 175.223V179.239H137.745V175.425C137.745 174.629 137.374 174.202 136.589 174.202C135.793 174.202 134.94 174.64 134.94 176.02V179.239H133.908V173.451H134.873V174.27C135.265 173.653 135.961 173.305 136.814 173.305ZM145.606 176.21V176.592H141.264C141.298 177.893 141.971 178.533 143.014 178.533C143.867 178.533 144.361 178.106 144.619 177.377L145.561 177.489C145.202 178.69 144.248 179.374 142.981 179.374C141.253 179.374 140.232 178.106 140.232 176.323C140.232 174.55 141.231 173.316 142.958 173.316C144.585 173.316 145.606 174.404 145.606 176.21ZM142.97 174.157C142.05 174.157 141.377 174.718 141.276 175.851H144.641C144.506 174.752 143.912 174.157 142.97 174.157Z" fill="#8F93B1"/>
</g>
<g opacity="0.6">
<path d="M14.5776 211.278V205.49H12.5022V204.704H12.8051C13.3772 204.704 13.8148 204.615 14.1289 204.379C14.4205 204.155 14.6225 203.852 14.7459 203.414L14.7795 203.291H15.6209V211.278H14.5776ZM20.6379 211.413C18.8093 211.413 17.8894 210.089 17.8894 207.285C17.8894 204.435 18.8318 203.156 20.6603 203.156C22.4889 203.156 23.4088 204.435 23.4088 207.285C23.4088 210.089 22.4665 211.413 20.6379 211.413ZM20.6603 210.504C21.8495 210.504 22.3431 209.562 22.3431 207.285C22.3431 205.019 21.8382 204.065 20.6491 204.065C19.46 204.065 18.9552 205.019 18.9552 207.285C18.9552 209.562 19.4712 210.504 20.6603 210.504ZM25.1886 206.623V205.49H26.4562V206.623H25.1886ZM25.1886 211.278V210.145H26.4562V211.278H25.1886ZM31.0131 211.435C29.207 211.435 28.0739 210.437 28.0066 208.743H29.0499C29.106 209.921 29.7903 210.504 31.0355 210.504C32.3256 210.504 32.9314 209.876 32.9314 208.956C32.9314 208.081 32.3929 207.543 31.2487 207.543H30.3961V206.634H30.9682C31.9891 206.634 32.4827 206.185 32.4827 205.4C32.4827 204.547 31.9218 204.121 30.9121 204.121C29.8688 204.121 29.3865 204.57 29.3304 205.692H28.2871C28.3544 204.076 29.3304 203.19 30.957 203.19C32.5163 203.19 33.5484 204.031 33.5484 205.31C33.5484 206.039 33.2231 206.634 32.3705 206.993V207.027C33.4362 207.24 33.9972 207.935 33.9972 208.956C33.9972 210.459 32.7968 211.435 31.0131 211.435ZM38.1664 211.413C36.3378 211.413 35.4179 210.089 35.4179 207.285C35.4179 204.435 36.3603 203.156 38.1888 203.156C40.0174 203.156 40.9373 204.435 40.9373 207.285C40.9373 210.089 39.995 211.413 38.1664 211.413ZM38.1888 210.504C39.378 210.504 39.8716 209.562 39.8716 207.285C39.8716 205.019 39.3667 204.065 38.1776 204.065C36.9885 204.065 36.4837 205.019 36.4837 207.285C36.4837 209.562 36.9997 210.504 38.1888 210.504Z" fill="#8F93B1"/>
<rect x="57.9445" y="198.015" width="198.423" height="33.9308" rx="8.06311" fill="white"/>
<rect x="57.9445" y="198.015" width="198.423" height="33.9308" rx="8.06311" stroke="#DFE0E7" stroke-width="0.70114"/>
<g clip-path="url(#clip10_1_2058)">
<path d="M70.9157 216.208C72.271 216.208 73.3697 215.109 73.3697 213.754C73.3697 212.398 72.271 211.3 70.9157 211.3C69.5604 211.3 68.4617 212.398 68.4617 213.754C68.4617 215.109 69.5604 216.208 70.9157 216.208Z" stroke="#8F93B1" stroke-width="1.40228" stroke-linecap="round" stroke-linejoin="round"/>
</g>
<path d="M85.4044 211.493H86.3916V219.48H85.2025L81.0293 212.996V219.48H80.0421V211.493H81.1976L85.4044 218.011V211.493ZM88.2463 212.604V211.493H89.2784V212.604H88.2463ZM88.2463 219.48V213.692H89.2784V219.48H88.2463ZM96.1098 216.452V216.833H91.7683C91.802 218.134 92.4751 218.774 93.5184 218.774C94.3709 218.774 94.8646 218.347 95.1226 217.618L96.0649 217.73C95.7059 218.931 94.7524 219.615 93.4847 219.615C91.7571 219.615 90.7362 218.347 90.7362 216.564C90.7362 214.791 91.7347 213.557 93.4623 213.557C95.0889 213.557 96.1098 214.645 96.1098 216.452ZM93.4735 214.399C92.5536 214.399 91.8805 214.96 91.7795 216.093H95.145C95.0104 214.993 94.4158 214.399 93.4735 214.399ZM101.484 211.493H102.517V219.48H101.619V218.561C101.271 219.166 100.598 219.604 99.7568 219.604C98.1863 219.604 97.2327 218.291 97.2327 216.496C97.2327 214.746 98.2648 213.568 99.7344 213.568C100.486 213.568 101.114 213.883 101.484 214.387V211.493ZM99.8578 218.718C100.823 218.718 101.541 217.887 101.541 216.519C101.541 215.15 100.845 214.455 99.8802 214.455C98.8818 214.455 98.2648 215.173 98.2648 216.496C98.2648 217.843 98.8594 218.718 99.8578 218.718ZM106.752 219.626C105.092 219.626 103.97 218.404 103.97 216.586C103.97 214.724 105.126 213.546 106.786 213.546C108.401 213.546 109.546 214.701 109.546 216.541C109.546 218.359 108.379 219.626 106.752 219.626ZM106.752 218.763C107.874 218.763 108.514 217.854 108.514 216.541C108.514 215.229 107.874 214.41 106.752 214.41C105.653 214.41 105.002 215.274 105.002 216.586C105.002 217.899 105.664 218.763 106.752 218.763ZM112.964 219.626C111.505 219.626 110.686 218.976 110.552 217.652H111.539C111.64 218.46 112.122 218.796 113.009 218.796C113.951 218.796 114.388 218.437 114.388 217.887C114.388 217.428 114.086 217.17 113.48 217.046L112.313 216.799C111.191 216.564 110.709 216.048 110.709 215.229C110.709 214.219 111.438 213.557 112.863 213.557C114.175 213.557 115.073 214.129 115.219 215.375H114.198C114.086 214.701 113.648 214.376 112.829 214.376C112.1 214.376 111.662 214.623 111.662 215.139C111.662 215.509 111.876 215.767 112.56 215.913L113.682 216.16C114.882 216.429 115.376 216.956 115.376 217.798C115.376 218.931 114.489 219.626 112.964 219.626ZM118.112 214.443V218.056C118.112 218.482 118.246 218.617 118.672 218.617H119.424V219.48H118.37C117.472 219.48 117.079 219.088 117.079 218.19V214.443L116.216 214.488V213.692L117.079 213.726V211.919H118.112V213.737L119.435 213.692V214.488L118.112 214.443ZM125.711 216.452V216.833H121.37C121.403 218.134 122.076 218.774 123.12 218.774C123.972 218.774 124.466 218.347 124.724 217.618L125.666 217.73C125.442 218.471 124.993 219.021 124.387 219.323L123.647 219.817C123.31 220.041 123.209 220.187 123.209 220.4C123.209 220.67 123.366 220.849 123.882 220.849H124.241V221.578H123.624C122.648 221.578 122.267 221.163 122.267 220.591C122.267 220.232 122.424 219.918 122.895 219.615C121.28 219.514 120.337 218.28 120.337 216.564C120.337 214.791 121.336 213.557 123.064 213.557C124.69 213.557 125.711 214.645 125.711 216.452ZM123.075 214.399C122.155 214.399 121.482 214.96 121.381 216.093H124.746C124.612 214.993 124.017 214.399 123.075 214.399ZM129.964 213.568C131.433 213.568 132.454 214.701 132.454 216.452C132.454 218.246 131.49 219.604 129.919 219.604C129.179 219.604 128.573 219.267 128.203 218.774V221.769H127.171V213.692H128.068V214.623C128.405 213.984 129.111 213.568 129.964 213.568ZM129.818 218.718C130.816 218.718 131.422 217.798 131.422 216.452C131.422 215.128 130.816 214.455 129.818 214.455C128.853 214.455 128.147 215.15 128.147 216.519C128.147 217.887 128.853 218.718 129.818 218.718ZM136.814 213.546C138.025 213.546 138.777 214.242 138.777 215.464V219.48H137.745V215.666C137.745 214.87 137.374 214.443 136.589 214.443C135.793 214.443 134.94 214.881 134.94 216.261V219.48H133.908V213.692H134.873V214.511C135.265 213.894 135.961 213.546 136.814 213.546ZM145.606 216.452V216.833H141.264C141.298 218.134 141.971 218.774 143.014 218.774C143.867 218.774 144.361 218.347 144.619 217.618L145.561 217.73C145.202 218.931 144.248 219.615 142.981 219.615C141.253 219.615 140.232 218.347 140.232 216.564C140.232 214.791 141.231 213.557 142.958 213.557C144.585 213.557 145.606 214.645 145.606 216.452ZM142.97 214.399C142.05 214.399 141.377 214.96 141.276 216.093H144.641C144.506 214.993 143.912 214.399 142.97 214.399Z" fill="#8F93B1"/>
</g>
</g>
<defs>
<clipPath id="clip0_1_2058">
<rect width="267.724" height="212.833" fill="white" transform="translate(0.845154 0.317871)"/>
</clipPath>
<clipPath id="clip1_1_2058">
<rect width="12.6494" height="12.6494" fill="white" transform="translate(26.7855 17.0093)"/>
</clipPath>
<clipPath id="clip2_1_2058">
<rect width="12.6494" height="12.6494" fill="white" transform="translate(94.2027 17.0088)"/>
</clipPath>
<clipPath id="clip3_1_2058">
<rect width="12.6494" height="12.6494" fill="white" transform="translate(195.62 17.0088)"/>
</clipPath>
<clipPath id="clip4_1_2058">
<rect width="9.81596" height="9.81596" fill="white" transform="translate(17.0009 63.4941)"/>
</clipPath>
<clipPath id="clip5_1_2058">
<rect width="9.81596" height="9.81596" fill="white" transform="matrix(-1 0 0 1 250.682 63.4941)"/>
</clipPath>
<clipPath id="clip6_1_2058">
<rect width="9.81596" height="9.81596" fill="white" transform="translate(66.0076 129.728)"/>
</clipPath>
<clipPath id="clip7_1_2058">
<rect width="15.4251" height="15.4251" fill="white" transform="translate(213.247 126.924)"/>
</clipPath>
<clipPath id="clip8_1_2058">
<rect width="9.81596" height="9.81596" fill="white" transform="matrix(-1 0 0 1 248.304 129.729)"/>
</clipPath>
<clipPath id="clip9_1_2058">
<rect width="9.81596" height="9.81596" fill="white" transform="translate(66.0077 169.831)"/>
</clipPath>
<clipPath id="clip10_1_2058">
<rect width="9.81596" height="9.81596" fill="white" transform="translate(66.0077 210.072)"/>
</clipPath>
</defs>
</svg>
