<svg width="269" height="275" viewBox="0 0 269 275" fill="none" xmlns="http://www.w3.org/2000/svg">
<path d="M14.3037 31.5228C13.2424 31.5228 12.297 31.2801 11.4677 30.7948C10.6384 30.3068 9.99036 29.6121 9.52369 28.7108C9.05702 27.8095 8.82369 26.7575 8.82369 25.5548C8.82369 24.3521 9.05569 23.3028 9.51969 22.4068C9.98369 21.5081 10.637 20.8175 11.4797 20.3348C12.3224 19.8521 13.297 19.6108 14.4037 19.6108C15.3157 19.6108 16.1304 19.7748 16.8477 20.1028C17.565 20.4308 18.1584 20.9148 18.6277 21.5548C19.0997 22.1921 19.4224 22.9681 19.5957 23.8828H17.0517C16.9317 23.3948 16.741 22.9935 16.4797 22.6788C16.221 22.3641 15.9117 22.1335 15.5517 21.9868C15.1944 21.8401 14.7997 21.7668 14.3677 21.7668C13.7677 21.7668 13.245 21.9135 12.7997 22.2068C12.357 22.4975 12.013 22.9268 11.7677 23.4948C11.525 24.0601 11.4037 24.7468 11.4037 25.5548C11.4037 26.3681 11.5277 27.0601 11.7757 27.6308C12.0237 28.2015 12.3717 28.6335 12.8197 28.9268C13.2677 29.2201 13.7904 29.3668 14.3877 29.3668C14.825 29.3668 15.233 29.2815 15.6117 29.1108C15.993 28.9401 16.3157 28.6801 16.5797 28.3308C16.8437 27.9788 17.017 27.5415 17.0997 27.0188H19.6237C19.5037 27.9415 19.1944 28.7428 18.6957 29.4228C18.197 30.1028 17.5664 30.6228 16.8037 30.9828C16.041 31.3428 15.2077 31.5228 14.3037 31.5228ZM24.6298 31.4508C23.7791 31.4508 23.0338 31.2775 22.3938 30.9308C21.7538 30.5841 21.2591 30.0868 20.9098 29.4388C20.5605 28.7881 20.3858 28.0241 20.3858 27.1468C20.3858 26.2855 20.5578 25.5281 20.9018 24.8748C21.2485 24.2188 21.7405 23.7108 22.3778 23.3508C23.0151 22.9908 23.7578 22.8108 24.6058 22.8108C25.4538 22.8108 26.1925 22.9908 26.8218 23.3508C27.4538 23.7108 27.9391 24.2161 28.2778 24.8668C28.6165 25.5148 28.7858 26.2615 28.7858 27.1068C28.7858 27.2028 28.7831 27.3068 28.7778 27.4188C28.7725 27.5281 28.7658 27.6481 28.7578 27.7788H21.6658V26.3308H27.0858L26.5178 26.6548C26.5151 26.2255 26.4391 25.8508 26.2898 25.5308C26.1431 25.2081 25.9258 24.9575 25.6378 24.7788C25.3498 24.5975 24.9978 24.5068 24.5818 24.5068C24.1711 24.5068 23.8191 24.5961 23.5258 24.7748C23.2351 24.9535 23.0098 25.2228 22.8498 25.5828C22.6925 25.9428 22.6125 26.3921 22.6098 26.9308V27.5228C22.6098 28.0188 22.6898 28.4361 22.8498 28.7748C23.0125 29.1108 23.2471 29.3641 23.5538 29.5348C23.8631 29.7055 24.2351 29.7908 24.6698 29.7908C24.9765 29.7908 25.2471 29.7468 25.4818 29.6588C25.7191 29.5708 25.9151 29.4441 26.0698 29.2788C26.2271 29.1135 26.3458 28.9135 26.4258 28.6788H28.6018C28.4605 29.2468 28.2098 29.7388 27.8498 30.1548C27.4898 30.5708 27.0351 30.8908 26.4858 31.1148C25.9391 31.3388 25.3205 31.4508 24.6298 31.4508ZM29.9606 31.2588V23.0028H32.2046V24.7948H32.2686V31.2588H29.9606ZM35.3566 26.2428C35.3566 25.9228 35.3019 25.6548 35.1926 25.4388C35.0859 25.2201 34.9286 25.0575 34.7206 24.9508C34.5126 24.8415 34.2552 24.7868 33.9486 24.7868C33.6606 24.7868 33.3886 24.8535 33.1326 24.9868C32.8792 25.1201 32.6712 25.3268 32.5086 25.6068C32.3486 25.8841 32.2686 26.2308 32.2686 26.6468H31.5766V24.6588H31.9846C32.1472 24.2828 32.3646 23.9561 32.6366 23.6788C32.9086 23.4015 33.2286 23.1881 33.5966 23.0388C33.9646 22.8868 34.3672 22.8108 34.8046 22.8108C35.3992 22.8108 35.9086 22.9241 36.3326 23.1508C36.7592 23.3775 37.0872 23.7215 37.3166 24.1828C37.5486 24.6441 37.6646 25.2175 37.6646 25.9028V31.2588H35.3566V26.2428ZM39.1949 31.2588V23.0028H41.4389V24.7948H41.5029V31.2588H39.1949ZM44.5909 26.2428C44.5909 25.9228 44.5363 25.6548 44.4269 25.4388C44.3203 25.2201 44.1629 25.0575 43.9549 24.9508C43.7469 24.8415 43.4896 24.7868 43.1829 24.7868C42.8949 24.7868 42.6229 24.8535 42.3669 24.9868C42.1136 25.1201 41.9056 25.3268 41.7429 25.6068C41.5829 25.8841 41.5029 26.2308 41.5029 26.6468H40.8109V24.6588H41.2189C41.3816 24.2828 41.5989 23.9561 41.8709 23.6788C42.1429 23.4015 42.4629 23.1881 42.8309 23.0388C43.1989 22.8868 43.6016 22.8108 44.0389 22.8108C44.6336 22.8108 45.1429 22.9241 45.5669 23.1508C45.9936 23.3775 46.3216 23.7215 46.5509 24.1828C46.7829 24.6441 46.8989 25.2175 46.8989 25.9028V31.2588H44.5909V26.2428ZM48.4293 31.2588V23.0028H50.7373V31.2588H48.4293ZM48.4293 22.1908V20.1668H50.7373V22.1908H48.4293ZM54.3051 29.0828L54.0851 26.8268L55.6891 25.1468L57.7651 23.0028H60.4611L56.5131 26.9868L56.4131 26.9988L54.3051 29.0828ZM52.2731 31.2588V19.8668H54.5731V25.7108V27.0668V27.5588V31.2588H52.2731ZM57.9411 31.2588L56.5131 28.9468L55.3651 27.0628V25.9788L57.1411 25.9508L60.5691 31.2588H57.9411ZM67.5862 31.4508C66.9942 31.4508 66.4849 31.3375 66.0582 31.1108C65.6315 30.8841 65.3022 30.5401 65.0702 30.0788C64.8409 29.6175 64.7262 29.0441 64.7262 28.3588V23.0028H67.0342V28.0188C67.0342 28.3388 67.0875 28.6081 67.1942 28.8268C67.3035 29.0428 67.4622 29.2055 67.6702 29.3148C67.8809 29.4215 68.1395 29.4748 68.4462 29.4748C68.7315 29.4748 69.0022 29.4081 69.2582 29.2748C69.5142 29.1415 69.7222 28.9361 69.8822 28.6588C70.0422 28.3788 70.1222 28.0308 70.1222 27.6148H70.8142V29.6028H70.4062C70.2435 29.9788 70.0249 30.3055 69.7502 30.5828C69.4782 30.8601 69.1582 31.0748 68.7902 31.2268C68.4249 31.3761 68.0235 31.4508 67.5862 31.4508ZM70.1862 31.2588V29.4668H70.1222V23.0028H72.4302V31.2588L70.1862 31.2588ZM77.2926 31.4868C76.4846 31.4868 75.8006 31.3815 75.2406 31.1708C74.6832 30.9601 74.2526 30.6428 73.9486 30.2188C73.6446 29.7948 73.4699 29.2615 73.4246 28.6188H75.6646C75.6992 28.9255 75.7779 29.1721 75.9006 29.3588C76.0259 29.5428 76.2059 29.6775 76.4406 29.7628C76.6752 29.8455 76.9792 29.8868 77.3526 29.8868C77.6912 29.8868 77.9712 29.8535 78.1926 29.7868C78.4139 29.7175 78.5779 29.6188 78.6846 29.4908C78.7912 29.3601 78.8446 29.2001 78.8446 29.0108C78.8446 28.8348 78.8032 28.6895 78.7206 28.5748C78.6379 28.4601 78.5006 28.3641 78.3086 28.2868C78.1192 28.2068 77.8579 28.1388 77.5246 28.0828L76.3486 27.9028C75.7566 27.8095 75.2566 27.6561 74.8486 27.4428C74.4432 27.2295 74.1326 26.9508 73.9166 26.6068C73.7032 26.2628 73.5966 25.8495 73.5966 25.3668C73.5966 24.8281 73.7352 24.3681 74.0126 23.9868C74.2899 23.6028 74.6952 23.3108 75.2286 23.1108C75.7619 22.9108 76.4046 22.8108 77.1566 22.8108C78.0099 22.8108 78.7099 22.9268 79.2566 23.1588C79.8059 23.3881 80.2099 23.7095 80.4686 24.1228C80.7299 24.5335 80.8726 25.0228 80.8966 25.5908H78.7606C78.7419 25.2868 78.6699 25.0468 78.5446 24.8708C78.4192 24.6948 78.2432 24.5708 78.0166 24.4988C77.7926 24.4241 77.5059 24.3868 77.1566 24.3868C76.8632 24.3868 76.6179 24.4188 76.4206 24.4828C76.2232 24.5441 76.0739 24.6375 75.9726 24.7628C75.8739 24.8855 75.8246 25.0348 75.8246 25.2108C75.8246 25.3895 75.8699 25.5375 75.9606 25.6548C76.0539 25.7721 76.1952 25.8681 76.3846 25.9428C76.5766 26.0148 76.8312 26.0761 77.1486 26.1268L78.1886 26.2828C78.8606 26.3868 79.4099 26.5455 79.8366 26.7588C80.2659 26.9721 80.5846 27.2468 80.7926 27.5828C81.0032 27.9188 81.1086 28.3255 81.1086 28.8028C81.1086 29.3735 80.9566 29.8601 80.6526 30.2628C80.3512 30.6628 79.9152 30.9668 79.3446 31.1748C78.7739 31.3828 78.0899 31.4868 77.2926 31.4868ZM81.4517 27.5108V25.9628L83.7677 24.8268L86.2157 23.6228V25.1708L84.0837 26.2148L81.4517 27.5108ZM82.6797 31.2588V19.8668H84.9877V31.2588H82.6797ZM89.8987 31.4508C89.3067 31.4508 88.7974 31.3375 88.3707 31.1108C87.944 30.8841 87.6147 30.5401 87.3827 30.0788C87.1534 29.6175 87.0387 29.0441 87.0387 28.3588V23.0028H89.3467V28.0188C89.3467 28.3388 89.4 28.6081 89.5067 28.8268C89.616 29.0428 89.7747 29.2055 89.9827 29.3148C90.1934 29.4215 90.452 29.4748 90.7587 29.4748C91.044 29.4748 91.3147 29.4081 91.5707 29.2748C91.8267 29.1415 92.0347 28.9361 92.1947 28.6588C92.3547 28.3788 92.4347 28.0308 92.4347 27.6148H93.1267V29.6028H92.7187C92.556 29.9788 92.3374 30.3055 92.0627 30.5828C91.7907 30.8601 91.4707 31.0748 91.1027 31.2268C90.7374 31.3761 90.336 31.4508 89.8987 31.4508ZM92.4987 31.2588V29.4668H92.4347V23.0028H94.7427V31.2588H92.4987ZM100.249 34.7868C99.4517 34.7868 98.7637 34.6681 98.1851 34.4308C97.6064 34.1961 97.1517 33.8535 96.8211 33.4028C96.4904 32.9521 96.2957 32.4081 96.2371 31.7708H98.5531C98.5851 32.0615 98.6704 32.3028 98.8091 32.4948C98.9477 32.6868 99.1357 32.8295 99.3731 32.9228C99.6131 33.0188 99.9011 33.0668 100.237 33.0668C100.642 33.0668 100.98 32.9975 101.249 32.8588C101.521 32.7201 101.725 32.5121 101.861 32.2348C102 31.9575 102.069 31.6068 102.069 31.1828V28.9748H102.309V24.9108H102.133V23.0028L104.405 23.0028V31.0588C104.405 31.8295 104.246 32.4935 103.929 33.0508C103.612 33.6081 103.142 34.0361 102.521 34.3348C101.9 34.6361 101.142 34.7868 100.249 34.7868ZM99.4851 31.2988C98.7677 31.2988 98.1397 31.1255 97.6011 30.7788C97.0651 30.4295 96.6504 29.9348 96.3571 29.2948C96.0637 28.6521 95.9171 27.9041 95.9171 27.0508C95.9171 26.2001 96.0637 25.4548 96.3571 24.8148C96.6504 24.1748 97.0651 23.6815 97.6011 23.3348C98.1397 22.9855 98.7677 22.8108 99.4851 22.8108C100.205 22.8108 100.814 22.9908 101.313 23.3508C101.812 23.7108 102.185 24.2068 102.433 24.8388C102.684 25.4708 102.812 26.1975 102.817 27.0188V27.0508C102.817 27.8801 102.693 28.6148 102.445 29.2548C102.197 29.8921 101.824 30.3921 101.325 30.7548C100.826 31.1175 100.213 31.2988 99.4851 31.2988ZM100.189 29.5428C100.589 29.5428 100.933 29.4455 101.221 29.2508C101.509 29.0561 101.73 28.7721 101.885 28.3988C102.04 28.0228 102.117 27.5708 102.117 27.0428C102.117 26.5201 102.04 26.0735 101.885 25.7028C101.73 25.3295 101.508 25.0455 101.217 24.8508C100.929 24.6561 100.586 24.5588 100.189 24.5588C99.7917 24.5588 99.4477 24.6588 99.1571 24.8588C98.8691 25.0588 98.6477 25.3481 98.4931 25.7268C98.3384 26.1028 98.2611 26.5535 98.2611 27.0788C98.2611 27.6068 98.3371 28.0561 98.4891 28.4268C98.6437 28.7948 98.8651 29.0735 99.1531 29.2628C99.4437 29.4495 99.7891 29.5428 100.189 29.5428Z" fill="black"/>
<rect x="6.39569" y="40.2588" width="255" height="60.0405" rx="11.1544" fill="#EDEDED"/>
<path d="M29.8981 66.0198C29.9204 66.3656 29.9984 66.7337 30.1658 66.9902H28.9388C28.7715 66.7448 28.7157 66.3879 28.7045 65.9752L28.6711 65.1274C28.6265 64.0566 28.2026 63.722 27.3214 63.722H25.0124V66.9902H23.8189V59.0483H27.2879C28.9611 59.0483 30.0208 59.8626 30.0208 61.2457C30.0208 62.2384 29.5076 62.8966 28.6822 63.1643C29.4965 63.3985 29.7865 63.9562 29.82 64.7817L29.8981 66.0198ZM27.3102 62.7292C28.1803 62.7292 28.7938 62.2719 28.7938 61.3573C28.7938 60.4761 28.1803 60.0745 27.221 60.0745H25.0124V62.7292H27.3102ZM33.6054 67.1241C31.9211 67.1241 30.7499 65.9529 30.7499 64.1124C30.7499 62.2719 31.9211 61.1007 33.6054 61.1007C35.2786 61.1007 36.4498 62.2719 36.4498 64.1124C36.4498 65.9529 35.2786 67.1241 33.6054 67.1241ZM33.6054 66.1648C34.6205 66.1648 35.2897 65.4286 35.2897 64.1124C35.2897 62.7962 34.6205 62.06 33.6054 62.06C32.5792 62.06 31.9099 62.7962 31.9099 64.1124C31.9099 65.4286 32.5792 66.1648 33.6054 66.1648ZM39.3841 66.0756H41.5258V66.9902H36.774V66.2094L39.2503 63.0527C39.4845 62.7516 39.7299 62.4392 39.9864 62.1381C39.5849 62.1492 39.1833 62.1492 38.7818 62.1492H36.8632V61.2346H41.3919V62.0154L38.9156 65.1721C38.6814 65.4732 38.436 65.7856 38.1794 66.0867C38.581 66.0756 38.9825 66.0756 39.3841 66.0756ZM45.4664 61.1007C47.0615 61.1007 48.0988 62.2719 48.0988 64.1124C48.0988 65.9529 47.0615 67.1241 45.4664 67.1241C44.641 67.1241 44.0052 66.7783 43.5925 66.1871V69.1765H42.477V61.2346H43.5478V62.1046C43.9606 61.4688 44.6075 61.1007 45.4664 61.1007ZM45.2545 66.1648C46.2807 66.1648 46.9388 65.384 46.9388 64.0678C46.9388 62.7516 46.2807 62.06 45.2545 62.06C44.2283 62.06 43.5702 62.7962 43.5702 64.1124C43.5702 65.4286 44.2283 66.1648 45.2545 66.1648ZM49.067 60.4203V59.2268H50.2048V60.4203H49.067ZM49.0782 66.9902V61.2346H50.1936V66.9902H49.0782ZM53.5724 67.1352C52.0331 67.1352 51.1296 66.5329 51.0515 65.1609H52.167C52.2562 65.964 52.6466 66.254 53.5836 66.254C54.4871 66.254 54.8552 65.964 54.8552 65.4509C54.8552 64.9936 54.5763 64.7705 53.6282 64.6032L53.037 64.4916C51.7989 64.2686 51.2077 63.7108 51.2077 62.7739C51.2077 61.7588 52.0108 61.1007 53.4274 61.1007C55.0671 61.1007 55.8256 61.8146 55.8591 63.0304H54.7771C54.7325 62.205 54.2417 61.9707 53.4274 61.9707C52.7024 61.9707 52.312 62.2608 52.312 62.7404C52.312 63.2312 52.7024 63.4208 53.3828 63.5547L53.9852 63.6551C55.3906 63.9228 55.9818 64.4136 55.9818 65.3728C55.9818 66.4994 55.0783 67.1352 53.5724 67.1352ZM61.9173 66.1313H62.2296V66.9902C62.0623 67.0125 61.8615 67.0237 61.683 67.0237C60.9691 67.0237 60.6457 66.7671 60.5676 66.2094C60.1772 66.8118 59.5302 67.1241 58.6936 67.1241C57.4555 67.1241 56.6412 66.5217 56.6412 65.4175C56.6412 64.4916 57.1989 63.7889 58.8052 63.6328L59.6529 63.5435C60.2106 63.4766 60.5118 63.287 60.5118 62.8185C60.5118 62.2831 60.2329 61.9931 59.3294 61.9931C58.4259 61.9931 58.0467 62.2496 57.9909 63.0304H56.8866C56.9535 61.8704 57.6005 61.1007 59.3294 61.1007C60.9803 61.1007 61.6049 61.7923 61.6049 62.7962V65.8413C61.6049 66.0198 61.6942 66.1313 61.9173 66.1313ZM58.8609 66.254C59.6752 66.254 60.5118 65.7967 60.5118 64.7147V64.1124C60.3445 64.2462 60.1102 64.3132 59.7979 64.3466L58.9948 64.4359C58.069 64.5474 57.7901 64.8709 57.7901 65.384C57.7901 65.9083 58.1359 66.254 58.8609 66.254ZM65.8446 61.1007C67.0939 61.1007 67.8635 61.8146 67.8635 63.1308V66.9902H66.7481V63.287C66.7481 62.4615 66.3131 62.0823 65.5323 62.0823C64.8518 62.0823 64.0822 62.5842 64.0822 63.7443V66.9902H62.9667V61.2346H64.0376V62.0934C64.4168 61.5246 65.0303 61.1007 65.8446 61.1007ZM69.1101 60.4203V59.2268H70.2479V60.4203H69.1101ZM69.1213 66.9902V61.2346H70.2367V66.9902H69.1213ZM76.683 64.157V64.4805H72.3439C72.4443 65.6517 73.069 66.1871 73.9948 66.1871C74.7421 66.1871 75.2218 65.8079 75.4226 65.2278H76.5492C76.2591 66.3433 75.3556 67.1241 73.9725 67.1241C72.3439 67.1241 71.2173 65.964 71.2173 64.1124C71.2173 62.3054 72.3105 61.1007 73.9502 61.1007C75.6903 61.1007 76.683 62.4281 76.683 64.157ZM73.9502 62.0377C73.1136 62.0377 72.5001 62.5396 72.3551 63.5993H75.5341C75.4337 62.7069 74.8872 62.0377 73.9502 62.0377ZM84.1546 59.0483H85.2701V66.9902H84.1993V66.1425C83.7866 66.756 83.1396 67.1241 82.2919 67.1241C80.6856 67.1241 79.6594 65.9529 79.6594 64.1124C79.6594 62.2719 80.6856 61.1007 82.2919 61.1007C83.1061 61.1007 83.7419 61.4353 84.1546 62.0154V59.0483ZM82.5038 66.1648C83.53 66.1648 84.1881 65.4286 84.1881 64.1124C84.1881 62.7962 83.53 62.06 82.5038 62.06C81.4776 62.06 80.8195 62.8408 80.8195 64.157C80.8195 65.4732 81.4776 66.1648 82.5038 66.1648ZM86.5171 60.4203V59.2268H87.6549V60.4203H86.5171ZM86.5283 66.9902V61.2346H87.6437V66.9902H86.5283ZM94.09 64.157V64.4805H89.7509C89.8513 65.6517 90.476 66.1871 91.4018 66.1871C92.1491 66.1871 92.6288 65.8079 92.8296 65.2278H93.9562C93.6661 66.3433 92.7626 67.1241 91.3795 67.1241C89.7509 67.1241 88.6243 65.964 88.6243 64.1124C88.6243 62.3054 89.7175 61.1007 91.3572 61.1007C93.0973 61.1007 94.09 62.4281 94.09 64.157ZM91.3572 62.0377C90.5206 62.0377 89.9071 62.5396 89.7621 63.5993H92.9411C92.8407 62.7069 92.2941 62.0377 91.3572 62.0377ZM97.4962 62.1492H96.3361V65.6071C96.3361 65.9417 96.5035 66.0979 96.9943 66.0979H97.4962V66.9902C97.2508 67.0125 97.0166 67.0237 96.8158 67.0237C95.7784 67.0237 95.2207 66.6668 95.2207 65.7075V62.1492H94.2949V61.2346H95.2207V59.5837H96.3361V61.2346H97.4962V62.1492ZM102.094 61.2346H103.276L100.934 67.7153C100.532 68.8642 99.93 69.21 98.8035 69.21C98.5804 69.21 98.413 69.1988 98.2234 69.1765V68.273H98.7811C99.3389 68.273 99.6177 68.0276 99.785 67.5814C99.8297 67.4476 99.8854 67.2914 99.9412 67.1464L97.8107 61.2346H99.0265L99.6958 63.2089C99.997 64.1235 100.287 65.0494 100.555 65.964C100.834 65.0494 101.124 64.1235 101.425 63.2089L102.094 61.2346Z" fill="black"/>
<path d="M26.4653 75.6182C28.5149 75.6182 29.5202 76.9553 29.5202 79.0928C29.5202 81.1912 28.4759 82.5674 26.2701 82.5674H23.9569V75.6182H26.4653ZM26.231 81.7768C27.8512 81.7768 28.593 80.8984 28.593 79.0928C28.593 77.2481 27.8122 76.4087 26.2798 76.4087H24.8646V81.7768H26.231ZM30.866 76.5844V75.6182H31.764V76.5844H30.866ZM30.866 82.5674V77.5312H31.764V82.5674H30.866ZM37.7074 79.9322V80.264H33.9302C33.9595 81.3962 34.5451 81.9525 35.4528 81.9525C36.1946 81.9525 36.624 81.5816 36.8485 80.9472L37.6684 81.0448C37.3561 82.0891 36.5264 82.6845 35.4235 82.6845C33.9205 82.6845 33.0323 81.5816 33.0323 80.0298C33.0323 78.4877 33.901 77.414 35.404 77.414C36.8192 77.414 37.7074 78.3608 37.7074 79.9322ZM35.4138 78.146C34.6135 78.146 34.0278 78.6341 33.94 79.6198H36.868C36.7509 78.6633 36.2336 78.146 35.4138 78.146ZM40.0456 78.1851V81.3278C40.0456 81.6987 40.1628 81.8159 40.5337 81.8159H41.1876V82.5674H40.2701C39.4893 82.5674 39.1477 82.2258 39.1477 81.445V78.1851L38.3962 78.2241V77.5312L39.1477 77.5604V75.9891H40.0456V77.5702L41.1973 77.5312V78.2241L40.0456 78.1851ZM46.7159 81.9037H46.8623V82.5674H46.3841C45.8473 82.5674 45.5545 82.3234 45.5154 81.8256C45.1934 82.3136 44.5492 82.6943 43.6903 82.6943C42.6655 82.6943 42.0018 82.1575 42.0018 81.2302C42.0018 80.4006 42.4996 79.815 43.7196 79.6589L45.0079 79.4929C45.2519 79.4637 45.369 79.3465 45.369 79.1123V78.8976C45.369 78.3705 45.0177 78.1168 44.2369 78.1168C43.5146 78.1168 43.1535 78.3413 43.0949 79.0147H42.2068C42.2946 77.902 43.0071 77.375 44.3052 77.375C45.5545 77.375 46.2767 77.8825 46.2767 78.9854V81.4645C46.2767 81.7963 46.3841 81.9037 46.7159 81.9037ZM43.8562 82.0013C44.6663 82.0013 45.369 81.445 45.369 80.8008V80.0981L43.866 80.3226C43.1632 80.4299 42.89 80.7422 42.89 81.1912C42.89 81.7085 43.2706 82.0013 43.8562 82.0013ZM53.8783 75.6182H54.7763V82.5674H53.9955V81.7671C53.6929 82.2941 53.1073 82.6747 52.3753 82.6747C51.0089 82.6747 50.1792 81.5328 50.1792 79.9712C50.1792 78.4486 51.0772 77.4238 52.3558 77.4238C53.0097 77.4238 53.5562 77.6971 53.8783 78.1363V75.6182ZM52.4631 81.9037C53.3025 81.9037 53.9271 81.1814 53.9271 79.9907C53.9271 78.8 53.322 78.1948 52.4826 78.1948C51.614 78.1948 51.0772 78.8195 51.0772 79.9712C51.0772 81.1424 51.5945 81.9037 52.4631 81.9037ZM58.4615 82.6943C57.0171 82.6943 56.041 81.6304 56.041 80.0493C56.041 78.4291 57.0463 77.4043 58.4908 77.4043C59.8963 77.4043 60.8918 78.4096 60.8918 80.0102C60.8918 81.5914 59.8768 82.6943 58.4615 82.6943ZM58.4615 81.9427C59.4376 81.9427 59.9939 81.1522 59.9939 80.0102C59.9939 78.8683 59.4376 78.1558 58.4615 78.1558C57.5051 78.1558 56.939 78.9073 56.939 80.0493C56.939 81.1912 57.5148 81.9427 58.4615 81.9427ZM64.5878 77.4238C65.8664 77.4238 66.7545 78.4096 66.7545 79.9322C66.7545 81.4938 65.9152 82.6747 64.5487 82.6747C63.9046 82.6747 63.3775 82.3819 63.0554 81.9525V84.5584H62.1575V77.5312H62.9383V78.3413C63.2311 77.7849 63.846 77.4238 64.5878 77.4238ZM64.4609 81.9037C65.3295 81.9037 65.8566 81.1034 65.8566 79.9322C65.8566 78.7805 65.3295 78.1948 64.4609 78.1948C63.6215 78.1948 63.0066 78.8 63.0066 79.9907C63.0066 81.1814 63.6215 81.9037 64.4609 81.9037ZM72.4602 81.9037H72.6066V82.5674H72.1283C71.5915 82.5674 71.2987 82.3234 71.2597 81.8256C70.9376 82.3136 70.2934 82.6943 69.4345 82.6943C68.4097 82.6943 67.746 82.1575 67.746 81.2302C67.746 80.4006 68.2438 79.815 69.4638 79.6589L70.7521 79.4929C70.9961 79.4637 71.1133 79.3465 71.1133 79.1123V78.8976C71.1133 78.3705 70.7619 78.1168 69.9811 78.1168C69.2588 78.1168 68.8977 78.3413 68.8391 79.0147H67.951C68.0388 77.902 68.7513 77.375 70.0494 77.375C71.2987 77.375 72.0209 77.8825 72.0209 78.9854V81.4645C72.0209 81.7963 72.1283 81.9037 72.4602 81.9037ZM69.6004 82.0013C70.4105 82.0013 71.1133 81.445 71.1133 80.8008V80.0981L69.6102 80.3226C68.9075 80.4299 68.6342 80.7422 68.6342 81.1912C68.6342 81.7085 69.0148 82.0013 69.6004 82.0013ZM75.2936 82.6943C74.0248 82.6943 73.3123 82.1282 73.1952 80.9765H74.0541C74.1419 81.6792 74.5616 81.972 75.3327 81.972C76.1525 81.972 76.5332 81.6597 76.5332 81.1814C76.5332 80.7813 76.2696 80.5568 75.7426 80.4494L74.7275 80.2347C73.7515 80.0298 73.3319 79.5808 73.3319 78.8683C73.3319 77.9899 73.9663 77.414 75.2058 77.414C76.3477 77.414 77.1285 77.9118 77.2554 78.9952H76.3672C76.2696 78.4096 75.889 78.1265 75.1765 78.1265C74.5421 78.1265 74.1615 78.3413 74.1615 78.7902C74.1615 79.1123 74.3469 79.3368 74.9423 79.4637L75.9183 79.6784C76.9626 79.9126 77.3921 80.3714 77.3921 81.1034C77.3921 82.0891 76.621 82.6943 75.2936 82.6943ZM80.641 82.6943C79.1965 82.6943 78.2205 81.6304 78.2205 80.0493C78.2205 78.4291 79.2258 77.4043 80.6703 77.4043C82.0758 77.4043 83.0713 78.4096 83.0713 80.0102C83.0713 81.5914 82.0563 82.6943 80.641 82.6943ZM80.641 81.9427C81.6171 81.9427 82.1734 81.1522 82.1734 80.0102C82.1734 78.8683 81.6171 78.1558 80.641 78.1558C79.6845 78.1558 79.1185 78.9073 79.1185 80.0493C79.1185 81.1912 79.6943 81.9427 80.641 81.9427ZM89.7292 77.5312H90.6564L89.0167 82.5674H88.1187L87.4063 79.5613L87.1525 78.2924L86.8792 79.5613L86.1179 82.5674H85.2005L83.6096 77.5312H84.5856L85.3761 80.4397L85.6787 81.6402L85.9422 80.4397L86.6645 77.5312H87.6405L88.3627 80.4397L88.6067 81.6402L88.8996 80.4397L89.7292 77.5312ZM95.9836 81.9037H96.13V82.5674H95.6517C95.1149 82.5674 94.8221 82.3234 94.7831 81.8256C94.461 82.3136 93.8168 82.6943 92.9579 82.6943C91.9331 82.6943 91.2694 82.1575 91.2694 81.2302C91.2694 80.4006 91.7672 79.815 92.9872 79.6589L94.2755 79.4929C94.5195 79.4637 94.6367 79.3465 94.6367 79.1123V78.8976C94.6367 78.3705 94.2853 78.1168 93.5045 78.1168C92.7822 78.1168 92.4211 78.3413 92.3626 79.0147H91.4744C91.5622 77.902 92.2747 77.375 93.5728 77.375C94.8221 77.375 95.5444 77.8825 95.5444 78.9854V81.4645C95.5444 81.7963 95.6517 81.9037 95.9836 81.9037ZM93.1239 82.0013C93.9339 82.0013 94.6367 81.445 94.6367 80.8008V80.0981L93.1336 80.3226C92.4309 80.4299 92.1576 80.7422 92.1576 81.1912C92.1576 81.7085 92.5382 82.0013 93.1239 82.0013ZM99.6369 77.4043C100.691 77.4043 101.345 78.0094 101.345 79.0733V82.5674H100.447V79.2489C100.447 78.556 100.125 78.1851 99.4417 78.1851C98.7487 78.1851 98.007 78.5657 98.007 79.7662V82.5674H97.109V77.5312H97.9484V78.2436C98.29 77.7068 98.8951 77.4043 99.6369 77.4043ZM107.345 81.9037H107.491V82.5674H107.013C106.476 82.5674 106.184 82.3234 106.144 81.8256C105.822 82.3136 105.178 82.6943 104.319 82.6943C103.295 82.6943 102.631 82.1575 102.631 81.2302C102.631 80.4006 103.129 79.815 104.349 79.6589L105.637 79.4929C105.881 79.4637 105.998 79.3465 105.998 79.1123V78.8976C105.998 78.3705 105.647 78.1168 104.866 78.1168C104.144 78.1168 103.783 78.3413 103.724 79.0147H102.836C102.924 77.902 103.636 77.375 104.934 77.375C106.184 77.375 106.906 77.8825 106.906 78.9854V81.4645C106.906 81.7963 107.013 81.9037 107.345 81.9037ZM104.485 82.0013C105.295 82.0013 105.998 81.445 105.998 80.8008V80.0981L104.495 80.3226C103.792 80.4299 103.519 80.7422 103.519 81.1912C103.519 81.7085 103.9 82.0013 104.485 82.0013ZM114.507 75.6182H115.405V82.5674H114.624V81.7671C114.322 82.2941 113.736 82.6747 113.004 82.6747C111.638 82.6747 110.808 81.5328 110.808 79.9712C110.808 78.4486 111.706 77.4238 112.985 77.4238C113.639 77.4238 114.185 77.6971 114.507 78.1363V75.6182ZM113.092 81.9037C113.932 81.9037 114.556 81.1814 114.556 79.9907C114.556 78.8 113.951 78.1948 113.112 78.1948C112.243 78.1948 111.706 78.8195 111.706 79.9712C111.706 81.1424 112.223 81.9037 113.092 81.9037ZM119.091 82.6943C117.646 82.6943 116.67 81.6304 116.67 80.0493C116.67 78.4291 117.675 77.4043 119.12 77.4043C120.525 77.4043 121.521 78.4096 121.521 80.0102C121.521 81.5914 120.506 82.6943 119.091 82.6943ZM119.091 81.9427C120.067 81.9427 120.623 81.1522 120.623 80.0102C120.623 78.8683 120.067 78.1558 119.091 78.1558C118.134 78.1558 117.568 78.9073 117.568 80.0493C117.568 81.1912 118.144 81.9427 119.091 81.9427ZM130.531 75.6182V76.4087H128.209V82.5674H127.301V76.4087H124.978V75.6182H130.531ZM136.156 77.5312H137.084L135.444 82.5674H134.546L133.834 79.5613L133.58 78.2924L133.306 79.5613L132.545 82.5674H131.628L130.037 77.5312H131.013L131.803 80.4397L132.106 81.6402L132.37 80.4397L133.092 77.5312H134.068L134.79 80.4397L135.034 81.6402L135.327 80.4397L136.156 77.5312ZM140.05 82.6943C138.606 82.6943 137.63 81.6304 137.63 80.0493C137.63 78.4291 138.635 77.4043 140.079 77.4043C141.485 77.4043 142.48 78.4096 142.48 80.0102C142.48 81.5914 141.465 82.6943 140.05 82.6943ZM140.05 81.9427C141.026 81.9427 141.582 81.1522 141.582 80.0102C141.582 78.8683 141.026 78.1558 140.05 78.1558C139.094 78.1558 138.527 78.9073 138.527 80.0493C138.527 81.1912 139.103 81.9427 140.05 81.9427ZM143.746 76.5844V75.6182H144.644V76.5844H143.746ZM143.746 82.5674V77.5312H144.644V82.5674H143.746ZM148.245 82.6943C146.84 82.6943 145.912 81.7866 145.912 80.0883C145.912 78.3901 146.84 77.4043 148.294 77.4043C149.455 77.4043 150.246 78.0192 150.421 79.1806H149.572C149.436 78.4974 149.006 78.1558 148.304 78.1558C147.288 78.1558 146.81 78.8585 146.81 80.0493C146.81 81.24 147.337 81.9427 148.294 81.9427C149.036 81.9427 149.445 81.523 149.582 80.8106H150.421C150.246 81.9915 149.514 82.6943 148.245 82.6943ZM154.166 77.4043C155.22 77.4043 155.874 78.0094 155.874 79.0733V82.5674H154.976V79.2489C154.976 78.556 154.654 78.1851 153.971 78.1851C153.278 78.1851 152.536 78.5657 152.536 79.7662V82.5674H151.638V75.6182H152.536V78.1656C152.887 77.6776 153.463 77.4043 154.166 77.4043ZM162.104 82.6943C160.698 82.6943 159.771 81.7866 159.771 80.0883C159.771 78.3901 160.698 77.4043 162.152 77.4043C163.314 77.4043 164.104 78.0192 164.28 79.1806H163.431C163.294 78.4974 162.865 78.1558 162.162 78.1558C161.147 78.1558 160.669 78.8585 160.669 80.0493C160.669 81.24 161.196 81.9427 162.152 81.9427C162.894 81.9427 163.304 81.523 163.441 80.8106H164.28C164.104 81.9915 163.372 82.6943 162.104 82.6943ZM169.879 79.9322V80.264H166.102C166.131 81.3962 166.717 81.9525 167.624 81.9525C168.366 81.9525 168.796 81.5816 169.02 80.9472L169.84 81.0448C169.528 82.0891 168.698 82.6845 167.595 82.6845C166.092 82.6845 165.204 81.5816 165.204 80.0298C165.204 78.4877 166.072 77.414 167.576 77.414C168.991 77.414 169.879 78.3608 169.879 79.9322ZM167.585 78.146C166.785 78.146 166.199 78.6341 166.111 79.6198H169.04C168.922 78.6633 168.405 78.146 167.585 78.146ZM171.149 82.5674V75.6182H172.047V82.5674H171.149ZM175.14 76.8968L175.999 75.3839H177.229L175.931 76.8968H175.14ZM175.735 82.6943C174.291 82.6943 173.315 81.6304 173.315 80.0493C173.315 78.4291 174.32 77.4043 175.765 77.4043C177.17 77.4043 178.166 78.4096 178.166 80.0102C178.166 81.5914 177.151 82.6943 175.735 82.6943ZM175.735 81.9427C176.712 81.9427 177.268 81.1522 177.268 80.0102C177.268 78.8683 176.712 78.1558 175.735 78.1558C174.779 78.1558 174.213 78.9073 174.213 80.0493C174.213 81.1912 174.789 81.9427 175.735 81.9427ZM185.014 77.5312H185.941L184.302 82.5674H183.404L182.691 79.5613L182.438 78.2924L182.164 79.5613L181.403 82.5674H180.486L178.895 77.5312H179.871L180.661 80.4397L180.964 81.6402L181.227 80.4397L181.95 77.5312H182.926L183.648 80.4397L183.892 81.6402L184.185 80.4397L185.014 77.5312Z" fill="#5D5D5D"/>
<path d="M230.503 61.4276H229.643C229.592 61.1803 229.504 60.9631 229.376 60.776C229.252 60.5888 229.099 60.4317 228.919 60.3046C228.741 60.1752 228.543 60.0781 228.326 60.0134C228.109 59.9488 227.883 59.9164 227.647 59.9164C227.217 59.9164 226.828 60.025 226.479 60.2422C226.132 60.4594 225.856 60.7794 225.651 61.2023C225.447 61.6251 225.346 62.1439 225.346 62.7585C225.346 63.3731 225.447 63.8918 225.651 64.3147C225.856 64.7375 226.132 65.0576 226.479 65.2748C226.828 65.492 227.217 65.6006 227.647 65.6006C227.883 65.6006 228.109 65.5682 228.326 65.5035C228.543 65.4388 228.741 65.3429 228.919 65.2158C229.099 65.0864 229.252 64.9282 229.376 64.741C229.504 64.5515 229.592 64.3343 229.643 64.0894H230.503C230.438 64.4522 230.32 64.7768 230.149 65.0633C229.978 65.3499 229.766 65.5936 229.512 65.7947C229.257 65.9934 228.972 66.1447 228.656 66.2487C228.341 66.3527 228.005 66.4047 227.647 66.4047C227.042 66.4047 226.503 66.2568 226.032 65.961C225.56 65.6653 225.19 65.2447 224.919 64.6994C224.649 64.1541 224.514 63.5071 224.514 62.7585C224.514 62.0098 224.649 61.3629 224.919 60.8175C225.19 60.2722 225.56 59.8517 226.032 59.5559C226.503 59.2602 227.042 59.1123 227.647 59.1123C228.005 59.1123 228.341 59.1643 228.656 59.2683C228.972 59.3722 229.257 59.5247 229.512 59.7258C229.766 59.9245 229.978 60.1671 230.149 60.4536C230.32 60.7378 230.438 61.0625 230.503 61.4276ZM234.013 66.4185C233.5 66.4185 233.058 66.3053 232.686 66.0789C232.316 65.8501 232.03 65.5312 231.829 65.1223C231.631 64.711 231.531 64.2327 231.531 63.6874C231.531 63.142 231.631 62.6614 231.829 62.2455C232.03 61.8273 232.31 61.5015 232.668 61.2681C233.029 61.0324 233.449 60.9146 233.93 60.9146C234.207 60.9146 234.481 60.9608 234.751 61.0532C235.022 61.1457 235.268 61.2959 235.49 61.5038C235.711 61.7095 235.888 61.9821 236.02 62.3218C236.152 62.6614 236.217 63.0797 236.217 63.5764V63.923H232.114V63.216H235.386C235.386 62.9156 235.325 62.6476 235.205 62.4119C235.087 62.1762 234.919 61.9902 234.699 61.8539C234.482 61.7175 234.226 61.6494 233.93 61.6494C233.604 61.6494 233.322 61.7302 233.084 61.892C232.848 62.0514 232.667 62.2594 232.54 62.5159C232.413 62.7723 232.349 63.0473 232.349 63.3408V63.8121C232.349 64.2142 232.419 64.555 232.557 64.8346C232.698 65.1119 232.894 65.3233 233.143 65.4689C233.393 65.6121 233.683 65.6837 234.013 65.6837C234.228 65.6837 234.422 65.6537 234.595 65.5936C234.771 65.5312 234.922 65.4388 235.049 65.3164C235.176 65.1916 235.275 65.0368 235.344 64.8519L236.134 65.0737C236.051 65.3418 235.911 65.5775 235.715 65.7808C235.518 65.9818 235.276 66.1389 234.987 66.2522C234.698 66.3631 234.373 66.4185 234.013 66.4185ZM238.28 63.1051V66.3076H237.462V60.9839H238.252V61.8157H238.321C238.446 61.5454 238.635 61.3282 238.89 61.1641C239.144 60.9978 239.472 60.9146 239.874 60.9146C240.234 60.9146 240.55 60.9885 240.82 61.1364C241.09 61.282 241.301 61.5038 241.451 61.8019C241.601 62.0976 241.676 62.472 241.676 62.9248V66.3076H240.858V62.9803C240.858 62.5621 240.75 62.2363 240.532 62.0029C240.315 61.7672 240.017 61.6494 239.638 61.6494C239.377 61.6494 239.144 61.706 238.938 61.8192C238.735 61.9324 238.574 62.0976 238.456 62.3148C238.339 62.532 238.28 62.7955 238.28 63.1051ZM244.738 66.4324C244.4 66.4324 244.094 66.3688 243.819 66.2418C243.544 66.1124 243.326 65.9264 243.164 65.6837C243.002 65.4388 242.921 65.1431 242.921 64.7965C242.921 64.4915 242.981 64.2442 243.102 64.0547C243.222 63.863 243.382 63.7128 243.583 63.6042C243.784 63.4956 244.006 63.4147 244.249 63.3616C244.494 63.3061 244.74 63.2622 244.987 63.2299C245.311 63.1883 245.573 63.1571 245.774 63.1363C245.977 63.1132 246.125 63.075 246.217 63.0219C246.312 62.9688 246.36 62.8763 246.36 62.7446V62.7169C246.36 62.3749 246.266 62.1092 246.079 61.9197C245.894 61.7303 245.613 61.6355 245.237 61.6355C244.846 61.6355 244.54 61.721 244.318 61.892C244.096 62.063 243.94 62.2455 243.85 62.4396L243.074 62.1623C243.213 61.8388 243.397 61.587 243.628 61.4068C243.862 61.2242 244.116 61.0971 244.391 61.0255C244.668 60.9516 244.941 60.9146 245.209 60.9146C245.38 60.9146 245.576 60.9354 245.798 60.977C246.022 61.0163 246.238 61.0983 246.446 61.2231C246.657 61.3478 246.831 61.5362 246.97 61.788C247.108 62.0399 247.178 62.3772 247.178 62.8001V66.3076H246.36V65.5867H246.318C246.263 65.7022 246.17 65.8258 246.041 65.9576C245.911 66.0893 245.739 66.2013 245.524 66.2938C245.309 66.3862 245.047 66.4324 244.738 66.4324ZM244.862 65.6976C245.186 65.6976 245.458 65.6341 245.68 65.507C245.904 65.3799 246.073 65.2158 246.186 65.0148C246.302 64.8138 246.36 64.6024 246.36 64.3805V63.6319C246.325 63.6735 246.249 63.7116 246.131 63.7463C246.015 63.7786 245.881 63.8075 245.729 63.8329C245.579 63.856 245.432 63.8768 245.289 63.8953C245.148 63.9115 245.033 63.9254 244.945 63.9369C244.733 63.9646 244.534 64.0097 244.349 64.0721C244.167 64.1322 244.019 64.2234 243.906 64.3459C243.795 64.466 243.739 64.6301 243.739 64.8381C243.739 65.1223 243.844 65.3372 244.055 65.4827C244.267 65.626 244.537 65.6976 244.862 65.6976Z" fill="black"/>
<path d="M210.253 81.4062C208.496 81.4062 207.579 80.4204 207.54 78.9661H208.711C208.75 79.8933 209.287 80.4009 210.243 80.4009C211.19 80.4009 211.659 79.9031 211.659 79.2101C211.659 78.5172 211.19 78.0877 210.282 78.0877H209.658V77.1507H210.126C210.888 77.1507 211.307 76.7896 211.307 76.1747C211.307 75.5306 210.868 75.1694 210.107 75.1694C209.355 75.1694 208.926 75.5013 208.887 76.4187H207.745C207.794 74.945 208.662 74.1739 210.156 74.1739C211.61 74.1739 212.508 74.9157 212.508 76.0088C212.508 76.6725 212.166 77.2093 211.463 77.4826V77.5021C212.4 77.6973 212.898 78.322 212.898 79.2199C212.898 80.4985 211.903 81.4062 210.253 81.4062ZM216.562 81.3866C214.844 81.3866 213.936 80.1276 213.936 77.7559C213.936 75.3939 214.854 74.1642 216.572 74.1642C218.28 74.1642 219.187 75.3939 219.187 77.7559C219.187 80.1276 218.27 81.3866 216.562 81.3866ZM216.572 80.3813C217.538 80.3813 217.987 79.581 217.987 77.7656C217.987 75.9698 217.538 75.1694 216.562 75.1694C215.586 75.1694 215.137 75.9698 215.137 77.7656C215.137 79.581 215.596 80.3813 216.572 80.3813ZM222.91 81.3866C221.192 81.3866 220.284 80.1276 220.284 77.7559C220.284 75.3939 221.202 74.1642 222.92 74.1642C224.628 74.1642 225.535 75.3939 225.535 77.7559C225.535 80.1276 224.618 81.3866 222.91 81.3866ZM222.92 80.3813C223.886 80.3813 224.335 79.581 224.335 77.7656C224.335 75.9698 223.886 75.1694 222.91 75.1694C221.934 75.1694 221.485 75.9698 221.485 77.7656C221.485 79.581 221.944 80.3813 222.92 80.3813ZM232.164 74.3008C233.589 74.3008 234.487 75.0523 234.487 76.4187C234.487 77.8144 233.599 78.5952 232.086 78.5952H230.534V81.25H229.353V74.3008H232.164ZM232.027 77.59C232.867 77.59 233.335 77.1703 233.335 76.4285C233.335 75.677 232.837 75.3061 232.086 75.3061H230.534V77.59H232.027ZM236.682 80.2057H240.186V81.25H235.501V74.3008H236.682V80.2057ZM245.612 74.3008H246.764V81.25H245.534L242.352 76.1943V81.25H241.201V74.3008H242.411L245.612 79.3761V74.3008Z" fill="black"/>
<rect x="5.25751" y="103.259" width="256" height="60.0405" rx="11.1544" fill="#EDEDED"/>
<path d="M28.6706 122.048V123.119H26.0382V129.99H24.8224V123.119H22.1899V122.048H28.6706ZM31.4934 124.145C31.5938 124.145 31.6942 124.145 31.8169 124.156V125.216H31.538C30.4337 125.216 29.7422 125.763 29.7422 126.867V129.99H28.6267V124.235H29.6975V125.261C30.0099 124.636 30.5787 124.145 31.4934 124.145ZM37.5174 127.157V127.48H33.1783C33.2787 128.652 33.9034 129.187 34.8292 129.187C35.5765 129.187 36.0562 128.808 36.2569 128.228H37.3835C37.0935 129.343 36.19 130.124 34.8069 130.124C33.1783 130.124 32.0517 128.964 32.0517 127.112C32.0517 125.305 33.1449 124.101 34.7846 124.101C36.5247 124.101 37.5174 125.428 37.5174 127.157ZM34.7846 125.038C33.948 125.038 33.3345 125.54 33.1895 126.599H36.3685C36.2681 125.707 35.7215 125.038 34.7846 125.038ZM41.3845 124.101C42.6338 124.101 43.4034 124.815 43.4034 126.131V129.99H42.288V126.287C42.288 125.462 41.853 125.082 41.0722 125.082C40.3918 125.082 39.6221 125.584 39.6221 126.744V129.99H38.5067V124.235H39.5775V125.093C39.9567 124.525 40.5702 124.101 41.3845 124.101ZM44.65 123.42V122.227H45.7878V123.42H44.65ZM44.6612 129.99V124.235H45.7766V129.99H44.6612ZM49.9028 124.101C51.1521 124.101 51.9218 124.815 51.9218 126.131V129.99H50.8063V126.287C50.8063 125.462 50.3713 125.082 49.5905 125.082C48.9101 125.082 48.1404 125.584 48.1404 126.744V129.99H47.025V124.235H48.0958V125.093C48.4751 124.525 49.0885 124.101 49.9028 124.101ZM57.4517 124.235H58.5225V129.778C58.5225 131.284 57.619 132.31 55.7785 132.31C54.2169 132.31 53.3468 131.541 53.2353 130.392H54.3507C54.44 131.072 54.9419 131.407 55.7897 131.407C56.8382 131.407 57.407 130.86 57.407 129.801V129.165C56.9943 129.734 56.3697 130.057 55.5554 130.057C53.9603 130.057 52.9118 128.875 52.9118 127.079C52.9118 125.272 53.9492 124.101 55.5443 124.101C56.392 124.101 57.0389 124.458 57.4517 125.049V124.235ZM55.7562 129.098C56.7824 129.098 57.4405 128.362 57.4405 127.079C57.4405 125.796 56.7824 125.06 55.7562 125.06C54.73 125.06 54.0719 125.841 54.0719 127.079C54.0719 128.328 54.73 129.098 55.7562 129.098ZM65.0249 124.101C66.62 124.101 67.6573 125.272 67.6573 127.112C67.6573 128.953 66.62 130.124 65.0249 130.124C64.1995 130.124 63.5637 129.778 63.151 129.187V132.177H62.0355V124.235H63.1063V125.105C63.5191 124.469 64.166 124.101 65.0249 124.101ZM64.813 129.165C65.8392 129.165 66.4973 128.384 66.4973 127.068C66.4973 125.752 65.8392 125.06 64.813 125.06C63.7868 125.06 63.1287 125.796 63.1287 127.112C63.1287 128.429 63.7868 129.165 64.813 129.165ZM73.8346 127.157V127.48H69.4956C69.596 128.652 70.2206 129.187 71.1464 129.187C71.8938 129.187 72.3734 128.808 72.5742 128.228H73.7008C73.4108 129.343 72.5073 130.124 71.1241 130.124C69.4956 130.124 68.369 128.964 68.369 127.112C68.369 125.305 69.4621 124.101 71.1018 124.101C72.8419 124.101 73.8346 125.428 73.8346 127.157ZM71.1018 125.038C70.2652 125.038 69.6517 125.54 69.5067 126.599H72.6857C72.5853 125.707 72.0388 125.038 71.1018 125.038ZM77.6906 124.145C77.791 124.145 77.8914 124.145 78.0141 124.156V125.216H77.7352C76.6309 125.216 75.9393 125.763 75.9393 126.867V129.99H74.8239V124.235H75.8947V125.261C76.207 124.636 76.7759 124.145 77.6906 124.145ZM80.7669 130.135C79.2276 130.135 78.3241 129.533 78.246 128.161H79.3615C79.4507 128.964 79.8411 129.254 80.7781 129.254C81.6816 129.254 82.0497 128.964 82.0497 128.451C82.0497 127.994 81.7708 127.771 80.8227 127.603L80.2315 127.492C78.9934 127.269 78.4022 126.711 78.4022 125.774C78.4022 124.759 79.2053 124.101 80.6219 124.101C82.2616 124.101 83.0201 124.815 83.0536 126.03H81.9716C81.927 125.205 81.4362 124.971 80.6219 124.971C79.8969 124.971 79.5065 125.261 79.5065 125.74C79.5065 126.231 79.8969 126.421 80.5773 126.555L81.1796 126.655C82.5851 126.923 83.1763 127.414 83.1763 128.373C83.1763 129.499 82.2728 130.135 80.7669 130.135ZM86.5945 130.124C84.9102 130.124 83.739 128.953 83.739 127.112C83.739 125.272 84.9102 124.101 86.5945 124.101C88.2677 124.101 89.4389 125.272 89.4389 127.112C89.4389 128.953 88.2677 130.124 86.5945 130.124ZM86.5945 129.165C87.6096 129.165 88.2788 128.429 88.2788 127.112C88.2788 125.796 87.6096 125.06 86.5945 125.06C85.5683 125.06 84.899 125.796 84.899 127.112C84.899 128.429 85.5683 129.165 86.5945 129.165ZM93.3005 124.101C94.5498 124.101 95.3194 124.815 95.3194 126.131V129.99H94.204V126.287C94.204 125.462 93.769 125.082 92.9882 125.082C92.3077 125.082 91.5381 125.584 91.5381 126.744V129.99H90.4227V124.235H91.4935V125.093C91.8727 124.525 92.4862 124.101 93.3005 124.101ZM101.53 129.131H101.842V129.99C101.675 130.013 101.474 130.024 101.296 130.024C100.582 130.024 100.258 129.767 100.18 129.209C99.7897 129.812 99.1427 130.124 98.3061 130.124C97.068 130.124 96.2537 129.522 96.2537 128.417C96.2537 127.492 96.8114 126.789 98.4177 126.633L99.2654 126.544C99.8231 126.477 100.124 126.287 100.124 125.818C100.124 125.283 99.8454 124.993 98.9419 124.993C98.0384 124.993 97.6592 125.25 97.6034 126.03H96.4991C96.566 124.87 97.213 124.101 98.9419 124.101C100.593 124.101 101.217 124.792 101.217 125.796V128.841C101.217 129.02 101.307 129.131 101.53 129.131ZM98.4734 129.254C99.2877 129.254 100.124 128.797 100.124 127.715V127.112C99.957 127.246 99.7227 127.313 99.4104 127.347L98.6073 127.436C97.6815 127.547 97.4026 127.871 97.4026 128.384C97.4026 128.908 97.7484 129.254 98.4734 129.254ZM102.536 129.99V122.048H103.651V129.99H102.536ZM107.777 124.101C109.027 124.101 109.796 124.815 109.796 126.131V129.99H108.681V126.287C108.681 125.462 108.246 125.082 107.465 125.082C106.785 125.082 106.015 125.584 106.015 126.744V129.99H104.899V124.235H105.97V125.093C106.35 124.525 106.963 124.101 107.777 124.101ZM114.474 124.235H115.656L113.314 130.715C112.912 131.864 112.31 132.21 111.183 132.21C110.96 132.21 110.793 132.199 110.603 132.177V131.273H111.161C111.719 131.273 111.998 131.028 112.165 130.581C112.21 130.448 112.265 130.291 112.321 130.146L110.191 124.235H111.407L112.076 126.209C112.377 127.124 112.667 128.049 112.935 128.964C113.214 128.049 113.504 127.124 113.805 126.209L114.474 124.235ZM118.369 127.335V126.365H121.637V127.335H118.369ZM127.776 122.048V129.99H126.583V124.324H124.764V123.443L124.943 123.431C125.969 123.365 126.594 123.086 126.817 122.048H127.776ZM135.62 124.235H136.691V129.778C136.691 131.284 135.787 132.31 133.947 132.31C132.385 132.31 131.515 131.541 131.403 130.392H132.519C132.608 131.072 133.11 131.407 133.958 131.407C135.006 131.407 135.575 130.86 135.575 129.801V129.165C135.162 129.734 134.538 130.057 133.724 130.057C132.128 130.057 131.08 128.875 131.08 127.079C131.08 125.272 132.117 124.101 133.712 124.101C134.56 124.101 135.207 124.458 135.62 125.049V124.235ZM133.924 129.098C134.95 129.098 135.609 128.362 135.609 127.079C135.609 125.796 134.95 125.06 133.924 125.06C132.898 125.06 132.24 125.841 132.24 127.079C132.24 128.328 132.898 129.098 133.924 129.098ZM140.537 130.124C138.852 130.124 137.681 128.953 137.681 127.112C137.681 125.272 138.852 124.101 140.537 124.101C142.21 124.101 143.381 125.272 143.381 127.112C143.381 128.953 142.21 130.124 140.537 130.124ZM140.537 129.165C141.552 129.165 142.221 128.429 142.221 127.112C142.221 125.796 141.552 125.06 140.537 125.06C139.51 125.06 138.841 125.796 138.841 127.112C138.841 128.429 139.51 129.165 140.537 129.165ZM148.592 122.048H149.708V129.99H148.637V129.142C148.224 129.756 147.577 130.124 146.729 130.124C145.123 130.124 144.097 128.953 144.097 127.112C144.097 125.272 145.123 124.101 146.729 124.101C147.544 124.101 148.18 124.435 148.592 125.015V122.048ZM146.941 129.165C147.968 129.165 148.626 128.429 148.626 127.112C148.626 125.796 147.968 125.06 146.941 125.06C145.915 125.06 145.257 125.841 145.257 127.157C145.257 128.473 145.915 129.165 146.941 129.165ZM153.232 129.076H155.374V129.99H150.622V129.209L153.098 126.053C153.333 125.752 153.578 125.439 153.835 125.138C153.433 125.149 153.032 125.149 152.63 125.149H150.711V124.235H155.24V125.015L152.764 128.172C152.53 128.473 152.284 128.786 152.028 129.087C152.429 129.076 152.831 129.076 153.232 129.076ZM156.271 123.42V122.227H157.408V123.42H156.271ZM156.282 129.99V124.235H157.397V129.99H156.282ZM161.523 124.101C162.773 124.101 163.542 124.815 163.542 126.131V129.99H162.427V126.287C162.427 125.462 161.992 125.082 161.211 125.082C160.531 125.082 159.761 125.584 159.761 126.744V129.99H158.645V124.235H159.716V125.093C160.096 124.525 160.709 124.101 161.523 124.101ZM169.753 129.131H170.065V129.99C169.898 130.013 169.697 130.024 169.518 130.024C168.804 130.024 168.481 129.767 168.403 129.209C168.012 129.812 167.366 130.124 166.529 130.124C165.291 130.124 164.477 129.522 164.477 128.417C164.477 127.492 165.034 126.789 166.64 126.633L167.488 126.544C168.046 126.477 168.347 126.287 168.347 125.818C168.347 125.283 168.068 124.993 167.165 124.993C166.261 124.993 165.882 125.25 165.826 126.03H164.722C164.789 124.87 165.436 124.101 167.165 124.101C168.816 124.101 169.44 124.792 169.44 125.796V128.841C169.44 129.02 169.529 129.131 169.753 129.131ZM166.696 129.254C167.511 129.254 168.347 128.797 168.347 127.715V127.112C168.18 127.246 167.946 127.313 167.633 127.347L166.83 127.436C165.904 127.547 165.625 127.871 165.625 128.384C165.625 128.908 165.971 129.254 166.696 129.254Z" fill="black"/>
<path d="M27.8842 138.618V139.409H25.5613V145.567H24.6536V139.409H22.3307V138.618H27.8842ZM30.4055 140.395C30.4738 140.395 30.5324 140.395 30.5909 140.404V141.283C30.4836 141.273 30.386 141.273 30.2688 141.273C29.6052 141.273 28.8634 141.79 28.8243 142.815V145.567H27.9264V140.531H28.7658V141.546C29.0879 140.843 29.6149 140.395 30.4055 140.395ZM35.902 142.932V143.264H32.1249C32.1541 144.396 32.7398 144.952 33.6474 144.952C34.3892 144.952 34.8187 144.582 35.0431 143.947L35.863 144.045C35.5507 145.089 34.7211 145.685 33.6182 145.685C32.1151 145.685 31.2269 144.582 31.2269 143.03C31.2269 141.488 32.0956 140.414 33.5986 140.414C35.0139 140.414 35.902 141.361 35.902 142.932ZM33.6084 141.146C32.8081 141.146 32.2225 141.634 32.1346 142.62H35.0627C34.9455 141.663 34.4283 141.146 33.6084 141.146ZM39.6997 140.404C40.7538 140.404 41.4077 141.009 41.4077 142.073V145.567H40.5098V142.249C40.5098 141.556 40.1877 141.185 39.5045 141.185C38.8115 141.185 38.0698 141.566 38.0698 142.766V145.567H37.1718V140.531H38.0112V141.244C38.3528 140.707 38.9579 140.404 39.6997 140.404ZM42.9669 139.584V138.618H43.8648V139.584H42.9669ZM42.9669 145.567V140.531H43.8648V145.567H42.9669ZM47.9539 140.404C49.008 140.404 49.6619 141.009 49.6619 142.073V145.567H48.764V142.249C48.764 141.556 48.4419 141.185 47.7587 141.185C47.0657 141.185 46.3239 141.566 46.3239 142.766V145.567H45.426V140.531H46.2654V141.244C46.607 140.707 47.2121 140.404 47.9539 140.404ZM54.7347 140.531H55.5741V145.401C55.5741 147.022 54.6371 147.676 53.2121 147.676C52.0409 147.676 51.2211 147.227 51.0844 146.202H51.9628C52.0995 146.768 52.5289 146.963 53.2414 146.963C54.276 146.963 54.7054 146.543 54.7054 145.489V144.835C54.3931 145.323 53.827 145.675 53.1243 145.675C51.7579 145.675 50.9283 144.533 50.9283 142.971C50.9283 141.449 51.8262 140.424 53.1048 140.424C53.8368 140.424 54.4322 140.765 54.7347 141.312V140.531ZM53.2121 144.904C54.0515 144.904 54.6762 144.181 54.6762 142.991C54.6762 141.8 54.071 141.195 53.2317 141.195C52.363 141.195 51.8262 141.819 51.8262 142.971C51.8262 144.142 52.3435 144.904 53.2121 144.904ZM60.532 144.845H63.6845V145.567H59.4779V144.933L62.3962 141.253H59.6048V140.531H63.5186V141.078L60.532 144.845ZM68.8455 141.185V144.328C68.8455 144.699 68.9626 144.816 69.3335 144.816H69.9874V145.567H69.07C68.2892 145.567 67.9476 145.226 67.9476 144.445V141.185L67.196 141.224V140.531L67.9476 140.56V138.989H68.8455V140.57L69.9972 140.531V141.224L68.8455 141.185ZM73.554 140.395C73.6223 140.395 73.6809 140.395 73.7394 140.404V141.283C73.6321 141.273 73.5345 141.273 73.4173 141.273C72.7537 141.273 72.0119 141.79 71.9728 142.815V145.567H71.0749V140.531H71.9143V141.546C72.2364 140.843 72.7634 140.395 73.554 140.395ZM79.0505 142.932V143.264H75.2734C75.3026 144.396 75.8883 144.952 76.7959 144.952C77.5377 144.952 77.9672 144.582 78.1916 143.947L79.0115 144.045C78.6992 145.089 77.8696 145.685 76.7667 145.685C75.2636 145.685 74.3754 144.582 74.3754 143.03C74.3754 141.488 75.2441 140.414 76.7471 140.414C78.1624 140.414 79.0505 141.361 79.0505 142.932ZM76.7569 141.146C75.9566 141.146 75.371 141.634 75.2831 142.62H78.2112C78.094 141.663 77.5768 141.146 76.7569 141.146ZM82.8482 140.404C83.9023 140.404 84.5562 141.009 84.5562 142.073V145.567H83.6583V142.249C83.6583 141.556 83.3362 141.185 82.653 141.185C81.96 141.185 81.2183 141.566 81.2183 142.766V145.567H80.3203V140.531H81.1597V141.244C81.5013 140.707 82.1064 140.404 82.8482 140.404ZM90.4977 142.932V143.264H86.7205C86.7498 144.396 87.3354 144.952 88.2431 144.952C88.9849 144.952 89.4143 144.582 89.6388 143.947L90.4587 144.045C90.1463 145.089 89.3167 145.685 88.2138 145.685C86.7108 145.685 85.8226 144.582 85.8226 143.03C85.8226 141.488 86.6913 140.414 88.1943 140.414C89.6095 140.414 90.4977 141.361 90.4977 142.932ZM88.2041 141.146C87.4038 141.146 86.8181 141.634 86.7303 142.62H89.6583C89.5412 141.663 89.0239 141.146 88.2041 141.146ZM94.2466 140.395C94.3149 140.395 94.3735 140.395 94.432 140.404V141.283C94.3247 141.273 94.2271 141.273 94.1099 141.273C93.4463 141.273 92.7045 141.79 92.6655 142.815V145.567H91.7675V140.531H92.6069V141.546C92.929 140.843 93.456 140.395 94.2466 140.395ZM99.7431 142.932V143.264H95.966C95.9952 144.396 96.5809 144.952 97.4885 144.952C98.2303 144.952 98.6598 144.582 98.8842 143.947L99.7041 144.045C99.3918 145.089 98.5622 145.685 97.4593 145.685C95.9562 145.685 95.068 144.582 95.068 143.03C95.068 141.488 95.9367 140.414 97.4397 140.414C98.855 140.414 99.7431 141.361 99.7431 142.932ZM97.4495 141.146C96.6492 141.146 96.0636 141.634 95.9757 142.62H98.9038C98.7866 141.663 98.2694 141.146 97.4495 141.146ZM106.361 140.404C107.347 140.404 107.904 140.941 107.904 142.112V145.567H107.006V142.122C107.006 141.536 106.693 141.185 106.137 141.185C105.551 141.185 104.907 141.536 104.907 142.835V145.567H104.009V142.122C104.009 141.536 103.697 141.185 103.141 141.185C102.555 141.185 101.911 141.585 101.911 142.883V145.567H101.013V140.531H101.872L101.833 141.273C102.165 140.717 102.662 140.404 103.365 140.404C104.048 140.404 104.536 140.707 104.761 141.283C105.093 140.697 105.629 140.404 106.361 140.404ZM114.528 140.424C115.807 140.424 116.695 141.41 116.695 142.932C116.695 144.494 115.856 145.675 114.489 145.675C113.845 145.675 113.318 145.382 112.996 144.952V147.558H112.098V140.531H112.879V141.341C113.172 140.785 113.786 140.424 114.528 140.424ZM114.401 144.904C115.27 144.904 115.797 144.103 115.797 142.932C115.797 141.78 115.27 141.195 114.401 141.195C113.562 141.195 112.947 141.8 112.947 142.991C112.947 144.181 113.562 144.904 114.401 144.904ZM122.342 142.932V143.264H118.565C118.594 144.396 119.18 144.952 120.087 144.952C120.829 144.952 121.259 144.582 121.483 143.947L122.303 144.045C121.991 145.089 121.161 145.685 120.058 145.685C118.555 145.685 117.667 144.582 117.667 143.03C117.667 141.488 118.536 140.414 120.039 140.414C121.454 140.414 122.342 141.361 122.342 142.932ZM120.048 141.146C119.248 141.146 118.662 141.634 118.575 142.62H121.503C121.386 141.663 120.868 141.146 120.048 141.146ZM126.091 140.395C126.159 140.395 126.218 140.395 126.276 140.404V141.283C126.169 141.273 126.071 141.273 125.954 141.273C125.291 141.273 124.549 141.79 124.51 142.815V145.567H123.612V140.531H124.451V141.546C124.773 140.843 125.3 140.395 126.091 140.395ZM128.913 145.694C127.644 145.694 126.932 145.128 126.815 143.976H127.674C127.761 144.679 128.181 144.972 128.952 144.972C129.772 144.972 130.153 144.66 130.153 144.181C130.153 143.781 129.889 143.557 129.362 143.449L128.347 143.235C127.371 143.03 126.951 142.581 126.951 141.868C126.951 140.99 127.586 140.414 128.825 140.414C129.967 140.414 130.748 140.912 130.875 141.995H129.987C129.889 141.41 129.509 141.127 128.796 141.127C128.162 141.127 127.781 141.341 127.781 141.79C127.781 142.112 127.966 142.337 128.562 142.464L129.538 142.678C130.582 142.913 131.012 143.371 131.012 144.103C131.012 145.089 130.241 145.694 128.913 145.694ZM134.261 145.694C132.816 145.694 131.84 144.63 131.84 143.049C131.84 141.429 132.845 140.404 134.29 140.404C135.695 140.404 136.691 141.41 136.691 143.01C136.691 144.591 135.676 145.694 134.261 145.694ZM134.261 144.943C135.237 144.943 135.793 144.152 135.793 143.01C135.793 141.868 135.237 141.156 134.261 141.156C133.304 141.156 132.738 141.907 132.738 143.049C132.738 144.191 133.314 144.943 134.261 144.943ZM140.484 140.404C141.538 140.404 142.192 141.009 142.192 142.073V145.567H141.294V142.249C141.294 141.556 140.972 141.185 140.289 141.185C139.596 141.185 138.854 141.566 138.854 142.766V145.567H137.957V140.531H138.796V141.244C139.137 140.707 139.743 140.404 140.484 140.404ZM148.192 144.904H148.339V145.567H147.861C147.324 145.567 147.031 145.323 146.992 144.826C146.67 145.314 146.026 145.694 145.167 145.694C144.142 145.694 143.478 145.157 143.478 144.23C143.478 143.401 143.976 142.815 145.196 142.659L146.484 142.493C146.728 142.464 146.846 142.347 146.846 142.112V141.898C146.846 141.371 146.494 141.117 145.713 141.117C144.991 141.117 144.63 141.341 144.571 142.015H143.683C143.771 140.902 144.484 140.375 145.782 140.375C147.031 140.375 147.753 140.883 147.753 141.985V144.464C147.753 144.796 147.861 144.904 148.192 144.904ZM145.333 145.001C146.143 145.001 146.846 144.445 146.846 143.801V143.098L145.342 143.323C144.64 143.43 144.366 143.742 144.366 144.191C144.366 144.708 144.747 145.001 145.333 145.001ZM149.318 145.567V138.618H150.216V145.567H149.318ZM154.305 140.404C155.359 140.404 156.013 141.009 156.013 142.073V145.567H155.115V142.249C155.115 141.556 154.793 141.185 154.11 141.185C153.417 141.185 152.675 141.566 152.675 142.766V145.567H151.777V140.531H152.616V141.244C152.958 140.707 153.563 140.404 154.305 140.404ZM160.881 140.531H161.808L159.466 146.553C159.163 147.324 158.792 147.558 158.08 147.558H157.523V146.807H157.992C158.45 146.807 158.626 146.661 158.831 146.133L159.065 145.519L157.035 140.531H158.011L159.319 144.006L159.427 144.611L160.881 140.531ZM168.182 140.404C169.168 140.404 169.724 140.941 169.724 142.112V145.567H168.826V142.122C168.826 141.536 168.514 141.185 167.957 141.185C167.372 141.185 166.728 141.536 166.728 142.835V145.567H165.83V142.122C165.83 141.536 165.517 141.185 164.961 141.185C164.375 141.185 163.731 141.585 163.731 142.883V145.567H162.833V140.531H163.692L163.653 141.273C163.985 140.717 164.483 140.404 165.186 140.404C165.869 140.404 166.357 140.707 166.581 141.283C166.913 140.697 167.45 140.404 168.182 140.404Z" fill="#5D5D5D"/>
<path d="M231.365 124.428H230.505C230.454 124.18 230.365 123.963 230.238 123.776C230.113 123.589 229.961 123.432 229.781 123.305C229.603 123.175 229.405 123.078 229.188 123.013C228.971 122.949 228.744 122.916 228.509 122.916C228.079 122.916 227.69 123.025 227.341 123.242C226.994 123.459 226.718 123.779 226.512 124.202C226.309 124.625 226.207 125.144 226.207 125.758C226.207 126.373 226.309 126.892 226.512 127.315C226.718 127.738 226.994 128.058 227.341 128.275C227.69 128.492 228.079 128.601 228.509 128.601C228.744 128.601 228.971 128.568 229.188 128.504C229.405 128.439 229.603 128.343 229.781 128.216C229.961 128.086 230.113 127.928 230.238 127.741C230.365 127.552 230.454 127.334 230.505 127.089H231.365C231.3 127.452 231.182 127.777 231.011 128.063C230.84 128.35 230.628 128.594 230.373 128.795C230.119 128.993 229.834 129.145 229.517 129.249C229.203 129.353 228.867 129.405 228.509 129.405C227.903 129.405 227.365 129.257 226.894 128.961C226.422 128.665 226.051 128.245 225.781 127.699C225.511 127.154 225.376 126.507 225.376 125.758C225.376 125.01 225.511 124.363 225.781 123.818C226.051 123.272 226.422 122.852 226.894 122.556C227.365 122.26 227.903 122.112 228.509 122.112C228.867 122.112 229.203 122.164 229.517 122.268C229.834 122.372 230.119 122.525 230.373 122.726C230.628 122.924 230.84 123.167 231.011 123.454C231.182 123.738 231.3 124.062 231.365 124.428ZM234.875 129.419C234.362 129.419 233.919 129.305 233.547 129.079C233.178 128.85 232.892 128.531 232.691 128.122C232.493 127.711 232.393 127.233 232.393 126.687C232.393 126.142 232.493 125.661 232.691 125.246C232.892 124.827 233.172 124.501 233.53 124.268C233.89 124.032 234.311 123.915 234.792 123.915C235.069 123.915 235.343 123.961 235.613 124.053C235.883 124.146 236.13 124.296 236.351 124.504C236.573 124.709 236.75 124.982 236.882 125.322C237.013 125.661 237.079 126.08 237.079 126.576V126.923H232.975V126.216H236.247C236.247 125.916 236.187 125.648 236.067 125.412C235.949 125.176 235.781 124.99 235.561 124.854C235.344 124.718 235.087 124.649 234.792 124.649C234.466 124.649 234.184 124.73 233.946 124.892C233.71 125.051 233.529 125.259 233.402 125.516C233.275 125.772 233.211 126.047 233.211 126.341V126.812C233.211 127.214 233.28 127.555 233.419 127.835C233.56 128.112 233.755 128.323 234.005 128.469C234.254 128.612 234.544 128.684 234.875 128.684C235.09 128.684 235.284 128.654 235.457 128.594C235.633 128.531 235.784 128.439 235.911 128.316C236.038 128.192 236.136 128.037 236.206 127.852L236.996 128.074C236.913 128.342 236.773 128.577 236.577 128.781C236.38 128.982 236.138 129.139 235.849 129.252C235.56 129.363 235.235 129.419 234.875 129.419ZM239.141 126.105V129.308H238.323V123.984H239.114V124.816H239.183C239.308 124.545 239.497 124.328 239.751 124.164C240.006 123.998 240.334 123.915 240.736 123.915C241.096 123.915 241.412 123.989 241.682 124.136C241.952 124.282 242.163 124.504 242.313 124.802C242.463 125.098 242.538 125.472 242.538 125.925V129.308H241.72V125.98C241.72 125.562 241.611 125.236 241.394 125.003C241.177 124.767 240.879 124.649 240.5 124.649C240.239 124.649 240.006 124.706 239.8 124.819C239.597 124.932 239.436 125.098 239.318 125.315C239.2 125.532 239.141 125.795 239.141 126.105ZM245.599 129.432C245.262 129.432 244.956 129.369 244.681 129.242C244.406 129.112 244.188 128.926 244.026 128.684C243.864 128.439 243.783 128.143 243.783 127.796C243.783 127.491 243.843 127.244 243.963 127.055C244.084 126.863 244.244 126.713 244.445 126.604C244.646 126.496 244.868 126.415 245.111 126.362C245.356 126.306 245.602 126.262 245.849 126.23C246.172 126.188 246.435 126.157 246.636 126.136C246.839 126.113 246.987 126.075 247.079 126.022C247.174 125.969 247.221 125.876 247.221 125.745V125.717C247.221 125.375 247.128 125.109 246.941 124.92C246.756 124.73 246.475 124.636 246.098 124.636C245.708 124.636 245.402 124.721 245.18 124.892C244.958 125.063 244.802 125.246 244.712 125.44L243.936 125.162C244.074 124.839 244.259 124.587 244.49 124.407C244.724 124.224 244.978 124.097 245.253 124.026C245.53 123.952 245.803 123.915 246.071 123.915C246.242 123.915 246.438 123.935 246.66 123.977C246.884 124.016 247.1 124.098 247.308 124.223C247.518 124.348 247.693 124.536 247.831 124.788C247.97 125.04 248.039 125.377 248.039 125.8V129.308H247.221V128.587H247.18C247.124 128.702 247.032 128.826 246.903 128.958C246.773 129.089 246.601 129.201 246.386 129.294C246.171 129.386 245.909 129.432 245.599 129.432ZM245.724 128.698C246.048 128.698 246.32 128.634 246.542 128.507C246.766 128.38 246.935 128.216 247.048 128.015C247.164 127.814 247.221 127.602 247.221 127.381V126.632C247.187 126.673 247.111 126.712 246.993 126.746C246.877 126.779 246.743 126.808 246.591 126.833C246.44 126.856 246.294 126.877 246.15 126.895C246.009 126.911 245.895 126.925 245.807 126.937C245.595 126.965 245.396 127.01 245.211 127.072C245.029 127.132 244.881 127.223 244.768 127.346C244.657 127.466 244.601 127.63 244.601 127.838C244.601 128.122 244.706 128.337 244.917 128.483C245.129 128.626 245.398 128.698 245.724 128.698Z" fill="black"/>
<path d="M208.626 144.251C208.665 143.099 209.075 142.309 210.158 141.577L211.427 140.708C211.993 140.327 212.276 139.947 212.276 139.371C212.276 138.61 211.808 138.19 211.095 138.19C210.354 138.19 209.895 138.639 209.895 139.556V139.713H208.733V139.576C208.733 138.083 209.661 137.185 211.115 137.185C212.52 137.185 213.496 138.014 213.496 139.312C213.496 140.22 213.018 140.952 212.13 141.528L211.095 142.192C210.354 142.67 210.168 142.885 210.129 143.236H213.506V144.251H208.626ZM217.375 144.407C215.979 144.407 215.033 143.656 214.867 142.406L216.028 142.348C216.165 143.06 216.692 143.412 217.395 143.412C218.263 143.412 218.78 142.846 218.78 141.996C218.78 141.167 218.283 140.591 217.375 140.591C216.867 140.591 216.497 140.776 216.184 141.108L215.052 141.001L215.726 137.302H219.551V138.346H216.584L216.282 140.015L216.301 140.025C216.662 139.781 217.111 139.605 217.687 139.605C219.063 139.605 219.971 140.581 219.971 141.957C219.971 143.382 218.985 144.407 217.375 144.407ZM223.772 144.388C222.054 144.388 221.146 143.129 221.146 140.757C221.146 138.395 222.064 137.165 223.781 137.165C225.489 137.165 226.397 138.395 226.397 140.757C226.397 143.129 225.48 144.388 223.772 144.388ZM223.781 143.382C224.748 143.382 225.197 142.582 225.197 140.767C225.197 138.971 224.748 138.17 223.772 138.17C222.796 138.17 222.347 138.971 222.347 140.767C222.347 142.582 222.805 143.382 223.781 143.382ZM233.026 137.302C234.451 137.302 235.349 138.053 235.349 139.42C235.349 140.815 234.461 141.596 232.948 141.596H231.396V144.251H230.215V137.302H233.026ZM232.889 140.591C233.729 140.591 234.197 140.171 234.197 139.429C234.197 138.678 233.699 138.307 232.948 138.307H231.396V140.591H232.889ZM237.544 143.207H241.047V144.251H236.363V137.302H237.544V143.207ZM246.474 137.302H247.626V144.251H246.396L243.214 139.195V144.251H242.062V137.302H243.273L246.474 142.377V137.302Z" fill="black"/>
<path d="M7.23969 188.259V176.867H12.3837C13.2584 176.867 14.0037 177.024 14.6197 177.339C15.2384 177.653 15.7077 178.095 16.0277 178.663C16.3477 179.231 16.5077 179.893 16.5077 180.651C16.5077 181.411 16.3477 182.076 16.0277 182.647C15.7077 183.215 15.2384 183.656 14.6197 183.971C14.0037 184.283 13.2584 184.439 12.3837 184.439H9.72769V188.259H7.23969ZM12.1517 182.335C12.5437 182.335 12.8744 182.269 13.1437 182.139C13.413 182.008 13.6157 181.817 13.7517 181.567C13.8877 181.316 13.9557 181.011 13.9557 180.651C13.9557 180.288 13.8877 179.983 13.7517 179.735C13.6157 179.484 13.413 179.295 13.1437 179.167C12.8744 179.036 12.5437 178.971 12.1517 178.971H9.72769V182.335H12.1517ZM22.6706 188.259C22.6519 188.197 22.6332 188.135 22.6146 188.071C22.5986 188.004 22.5839 187.936 22.5706 187.867C22.5439 187.744 22.5199 187.62 22.4986 187.495C22.4799 187.367 22.4652 187.244 22.4546 187.127C22.4439 187.009 22.4386 186.903 22.4386 186.807L22.3906 186.771V183.675V183.195V182.431C22.3906 182.215 22.3452 182.037 22.2546 181.899C22.1639 181.76 22.0159 181.657 21.8106 181.591C21.6079 181.521 21.3399 181.487 21.0066 181.487C20.6572 181.487 20.3746 181.524 20.1586 181.599C19.9426 181.673 19.7786 181.799 19.6666 181.975C19.5572 182.151 19.4919 182.392 19.4706 182.699H17.1666C17.1959 182.077 17.3439 181.555 17.6106 181.131C17.8799 180.704 18.2946 180.377 18.8546 180.151C19.4146 179.924 20.1386 179.811 21.0266 179.811C21.8826 179.811 22.5812 179.912 23.1226 180.115C23.6639 180.317 24.0586 180.605 24.3066 180.979C24.5572 181.352 24.6826 181.801 24.6826 182.327V186.631C24.6826 186.769 24.6919 186.936 24.7106 187.131C24.7292 187.323 24.7559 187.52 24.7906 187.723C24.8279 187.923 24.8692 188.101 24.9146 188.259H22.6706ZM19.7746 188.487C19.1799 188.487 18.6586 188.393 18.2106 188.207C17.7626 188.02 17.4146 187.741 17.1666 187.371C16.9212 186.997 16.7986 186.541 16.7986 186.003C16.7986 185.531 16.9012 185.119 17.1066 184.767C17.3146 184.415 17.6492 184.125 18.1106 183.899C18.5719 183.672 19.1732 183.52 19.9146 183.443L21.2506 183.311C21.5119 183.284 21.7252 183.239 21.8906 183.175C22.0559 183.108 22.1799 183.015 22.2626 182.895C22.3479 182.775 22.3906 182.62 22.3906 182.431L22.7906 182.939C22.7772 183.355 22.7292 183.676 22.6466 183.903C22.5666 184.129 22.4359 184.299 22.2546 184.411C22.0759 184.52 21.8199 184.595 21.4866 184.635L20.4986 184.759C20.1679 184.799 19.9039 184.865 19.7066 184.959C19.5092 185.052 19.3666 185.172 19.2786 185.319C19.1932 185.465 19.1506 185.644 19.1506 185.855C19.1506 186.076 19.1986 186.265 19.2946 186.423C19.3906 186.577 19.5359 186.696 19.7306 186.779C19.9279 186.859 20.1719 186.899 20.4626 186.899C20.8199 186.899 21.1439 186.831 21.4346 186.695C21.7279 186.559 21.9599 186.352 22.1306 186.075C22.3039 185.797 22.3906 185.455 22.3906 185.047H22.8466L22.8666 186.095C22.7759 186.599 22.5972 187.029 22.3306 187.387C22.0666 187.744 21.7186 188.017 21.2866 188.207C20.8546 188.393 20.3506 188.487 19.7746 188.487ZM28.3051 186.083L28.0851 183.827L29.6891 182.147L31.7651 180.003H34.4611L30.5131 183.987L30.4131 183.999L28.3051 186.083ZM26.2731 188.259V176.867H28.5731V182.711V184.067V184.559V188.259H26.2731ZM31.9411 188.259L30.5131 185.947L29.3651 184.063V182.979L31.1411 182.951L34.5691 188.259H31.9411ZM35.2106 188.259V180.003H37.5186V188.259H35.2106ZM35.2106 179.191V177.167H37.5186V179.191H35.2106ZM42.9423 188.451C42.0916 188.451 41.3463 188.277 40.7063 187.931C40.0663 187.584 39.5716 187.087 39.2223 186.439C38.873 185.788 38.6983 185.024 38.6983 184.147C38.6983 183.285 38.8703 182.528 39.2143 181.875C39.561 181.219 40.053 180.711 40.6903 180.351C41.3276 179.991 42.0703 179.811 42.9183 179.811C43.7663 179.811 44.505 179.991 45.1343 180.351C45.7663 180.711 46.2516 181.216 46.5903 181.867C46.929 182.515 47.0983 183.261 47.0983 184.107C47.0983 184.203 47.0956 184.307 47.0903 184.419C47.085 184.528 47.0783 184.648 47.0703 184.779H39.9783V183.331H45.3983L44.8303 183.655C44.8276 183.225 44.7516 182.851 44.6023 182.531C44.4556 182.208 44.2383 181.957 43.9503 181.779C43.6623 181.597 43.3103 181.507 42.8943 181.507C42.4836 181.507 42.1316 181.596 41.8383 181.775C41.5476 181.953 41.3223 182.223 41.1623 182.583C41.005 182.943 40.925 183.392 40.9223 183.931V184.523C40.9223 185.019 41.0023 185.436 41.1623 185.775C41.325 186.111 41.5596 186.364 41.8663 186.535C42.1756 186.705 42.5476 186.791 42.9823 186.791C43.289 186.791 43.5596 186.747 43.7943 186.659C44.0316 186.571 44.2276 186.444 44.3823 186.279C44.5396 186.113 44.6583 185.913 44.7383 185.679H46.9143C46.773 186.247 46.5223 186.739 46.1623 187.155C45.8023 187.571 45.3476 187.891 44.7983 188.115C44.2516 188.339 43.633 188.451 42.9423 188.451ZM51.4766 188.311C50.8366 188.311 50.3126 188.239 49.9046 188.095C49.4992 187.948 49.1966 187.716 48.9966 187.399C48.7992 187.079 48.7006 186.66 48.7006 186.143V182.303V180.863V179.443V177.475H51.0086V179.443V180.863V182.303V185.779C51.0086 185.963 51.0406 186.108 51.1046 186.215C51.1686 186.319 51.2672 186.392 51.4006 186.435C51.5339 186.475 51.7179 186.495 51.9526 186.495C52.0326 186.495 52.1192 186.495 52.2126 186.495C52.3086 186.495 52.4072 186.495 52.5086 186.495H52.6286V188.259C52.6099 188.259 52.5912 188.26 52.5726 188.263C52.5539 188.265 52.5352 188.267 52.5166 188.267C52.3406 188.283 52.1632 188.293 51.9846 188.299C51.8086 188.307 51.6392 188.311 51.4766 188.311ZM47.3886 181.775V180.003H49.8606H52.6286V181.775H49.8606H47.3886ZM53.5974 189.767C53.8161 189.767 54.0134 189.767 54.1894 189.767C54.3654 189.767 54.5281 189.767 54.6774 189.767C54.9201 189.767 55.1254 189.732 55.2934 189.663C55.4614 189.593 55.5974 189.491 55.7014 189.355C55.8081 189.219 55.8948 189.047 55.9614 188.839L56.3574 187.663L56.3814 189.055L53.0094 180.003H55.4894L56.8414 184.355C56.9774 184.8 57.1054 185.259 57.2254 185.731C57.3454 186.203 57.4614 186.685 57.5734 187.179L57.1374 187.187C57.2814 186.6 57.4148 186.073 57.5374 185.607C57.6628 185.137 57.7788 184.72 57.8854 184.355L59.2174 180.003H61.6294L58.3254 189.063C58.0854 189.721 57.8188 190.227 57.5254 190.579C57.2348 190.933 56.8681 191.184 56.4254 191.331C55.9854 191.48 55.4054 191.555 54.6854 191.555C54.5014 191.555 54.3241 191.552 54.1534 191.547C53.9828 191.541 53.7974 191.533 53.5974 191.523V189.767Z" fill="black"/>
<g clip-path="url(#clip0_1_2057)">
<rect x="6.39569" y="197.625" width="254" height="57.3088" rx="11.1544" fill="#EDEDED"/>
<path d="M27.1987 208.049C28.9945 208.049 29.9204 209.075 29.9204 210.559C29.9204 212.031 28.9945 213.058 27.1987 213.058H25.0124V215.991H23.8189V208.049H27.1987ZM27.1764 212.009C28.1803 212.009 28.7045 211.485 28.7045 210.559C28.7045 209.633 28.1803 209.098 27.1764 209.098H25.0124V212.009H27.1764ZM35.4146 215.132H35.7269V215.991C35.5596 216.014 35.3588 216.025 35.1804 216.025C34.4665 216.025 34.143 215.768 34.0649 215.21C33.6745 215.813 33.0276 216.125 32.191 216.125C30.9528 216.125 30.1386 215.523 30.1386 214.418C30.1386 213.493 30.6963 212.79 32.3025 212.634L33.1503 212.544C33.708 212.478 34.0092 212.288 34.0092 211.819C34.0092 211.284 33.7303 210.994 32.8268 210.994C31.9233 210.994 31.544 211.251 31.4883 212.031H30.384C30.4509 210.871 31.0979 210.102 32.8268 210.102C34.4776 210.102 35.1023 210.793 35.1023 211.797V214.842C35.1023 215.021 35.1915 215.132 35.4146 215.132ZM32.3583 215.255C33.1726 215.255 34.0092 214.798 34.0092 213.716V213.113C33.8418 213.247 33.6076 213.314 33.2953 213.348L32.4922 213.437C31.5663 213.548 31.2875 213.872 31.2875 214.385C31.2875 214.909 31.6333 215.255 32.3583 215.255ZM40.3134 215.991L38.4841 213.08L37.5248 214.017V215.991H36.4205V208.049H37.5248V212.734L40.0569 210.236H41.4512L39.276 212.355L41.5962 215.991H40.3134ZM42.15 209.421V208.228H43.2877V209.421H42.15ZM42.1611 215.991V210.236H43.2766V215.991H42.1611ZM49.7229 213.158V213.481H45.3838C45.4842 214.653 46.1088 215.188 47.0346 215.188C47.782 215.188 48.2616 214.809 48.4624 214.229H49.589C49.299 215.344 48.3955 216.125 47.0123 216.125C45.3838 216.125 44.2572 214.965 44.2572 213.113C44.2572 211.306 45.3503 210.102 46.99 210.102C48.7301 210.102 49.7229 211.429 49.7229 213.158ZM46.99 211.039C46.1534 211.039 45.54 211.541 45.3949 212.6H48.574C48.4736 211.708 47.927 211.039 46.99 211.039ZM53.1291 211.15H51.969V214.608C51.969 214.943 52.1363 215.099 52.6271 215.099H53.1291V215.991C52.8837 216.014 52.6494 216.025 52.4486 216.025C51.4113 216.025 50.8536 215.668 50.8536 214.708V211.15H49.9277V210.236H50.8536V208.585H51.969V210.236H53.1291V211.15ZM59.1228 208.049V215.991H57.9293V210.325H56.1111V209.444L56.2896 209.432C57.3158 209.365 57.9404 209.087 58.1635 208.049H59.1228ZM63.3397 216.17C61.3319 216.17 60.328 214.653 60.328 212.02C60.328 209.388 61.3319 207.871 63.3397 207.871C65.3587 207.871 66.3514 209.388 66.3514 212.02C66.3514 214.653 65.3587 216.17 63.3397 216.17ZM63.3397 215.132C64.4886 215.132 65.1133 214.14 65.1133 212.02C65.1133 209.901 64.4886 208.908 63.3397 208.908C62.202 208.908 61.5773 209.901 61.5773 212.02C61.5773 214.14 62.202 215.132 63.3397 215.132ZM76.7918 210.236H77.9853L76.0779 215.991H74.9067L74.1147 213.459C73.9139 212.857 73.7355 212.221 73.5681 211.608C73.4008 212.221 73.2224 212.857 73.0327 213.459L72.2519 215.991H71.0696L69.1621 210.236H70.3668L71.103 212.634C71.3149 213.325 71.5157 214.006 71.7054 214.686C71.8838 213.995 72.0734 213.325 72.2854 212.634L73.0216 210.236H74.137L74.8621 212.634C75.0628 213.314 75.2636 213.995 75.4532 214.675C75.6429 213.995 75.8436 213.314 76.0444 212.634L76.7918 210.236ZM83.5347 213.158V213.481H79.1956C79.296 214.653 79.9207 215.188 80.8465 215.188C81.5938 215.188 82.0735 214.809 82.2743 214.229H83.4009C83.1108 215.344 82.2073 216.125 80.8242 216.125C79.1956 216.125 78.069 214.965 78.069 213.113C78.069 211.306 79.1622 210.102 80.8019 210.102C82.542 210.102 83.5347 211.429 83.5347 213.158ZM80.8019 211.039C79.9653 211.039 79.3518 211.541 79.2068 212.6H82.3858C82.2854 211.708 81.7388 211.039 80.8019 211.039ZM84.5128 209.421V208.228H85.6506V209.421H84.5128ZM84.1559 218.211C83.9551 218.211 83.8212 218.211 83.6539 218.2V217.274H83.9774C84.3566 217.274 84.524 217.118 84.524 216.783V210.236H85.6394V216.895C85.6394 217.854 85.0817 218.211 84.1559 218.211ZM88.494 209.421L89.4644 207.815H90.8587L89.4533 209.421H88.494ZM89.0182 216.136C87.4789 216.136 86.5754 215.534 86.4973 214.162H87.6128C87.702 214.965 88.0924 215.255 89.0294 215.255C89.9329 215.255 90.301 214.965 90.301 214.452C90.301 213.995 90.0221 213.771 89.074 213.604L88.4828 213.493C87.2447 213.27 86.6535 212.712 86.6535 211.775C86.6535 210.76 87.4566 210.102 88.8732 210.102C90.5129 210.102 91.2714 210.816 91.3049 212.031H90.2229C90.1783 211.206 89.6875 210.972 88.8732 210.972C88.1482 210.972 87.7578 211.262 87.7578 211.741C87.7578 212.232 88.1482 212.422 88.8286 212.556L89.431 212.656C90.8364 212.924 91.4276 213.415 91.4276 214.374C91.4276 215.5 90.5241 216.136 89.0182 216.136ZM94.2881 209.421L95.2585 207.815H96.6528L95.2474 209.421H94.2881ZM94.7343 216.125C93.1057 216.125 91.9903 214.954 91.9903 213.113C91.9903 211.273 93.0834 210.102 94.7343 210.102C96.162 210.102 97.1213 210.938 97.2998 212.243H96.162C96.0059 211.44 95.4147 211.072 94.7343 211.072C93.8196 211.072 93.1503 211.719 93.1503 213.113C93.1503 214.508 93.8419 215.155 94.7343 215.155C95.4258 215.155 96.0393 214.775 96.1732 213.939H97.3109C97.1325 215.3 96.1063 216.125 94.7343 216.125Z" fill="black"/>
<path d="M29.0224 224.619V225.41H26.6995V231.568H25.7918V225.41H23.4689V224.619H29.0224ZM31.5437 226.395C31.612 226.395 31.6706 226.395 31.7291 226.405V227.284C31.6218 227.274 31.5241 227.274 31.407 227.274C30.7433 227.274 30.0016 227.791 29.9625 228.816V231.568H29.0646V226.532H29.904V227.547C30.2261 226.844 30.7531 226.395 31.5437 226.395ZM37.0402 228.933V229.265H33.2631C33.2923 230.397 33.8779 230.953 34.7856 230.953C35.5274 230.953 35.9568 230.583 36.1813 229.948L37.0012 230.046C36.6889 231.09 35.8592 231.685 34.7564 231.685C33.2533 231.685 32.3651 230.583 32.3651 229.031C32.3651 227.489 33.2338 226.415 34.7368 226.415C36.152 226.415 37.0402 227.362 37.0402 228.933ZM34.7466 227.147C33.9463 227.147 33.3607 227.635 33.2728 228.621H36.2008C36.0837 227.664 35.5664 227.147 34.7466 227.147ZM40.8379 226.405C41.892 226.405 42.5459 227.01 42.5459 228.074V231.568H41.648V228.25C41.648 227.557 41.3259 227.186 40.6427 227.186C39.9497 227.186 39.208 227.567 39.208 228.767V231.568H38.31V226.532H39.1494V227.245C39.491 226.708 40.0961 226.405 40.8379 226.405ZM44.1051 225.585V224.619H45.003V225.585H44.1051ZM44.1051 231.568V226.532H45.003V231.568H44.1051ZM49.0921 226.405C50.1462 226.405 50.8001 227.01 50.8001 228.074V231.568H49.9022V228.25C49.9022 227.557 49.5801 227.186 48.8969 227.186C48.2039 227.186 47.4621 227.567 47.4621 228.767V231.568H46.5642V226.532H47.4036V227.245C47.7452 226.708 48.3503 226.405 49.0921 226.405ZM55.8729 226.532H56.7123V231.402C56.7123 233.023 55.7753 233.677 54.3503 233.677C53.1791 233.677 52.3593 233.228 52.2226 232.203H53.101C53.2377 232.769 53.6671 232.964 54.3796 232.964C55.4142 232.964 55.8436 232.544 55.8436 231.49V230.836C55.5313 231.324 54.9652 231.676 54.2625 231.676C52.8961 231.676 52.0665 230.534 52.0665 228.972C52.0665 227.45 52.9644 226.425 54.243 226.425C54.975 226.425 55.5703 226.766 55.8729 227.313V226.532ZM54.3503 230.905C55.1897 230.905 55.8143 230.182 55.8143 228.992C55.8143 227.801 55.2092 227.196 54.3698 227.196C53.5012 227.196 52.9644 227.82 52.9644 228.972C52.9644 230.143 53.4817 230.905 54.3503 230.905ZM58.2782 225.585V224.619H59.1762V225.585H58.2782ZM58.2782 231.568V226.532H59.1762V231.568H58.2782ZM65.7983 226.425C67.0768 226.425 67.965 227.411 67.965 228.933C67.965 230.495 67.1256 231.676 65.7592 231.676C65.1151 231.676 64.588 231.383 64.2659 230.953V233.559H63.368V226.532H64.1488V227.342C64.4416 226.786 65.0565 226.425 65.7983 226.425ZM65.6714 230.905C66.54 230.905 67.0671 230.104 67.0671 228.933C67.0671 227.781 66.54 227.196 65.6714 227.196C64.832 227.196 64.2171 227.801 64.2171 228.992C64.2171 230.182 64.832 230.905 65.6714 230.905ZM73.6121 228.933V229.265H69.8349C69.8642 230.397 70.4498 230.953 71.3575 230.953C72.0993 230.953 72.5287 230.583 72.7532 229.948L73.573 230.046C73.2607 231.09 72.4311 231.685 71.3282 231.685C69.8251 231.685 68.937 230.583 68.937 229.031C68.937 227.489 69.8056 226.415 71.3087 226.415C72.7239 226.415 73.6121 227.362 73.6121 228.933ZM71.3184 227.147C70.5181 227.147 69.9325 227.635 69.8447 228.621H72.7727C72.6556 227.664 72.1383 227.147 71.3184 227.147ZM77.361 226.395C77.4293 226.395 77.4878 226.395 77.5464 226.405V227.284C77.439 227.274 77.3414 227.274 77.2243 227.274C76.5606 227.274 75.8189 227.791 75.7798 228.816V231.568H74.8819V226.532H75.7213V227.547C76.0433 226.844 76.5704 226.395 77.361 226.395ZM80.1832 231.695C78.9144 231.695 78.2019 231.129 78.0848 229.977H78.9437C79.0315 230.68 79.4512 230.973 80.2223 230.973C81.0421 230.973 81.4228 230.661 81.4228 230.182C81.4228 229.782 81.1592 229.558 80.6322 229.45L79.6171 229.236C78.6411 229.031 78.2214 228.582 78.2214 227.869C78.2214 226.991 78.8559 226.415 80.0954 226.415C81.2373 226.415 82.0181 226.913 82.145 227.996H81.2568C81.1592 227.411 80.7786 227.128 80.0661 227.128C79.4317 227.128 79.0511 227.342 79.0511 227.791C79.0511 228.113 79.2365 228.338 79.8319 228.465L80.8079 228.679C81.8522 228.914 82.2817 229.372 82.2817 230.104C82.2817 231.09 81.5106 231.695 80.1832 231.695ZM85.5306 231.695C84.0861 231.695 83.1101 230.631 83.1101 229.05C83.1101 227.43 84.1154 226.405 85.5599 226.405C86.9654 226.405 87.9609 227.411 87.9609 229.011C87.9609 230.592 86.9458 231.695 85.5306 231.695ZM85.5306 230.944C86.5066 230.944 87.063 230.153 87.063 229.011C87.063 227.869 86.5066 227.157 85.5306 227.157C84.5741 227.157 84.0081 227.908 84.0081 229.05C84.0081 230.192 84.5839 230.944 85.5306 230.944ZM91.7545 226.405C92.8086 226.405 93.4625 227.01 93.4625 228.074V231.568H92.5646V228.25C92.5646 227.557 92.2425 227.186 91.5593 227.186C90.8663 227.186 90.1245 227.567 90.1245 228.767V231.568H89.2266V226.532H90.066V227.245C90.4076 226.708 91.0127 226.405 91.7545 226.405ZM99.4625 230.905H99.6089V231.568H99.1307C98.5939 231.568 98.3011 231.324 98.262 230.827C97.9399 231.315 97.2958 231.695 96.4369 231.695C95.4121 231.695 94.7484 231.158 94.7484 230.231C94.7484 229.402 95.2461 228.816 96.4662 228.66L97.7545 228.494C97.9985 228.465 98.1156 228.348 98.1156 228.113V227.899C98.1156 227.372 97.7643 227.118 96.9834 227.118C96.2612 227.118 95.9001 227.342 95.8415 228.016H94.9533C95.0412 226.903 95.7537 226.376 97.0518 226.376C98.3011 226.376 99.0233 226.884 99.0233 227.986V230.465C99.0233 230.797 99.1307 230.905 99.4625 230.905ZM96.6028 231.002C97.4129 231.002 98.1156 230.446 98.1156 229.802V229.099L96.6126 229.324C95.9098 229.431 95.6365 229.743 95.6365 230.192C95.6365 230.709 96.0172 231.002 96.6028 231.002ZM100.588 231.568V224.619H101.486V231.568H100.588ZM105.575 226.405C106.629 226.405 107.283 227.01 107.283 228.074V231.568H106.385V228.25C106.385 227.557 106.063 227.186 105.38 227.186C104.687 227.186 103.945 227.567 103.945 228.767V231.568H103.047V226.532H103.886V227.245C104.228 226.708 104.833 226.405 105.575 226.405ZM113.224 228.933V229.265H109.447C109.477 230.397 110.062 230.953 110.97 230.953C111.712 230.953 112.141 230.583 112.366 229.948L113.185 230.046C112.873 231.09 112.043 231.685 110.941 231.685C109.438 231.685 108.549 230.583 108.549 229.031C108.549 227.489 109.418 226.415 110.921 226.415C112.336 226.415 113.224 227.362 113.224 228.933ZM110.931 227.147C110.13 227.147 109.545 227.635 109.457 228.621H112.385C112.268 227.664 111.751 227.147 110.931 227.147ZM117.125 225.585V224.619H118.023V225.585H117.125ZM117.125 231.568V226.532H118.023V231.568H117.125ZM125.728 226.532H126.568V231.402C126.568 233.023 125.631 233.677 124.206 233.677C123.035 233.677 122.215 233.228 122.078 232.203H122.956C123.093 232.769 123.523 232.964 124.235 232.964C125.27 232.964 125.699 232.544 125.699 231.49V230.836C125.387 231.324 124.821 231.676 124.118 231.676C122.751 231.676 121.922 230.534 121.922 228.972C121.922 227.45 122.82 226.425 124.098 226.425C124.83 226.425 125.426 226.766 125.728 227.313V226.532ZM124.206 230.905C125.045 230.905 125.67 230.182 125.67 228.992C125.67 227.801 125.065 227.196 124.225 227.196C123.357 227.196 122.82 227.82 122.82 228.972C122.82 230.143 123.337 230.905 124.206 230.905ZM130.613 226.395C130.681 226.395 130.74 226.395 130.798 226.405V227.284C130.691 227.274 130.593 227.274 130.476 227.274C129.812 227.274 129.071 227.791 129.032 228.816V231.568H128.134V226.532H128.973V227.547C129.295 226.844 129.822 226.395 130.613 226.395ZM135.065 226.532H135.963V231.568H135.123V230.856C134.782 231.393 134.177 231.695 133.435 231.695C132.381 231.695 131.727 231.09 131.727 230.026V226.532H132.625V229.851C132.625 230.544 132.947 230.914 133.63 230.914C134.323 230.914 135.065 230.534 135.065 229.333V226.532ZM139.952 226.425C141.231 226.425 142.119 227.411 142.119 228.933C142.119 230.495 141.28 231.676 139.913 231.676C139.269 231.676 138.742 231.383 138.42 230.953V233.559H137.522V226.532H138.303V227.342C138.596 226.786 139.211 226.425 139.952 226.425ZM139.825 230.905C140.694 230.905 141.221 230.104 141.221 228.933C141.221 227.781 140.694 227.196 139.825 227.196C138.986 227.196 138.371 227.801 138.371 228.992C138.371 230.182 138.986 230.905 139.825 230.905ZM145.512 231.695C144.067 231.695 143.091 230.631 143.091 229.05C143.091 227.43 144.096 226.405 145.541 226.405C146.946 226.405 147.942 227.411 147.942 229.011C147.942 230.592 146.927 231.695 145.512 231.695ZM145.512 230.944C146.488 230.944 147.044 230.153 147.044 229.011C147.044 227.869 146.488 227.157 145.512 227.157C144.555 227.157 143.989 227.908 143.989 229.05C143.989 230.192 144.565 230.944 145.512 230.944ZM154.6 226.532H155.527L153.887 231.568H152.989L152.277 228.562L152.023 227.293L151.75 228.562L150.988 231.568H150.071L148.48 226.532H149.456L150.247 229.441L150.549 230.641L150.813 229.441L151.535 226.532H152.511L153.233 229.441L153.477 230.641L153.77 229.441L154.6 226.532ZM160.748 228.933V229.265H156.971C157 230.397 157.586 230.953 158.493 230.953C159.235 230.953 159.664 230.583 159.889 229.948L160.709 230.046C160.396 231.09 159.567 231.685 158.464 231.685C156.961 231.685 156.073 230.583 156.073 229.031C156.073 227.489 156.941 226.415 158.444 226.415C159.86 226.415 160.748 227.362 160.748 228.933ZM158.454 227.147C157.654 227.147 157.068 227.635 156.98 228.621H159.908C159.791 227.664 159.274 227.147 158.454 227.147ZM26.436 236.405C27.4901 236.405 28.144 237.01 28.144 238.074V241.568H27.2461V238.25C27.2461 237.557 26.924 237.186 26.2408 237.186C25.5478 237.186 24.8061 237.567 24.8061 238.767V241.568H23.9081V236.532H24.7475V237.245C25.0891 236.708 25.6942 236.405 26.436 236.405ZM34.1441 240.905H34.2905V241.568H33.8122C33.2754 241.568 32.9826 241.324 32.9436 240.827C32.6215 241.315 31.9773 241.695 31.1184 241.695C30.0936 241.695 29.4299 241.158 29.4299 240.231C29.4299 239.402 29.9277 238.816 31.1477 238.66L32.436 238.494C32.68 238.465 32.7972 238.348 32.7972 238.113V237.899C32.7972 237.372 32.4458 237.118 31.665 237.118C30.9427 237.118 30.5816 237.342 30.5231 238.016H29.6349C29.7227 236.903 30.4352 236.376 31.7333 236.376C32.9826 236.376 33.7049 236.884 33.7049 237.986V240.465C33.7049 240.797 33.8122 240.905 34.1441 240.905ZM31.2843 241.002C32.0944 241.002 32.7972 240.446 32.7972 239.802V239.099L31.2941 239.324C30.5914 239.431 30.3181 239.743 30.3181 240.192C30.3181 240.709 30.6987 241.002 31.2843 241.002ZM39.3447 241.568V236.532H37.5391V235.849H37.8026C38.3003 235.849 38.681 235.771 38.9543 235.566C39.208 235.371 39.3837 235.107 39.4911 234.727L39.5204 234.619H40.2524V241.568H39.3447ZM44.6173 241.685C43.0264 241.685 42.226 240.534 42.226 238.094C42.226 235.615 43.0459 234.502 44.6368 234.502C46.2277 234.502 47.028 235.615 47.028 238.094C47.028 240.534 46.2082 241.685 44.6173 241.685ZM44.6368 240.895C45.6714 240.895 46.1008 240.075 46.1008 238.094C46.1008 236.122 45.6616 235.293 44.627 235.293C43.5925 235.293 43.1533 236.122 43.1533 238.094C43.1533 240.075 43.6022 240.895 44.6368 240.895ZM53.0075 241.568H51.9144L50.509 239.509L49.084 241.568H47.9908L50.06 238.894L48.2348 236.532H49.328L50.509 238.26L51.6704 236.532H52.7635L50.9579 238.894L53.0075 241.568ZM62.2502 236.532H63.1774L61.5377 241.568H60.6398L59.9273 238.562L59.6736 237.293L59.4003 238.562L58.639 241.568H57.7215L56.1306 236.532H57.1066L57.8972 239.441L58.1998 240.641L58.4633 239.441L59.1856 236.532H60.1616L60.8838 239.441L61.1278 240.641L61.4206 239.441L62.2502 236.532ZM68.3984 238.933V239.265H64.6213C64.6505 240.397 65.2361 240.953 66.1438 240.953C66.8856 240.953 67.315 240.583 67.5395 239.948L68.3594 240.046C68.0471 241.09 67.2174 241.685 66.1145 241.685C64.6115 241.685 63.7233 240.583 63.7233 239.031C63.7233 237.489 64.592 236.415 66.095 236.415C67.5102 236.415 68.3984 237.362 68.3984 238.933ZM66.1048 237.147C65.3045 237.147 64.7189 237.635 64.631 238.621H67.559C67.4419 237.664 66.9246 237.147 66.1048 237.147ZM69.6682 235.585V234.619H70.5662V235.585H69.6682ZM68.8093 243.559V242.808H69.0338C69.5121 242.808 69.6682 242.652 69.6682 242.173V236.532H70.5662V242.047C70.5662 243.101 70.1074 243.559 69.0533 243.559H68.8093ZM73.1229 235.898L73.9817 234.385H75.2115L73.9134 235.898H73.1229ZM73.8353 241.695C72.5665 241.695 71.854 241.129 71.7369 239.977H72.5958C72.6836 240.68 73.1033 240.973 73.8744 240.973C74.6942 240.973 75.0749 240.661 75.0749 240.182C75.0749 239.782 74.8114 239.558 74.2843 239.45L73.2693 239.236C72.2932 239.031 71.8736 238.582 71.8736 237.869C71.8736 236.991 72.508 236.415 73.7475 236.415C74.8894 236.415 75.6702 236.913 75.7971 237.996H74.909C74.8114 237.411 74.4307 237.128 73.7182 237.128C73.0838 237.128 72.7032 237.342 72.7032 237.791C72.7032 238.113 72.8886 238.338 73.484 238.465L74.46 238.679C75.5043 238.914 75.9338 239.372 75.9338 240.104C75.9338 241.09 75.1627 241.695 73.8353 241.695ZM78.5191 235.898L79.3779 234.385H80.6077L79.3096 235.898H78.5191ZM79.0949 241.695C77.6894 241.695 76.7622 240.788 76.7622 239.089C76.7622 237.391 77.6894 236.405 79.1437 236.405C80.3052 236.405 81.0957 237.02 81.2714 238.182H80.4223C80.2856 237.498 79.8562 237.157 79.1535 237.157C78.1384 237.157 77.6602 237.86 77.6602 239.05C77.6602 240.241 78.1872 240.944 79.1437 240.944C79.8855 240.944 80.2954 240.524 80.432 239.812H81.2714C81.0957 240.993 80.3637 241.695 79.0949 241.695Z" fill="#5D5D5D"/>
<path d="M231.259 217.776H230.4C230.349 217.529 230.26 217.312 230.133 217.125C230.008 216.937 229.856 216.78 229.675 216.653C229.498 216.524 229.3 216.427 229.083 216.362C228.866 216.297 228.639 216.265 228.403 216.265C227.974 216.265 227.584 216.374 227.235 216.591C226.889 216.808 226.613 217.128 226.407 217.551C226.204 217.974 226.102 218.492 226.102 219.107C226.102 219.722 226.204 220.24 226.407 220.663C226.613 221.086 226.889 221.406 227.235 221.623C227.584 221.841 227.974 221.949 228.403 221.949C228.639 221.949 228.866 221.917 229.083 221.852C229.3 221.787 229.498 221.692 229.675 221.564C229.856 221.435 230.008 221.277 230.133 221.09C230.26 220.9 230.349 220.683 230.4 220.438H231.259C231.195 220.801 231.077 221.125 230.906 221.412C230.735 221.698 230.522 221.942 230.268 222.143C230.014 222.342 229.729 222.493 229.412 222.597C229.098 222.701 228.762 222.753 228.403 222.753C227.798 222.753 227.26 222.605 226.788 222.31C226.317 222.014 225.946 221.593 225.676 221.048C225.405 220.503 225.27 219.856 225.27 219.107C225.27 218.358 225.405 217.711 225.676 217.166C225.946 216.621 226.317 216.2 226.788 215.905C227.26 215.609 227.798 215.461 228.403 215.461C228.762 215.461 229.098 215.513 229.412 215.617C229.729 215.721 230.014 215.873 230.268 216.074C230.522 216.273 230.735 216.516 230.906 216.802C231.077 217.086 231.195 217.411 231.259 217.776ZM234.77 222.767C234.257 222.767 233.814 222.654 233.442 222.427C233.072 222.199 232.787 221.88 232.586 221.471C232.387 221.06 232.288 220.581 232.288 220.036C232.288 219.491 232.387 219.01 232.586 218.594C232.787 218.176 233.067 217.85 233.425 217.617C233.785 217.381 234.206 217.263 234.686 217.263C234.964 217.263 235.237 217.309 235.508 217.402C235.778 217.494 236.024 217.644 236.246 217.852C236.468 218.058 236.645 218.331 236.776 218.67C236.908 219.01 236.974 219.428 236.974 219.925V220.272H232.87V219.565H236.142C236.142 219.264 236.082 218.996 235.962 218.761C235.844 218.525 235.675 218.339 235.456 218.203C235.239 218.066 234.982 217.998 234.686 217.998C234.361 217.998 234.079 218.079 233.841 218.241C233.605 218.4 233.424 218.608 233.297 218.864C233.169 219.121 233.106 219.396 233.106 219.689V220.161C233.106 220.563 233.175 220.904 233.314 221.183C233.455 221.46 233.65 221.672 233.9 221.817C234.149 221.961 234.439 222.032 234.77 222.032C234.984 222.032 235.179 222.002 235.352 221.942C235.527 221.88 235.679 221.787 235.806 221.665C235.933 221.54 236.031 221.385 236.101 221.201L236.891 221.422C236.808 221.69 236.668 221.926 236.471 222.129C236.275 222.33 236.032 222.488 235.744 222.601C235.455 222.712 235.13 222.767 234.77 222.767ZM239.036 219.454V222.656H238.218V217.333H239.008V218.164H239.078C239.203 217.894 239.392 217.677 239.646 217.513C239.9 217.346 240.228 217.263 240.631 217.263C240.991 217.263 241.306 217.337 241.577 217.485C241.847 217.631 242.057 217.852 242.208 218.151C242.358 218.446 242.433 218.821 242.433 219.273V222.656H241.615V219.329C241.615 218.911 241.506 218.585 241.289 218.352C241.072 218.116 240.774 217.998 240.395 217.998C240.134 217.998 239.9 218.055 239.695 218.168C239.491 218.281 239.331 218.446 239.213 218.663C239.095 218.881 239.036 219.144 239.036 219.454ZM245.494 222.781C245.157 222.781 244.851 222.717 244.576 222.59C244.301 222.461 244.082 222.275 243.921 222.032C243.759 221.787 243.678 221.492 243.678 221.145C243.678 220.84 243.738 220.593 243.858 220.403C243.978 220.212 244.139 220.061 244.34 219.953C244.541 219.844 244.763 219.763 245.005 219.71C245.25 219.655 245.496 219.611 245.744 219.578C246.067 219.537 246.329 219.506 246.53 219.485C246.734 219.462 246.882 219.424 246.974 219.371C247.069 219.317 247.116 219.225 247.116 219.093V219.066C247.116 218.724 247.023 218.458 246.835 218.268C246.651 218.079 246.37 217.984 245.993 217.984C245.603 217.984 245.297 218.07 245.075 218.241C244.853 218.412 244.697 218.594 244.607 218.788L243.83 218.511C243.969 218.187 244.154 217.936 244.385 217.755C244.618 217.573 244.873 217.446 245.148 217.374C245.425 217.3 245.697 217.263 245.965 217.263C246.136 217.263 246.333 217.284 246.555 217.326C246.779 217.365 246.995 217.447 247.203 217.572C247.413 217.696 247.588 217.885 247.726 218.137C247.865 218.389 247.934 218.726 247.934 219.149V222.656H247.116V221.935H247.075C247.019 222.051 246.927 222.174 246.797 222.306C246.668 222.438 246.496 222.55 246.281 222.642C246.066 222.735 245.804 222.781 245.494 222.781ZM245.619 222.046C245.942 222.046 246.215 221.983 246.437 221.856C246.661 221.729 246.83 221.564 246.943 221.363C247.058 221.162 247.116 220.951 247.116 220.729V219.981C247.082 220.022 247.005 220.06 246.887 220.095C246.772 220.127 246.638 220.156 246.485 220.182C246.335 220.205 246.188 220.225 246.045 220.244C245.904 220.26 245.79 220.274 245.702 220.286C245.489 220.313 245.291 220.358 245.106 220.421C244.923 220.481 244.775 220.572 244.662 220.695C244.551 220.815 244.496 220.979 244.496 221.187C244.496 221.471 244.601 221.686 244.811 221.831C245.024 221.975 245.293 222.046 245.619 222.046Z" fill="black"/>
<path d="M205.699 236.902V232.022H203.922V231.193H204.313C204.791 231.193 205.152 231.095 205.406 230.88C205.63 230.685 205.777 230.412 205.845 230.051L205.865 229.953H206.88V236.902H205.699ZM208.706 236.902C208.745 235.751 209.155 234.96 210.238 234.228L211.507 233.359C212.073 232.979 212.356 232.598 212.356 232.022C212.356 231.261 211.888 230.841 211.175 230.841C210.433 230.841 209.975 231.29 209.975 232.208V232.364H208.813V232.227C208.813 230.734 209.74 229.836 211.195 229.836C212.6 229.836 213.576 230.666 213.576 231.964C213.576 232.871 213.098 233.603 212.21 234.179L211.175 234.843C210.433 235.321 210.248 235.536 210.209 235.887H213.586V236.902H208.706ZM217.504 237.039C215.786 237.039 214.878 235.78 214.878 233.408C214.878 231.046 215.796 229.816 217.513 229.816C219.221 229.816 220.129 231.046 220.129 233.408C220.129 235.78 219.212 237.039 217.504 237.039ZM217.513 236.034C218.48 236.034 218.929 235.233 218.929 233.418C218.929 231.622 218.48 230.822 217.504 230.822C216.528 230.822 216.079 231.622 216.079 233.418C216.079 235.233 216.537 236.034 217.513 236.034ZM223.851 237.039C222.134 237.039 221.226 235.78 221.226 233.408C221.226 231.046 222.143 229.816 223.861 229.816C225.569 229.816 226.477 231.046 226.477 233.408C226.477 235.78 225.559 237.039 223.851 237.039ZM223.861 236.034C224.827 236.034 225.276 235.233 225.276 233.418C225.276 231.622 224.827 230.822 223.851 230.822C222.875 230.822 222.426 231.622 222.426 233.418C222.426 235.233 222.885 236.034 223.861 236.034ZM233.106 229.953C234.531 229.953 235.428 230.705 235.428 232.071C235.428 233.467 234.54 234.248 233.028 234.248H231.476V236.902H230.295V229.953H233.106ZM232.969 233.242C233.808 233.242 234.277 232.823 234.277 232.081C234.277 231.329 233.779 230.958 233.028 230.958H231.476V233.242H232.969ZM237.623 235.858H241.127V236.902H236.442V229.953H237.623V235.858ZM246.554 229.953H247.705V236.902H246.476L243.294 231.847V236.902H242.142V229.953H243.352L246.554 235.028V229.953Z" fill="black"/>
</g>
<defs>
<clipPath id="clip0_1_2057">
<rect x="6.39569" y="197.625" width="254" height="57.3088" rx="11.1544" fill="white"/>
</clipPath>
</defs>
</svg>
