<svg width="268" height="213" viewBox="0 0 268 213" fill="none" xmlns="http://www.w3.org/2000/svg">
<rect width="267" height="212" transform="translate(0.245911 0.783203)" fill="white"/>
<g clip-path="url(#clip0_1_2043)">
<rect x="9.3399" y="55.3457" width="250" height="44" rx="11.8261" fill="#EFEFEF"/>
<g clip-path="url(#clip1_1_2043)">
<path d="M38.2679 72.9578L39.0301 72.1955C39.3301 71.8955 39.6863 71.6574 40.0783 71.495C40.4703 71.3326 40.8904 71.249 41.3147 71.249C41.739 71.249 42.1592 71.3326 42.5512 71.495C42.9432 71.6574 43.2993 71.8955 43.5993 72.1955C43.8994 72.4955 44.1374 72.8517 44.2998 73.2437C44.4622 73.6357 44.5458 74.0558 44.5458 74.4801C44.5458 74.9044 44.4622 75.3246 44.2998 75.7166C44.1374 76.1086 43.8994 76.4648 43.5993 76.7647L41.9099 78.4541L41.1935 79.1706C40.8931 79.471 40.5365 79.7092 40.144 79.8716C39.7515 80.0341 39.3308 80.1175 38.906 80.1172C38.4813 80.1169 38.0607 80.0328 37.6685 79.8698C37.2762 79.7067 36.92 79.468 36.6201 79.1671C36.3097 78.8569 36.066 78.4864 35.9039 78.0785C35.7419 77.6706 35.6649 77.2339 35.6777 76.7952" stroke="black" stroke-width="1.03478" stroke-linecap="round" stroke-linejoin="round"/>
<path d="M36.4108 81.7326L35.6486 82.4948C35.3483 82.7952 34.9916 83.0334 34.5992 83.1959C34.2067 83.3583 33.786 83.4417 33.3612 83.4414C32.9364 83.4411 32.5159 83.357 32.1236 83.194C31.7314 83.031 31.3751 82.7922 31.0752 82.4914C30.471 81.885 30.132 81.0637 30.1328 80.2076C30.1336 79.3516 30.474 78.5309 31.0794 77.9256L33.4853 75.5197C33.7853 75.2197 34.1414 74.9816 34.5334 74.8192C34.9254 74.6568 35.3456 74.5732 35.7699 74.5732C36.1942 74.5732 36.6143 74.6568 37.0063 74.8192C37.3983 74.9816 37.7545 75.2197 38.0545 75.5197C38.3662 75.83 38.611 76.2009 38.7738 76.6094C38.9366 77.018 39.0139 77.4555 39.001 77.8951" stroke="black" stroke-width="1.03478" stroke-linecap="round" stroke-linejoin="round"/>
</g>
<g clip-path="url(#clip2_1_2043)">
<path d="M56.9973 75.8906V66.4179H59.2358L61.3479 72.0024C61.4565 72.3217 61.5574 72.6255 61.6505 72.9138C61.7459 73.202 61.8368 73.4903 61.9233 73.7786C61.961 73.9094 61.9975 74.0402 62.033 74.171C62.0685 74.3019 62.104 74.4305 62.1395 74.5569H61.757C61.8523 74.1954 61.9732 73.7808 62.1195 73.3129C62.2659 72.845 62.4078 72.4038 62.5452 71.9891L64.6207 66.4179H66.8625V75.8906H65.3425V70.7385C65.3425 70.2551 65.3469 69.7839 65.3558 69.3249C65.3669 68.8637 65.3902 68.2883 65.4256 67.5987H65.5853C65.4811 67.9601 65.378 68.2983 65.276 68.6131C65.1762 68.928 65.0642 69.2584 64.94 69.6043C64.8181 69.9502 64.6839 70.3283 64.5376 70.7385L62.5985 75.8906H61.2714L59.3189 70.7518C59.2236 70.4857 59.1338 70.2352 59.0495 70.0001C58.9653 69.7629 58.8854 69.5367 58.81 69.3216C58.7369 69.1043 58.6659 68.8892 58.5972 68.6763C58.5417 68.5078 58.4874 68.3349 58.4342 68.1575C58.381 67.9801 58.3255 67.796 58.2679 67.6053L58.4076 67.5854C58.4209 67.7761 58.4331 67.9635 58.4442 68.1475C58.4553 68.3315 58.4652 68.5123 58.4741 68.6896C58.4918 69.0622 58.5052 69.4203 58.514 69.764C58.5229 70.1077 58.5273 70.437 58.5273 70.7518V75.8906H56.9973ZM68.0931 77.4273C68.2261 77.4273 68.3536 77.4273 68.4756 77.4273C68.5975 77.4273 68.7139 77.4273 68.8248 77.4273C69.0399 77.4273 69.2228 77.3962 69.3736 77.3341C69.5266 77.2743 69.6519 77.1856 69.7494 77.0681C69.847 76.9505 69.9279 76.802 69.9922 76.6224L70.4147 75.4549L70.398 76.6057L67.6174 69.0256H69.2173L70.5078 72.9537C70.6297 73.3395 70.7439 73.7176 70.8504 74.0879C70.959 74.456 71.0644 74.8318 71.1664 75.2154L70.8071 75.2254C70.9313 74.7686 71.0488 74.3451 71.1597 73.9548C71.2728 73.5624 71.3748 73.2264 71.4657 72.947L72.7363 69.0256H74.3095L71.4923 76.7986C71.3194 77.2732 71.1198 77.6413 70.8936 77.9029C70.6674 78.1668 70.3925 78.3541 70.0687 78.465C69.745 78.5759 69.337 78.6313 68.8447 78.6313C68.7206 78.6313 68.5953 78.628 68.4689 78.6213C68.3425 78.6169 68.2172 78.6114 68.0931 78.6047V77.4273ZM80.7979 76.0503C80.1371 76.0503 79.5517 75.905 79.0417 75.6146C78.5339 75.3241 78.1392 74.9083 77.8576 74.3673C77.5782 73.8262 77.4385 73.191 77.4385 72.4614C77.4385 71.7496 77.576 71.1221 77.851 70.5789C78.1281 70.0334 78.5184 69.6121 79.0217 69.315C79.5251 69.0156 80.1094 68.8659 80.7746 68.8659C81.4553 68.8659 82.0452 69.0211 82.5441 69.3316C83.043 69.642 83.4233 70.07 83.6849 70.6155C83.9488 71.1587 84.0807 71.7763 84.0807 72.4681C84.0807 72.5368 84.0796 72.6089 84.0774 72.6843C84.0774 72.7575 84.0752 72.8351 84.0707 72.9171H78.1935V71.8361H83.1062L82.5873 72.1288C82.5829 71.7275 82.5097 71.3716 82.3678 71.0611C82.2281 70.7485 82.0219 70.5035 81.7491 70.3261C81.4764 70.1487 81.146 70.06 80.758 70.06C80.3877 70.06 80.0639 70.1443 79.7867 70.3128C79.5118 70.4791 79.2967 70.733 79.1415 71.0745C78.9863 71.4137 78.9064 71.835 78.902 72.3384V72.5945C78.902 73.1023 78.9796 73.5258 79.1348 73.865C79.29 74.2021 79.5107 74.4538 79.7967 74.6201C80.0828 74.7864 80.4231 74.8695 80.8178 74.8695C81.1039 74.8695 81.3578 74.8252 81.5795 74.7365C81.8012 74.6478 81.9853 74.5225 82.1316 74.3606C82.2802 74.1965 82.3911 74.0003 82.4642 73.7719H83.9177C83.8024 74.2265 83.6051 74.6256 83.3257 74.9693C83.0463 75.3108 82.6915 75.5769 82.2614 75.7676C81.8334 75.956 81.3456 76.0503 80.7979 76.0503ZM86.8268 75.8906L84.1959 69.0256H85.7957L87.1927 72.957C87.3257 73.365 87.4477 73.7542 87.5586 74.1245C87.6716 74.4926 87.7892 74.9072 87.9111 75.3684L87.4056 75.3817C87.512 74.9737 87.6262 74.5702 87.7481 74.171C87.8701 73.7719 87.9998 73.3639 88.1373 72.947L89.5243 69.0256H91.0842L88.4533 75.8906H86.8268ZM94.557 76.0503C93.8962 76.0503 93.3108 75.905 92.8008 75.6146C92.293 75.3241 91.8983 74.9083 91.6167 74.3673C91.3373 73.8262 91.1976 73.191 91.1976 72.4614C91.1976 71.7496 91.3351 71.1221 91.61 70.5789C91.8872 70.0334 92.2775 69.6121 92.7808 69.315C93.2842 69.0156 93.8685 68.8659 94.5337 68.8659C95.2144 68.8659 95.8042 69.0211 96.3032 69.3316C96.8021 69.642 97.1824 70.07 97.444 70.6155C97.7079 71.1587 97.8398 71.7763 97.8398 72.4681C97.8398 72.5368 97.8387 72.6089 97.8365 72.6843C97.8365 72.7575 97.8343 72.8351 97.8298 72.9171H91.9526V71.8361H96.8653L96.3464 72.1288C96.342 71.7275 96.2688 71.3716 96.1269 71.0611C95.9872 70.7485 95.781 70.5035 95.5082 70.3261C95.2355 70.1487 94.9051 70.06 94.517 70.06C94.1467 70.06 93.823 70.1443 93.5458 70.3128C93.2709 70.4791 93.0558 70.733 92.9006 71.0745C92.7454 71.4137 92.6655 71.835 92.6611 72.3384V72.5945C92.6611 73.1023 92.7387 73.5258 92.8939 73.865C93.0491 74.2021 93.2698 74.4538 93.5558 74.6201C93.8419 74.7864 94.1822 74.8695 94.5769 74.8695C94.863 74.8695 95.1169 74.8252 95.3386 74.7365C95.5603 74.6478 95.7444 74.5225 95.8907 74.3606C96.0393 74.1965 96.1502 74.0003 96.2233 73.7719H97.6768C97.5615 74.2265 97.3642 74.6256 97.0848 74.9693C96.8054 75.3108 96.4506 75.5769 96.0204 75.7676C95.5925 75.956 95.1047 76.0503 94.557 76.0503ZM98.9616 75.8906V69.0256H100.392V70.6587H100.445V75.8906H98.9616ZM103.465 71.5301C103.465 71.2219 103.412 70.9669 103.306 70.7651C103.199 70.5611 103.044 70.4092 102.84 70.3095C102.636 70.2097 102.386 70.1598 102.091 70.1598C101.814 70.1598 101.549 70.2285 101.297 70.366C101.046 70.5013 100.841 70.7097 100.681 70.9913C100.524 71.2707 100.445 71.6177 100.445 72.0324H99.7034V70.5988H100.112C100.239 70.264 100.416 69.9669 100.645 69.7074C100.875 69.4458 101.152 69.2407 101.476 69.0921C101.8 68.9413 102.157 68.8659 102.547 68.8659C103.046 68.8659 103.474 68.9602 103.831 69.1486C104.19 69.3349 104.465 69.6132 104.656 69.9835C104.849 70.3516 104.945 70.8017 104.945 71.3339V75.8906H103.465V71.5301ZM108.691 75.9239C108.239 75.9239 107.865 75.8707 107.57 75.7642C107.278 75.6556 107.056 75.4826 106.905 75.2454C106.754 75.0081 106.679 74.6966 106.679 74.3107V70.6454V69.601V68.55V66.9235H108.162V68.55V69.601V70.6454V74.1211C108.162 74.2631 108.187 74.3773 108.236 74.4637C108.287 74.548 108.369 74.6101 108.482 74.65C108.595 74.6899 108.75 74.7099 108.947 74.7099C109.023 74.7099 109.103 74.7099 109.187 74.7099C109.271 74.7099 109.356 74.7099 109.443 74.7099H109.539V75.8906C109.526 75.8906 109.512 75.8906 109.496 75.8906C109.481 75.8928 109.466 75.8951 109.453 75.8973C109.322 75.9039 109.19 75.9095 109.057 75.9139C108.924 75.9206 108.802 75.9239 108.691 75.9239ZM105.588 70.2163V69.0256H107.424H109.539V70.2163H107.424H105.588Z" fill="black"/>
<path d="M59.748 88.956C57.9061 88.956 56.861 88.1178 56.7368 86.4104H57.6577C57.7612 87.6418 58.5063 88.1696 59.779 88.1696C61.0415 88.1696 61.6623 87.6522 61.6623 86.814C61.6623 86.1207 61.2484 85.7378 60.0998 85.4998L59.065 85.2825C57.8647 85.0342 56.9955 84.5375 56.9955 83.3578C56.9955 82.1161 57.9164 81.2676 59.6135 81.2676C61.2484 81.2676 62.2522 82.0643 62.366 83.4923H61.445C61.3623 82.5507 60.7104 82.054 59.5824 82.054C58.527 82.054 57.9061 82.499 57.9061 83.275C57.9061 83.8649 58.2683 84.196 59.1892 84.3926L60.4827 84.672C61.8486 84.9617 62.5937 85.6137 62.5937 86.7623C62.5937 87.9419 61.7865 88.956 59.748 88.956ZM63.9489 82.4576V81.4331H64.9009V82.4576H63.9489ZM63.9489 88.8008V83.4613H64.9009V88.8008H63.9489ZM69.2362 83.3268C70.3537 83.3268 71.047 83.9683 71.047 85.0963V88.8008H70.095V85.2825C70.095 84.5478 69.7535 84.1546 69.0292 84.1546C68.2945 84.1546 67.5081 84.5582 67.5081 85.831V88.8008H66.5561V83.4613H67.446V84.2167C67.8082 83.6476 68.4497 83.3268 69.2362 83.3268ZM76.4253 83.4613H77.3152V88.6249C77.3152 90.3426 76.3218 91.0359 74.811 91.0359C73.5693 91.0359 72.7001 90.5599 72.5552 89.4734H73.4865C73.6314 90.0736 74.0867 90.2805 74.8421 90.2805C75.939 90.2805 76.3943 89.8356 76.3943 88.718V88.0247C76.0631 88.5421 75.463 88.9146 74.7179 88.9146C73.2692 88.9146 72.3896 87.7039 72.3896 86.0483C72.3896 84.434 73.3416 83.3475 74.6972 83.3475C75.4733 83.3475 76.1045 83.7097 76.4253 84.2891V83.4613ZM74.811 88.0971C75.701 88.0971 76.3632 87.3314 76.3632 86.069C76.3632 84.8065 75.7216 84.165 74.8317 84.165C73.9108 84.165 73.3416 84.8272 73.3416 86.0483C73.3416 87.29 73.8901 88.0971 74.811 88.0971ZM85.3035 83.4613H86.2555V88.8008H85.3656V88.0454C85.0034 88.6145 84.3618 88.9353 83.5754 88.9353C82.4578 88.9353 81.7645 88.2937 81.7645 87.1658V83.4613H82.7165V86.9796C82.7165 87.7143 83.058 88.1075 83.7824 88.1075C84.5171 88.1075 85.3035 87.7039 85.3035 86.4311V83.4613ZM90.4852 83.3475C91.8407 83.3475 92.7824 84.3926 92.7824 86.0069C92.7824 87.6625 91.8925 88.9146 90.4438 88.9146C89.7608 88.9146 89.202 88.6042 88.8606 88.1489V90.9117H87.9086V83.4613H88.7364V84.3202C89.0468 83.7303 89.6987 83.3475 90.4852 83.3475ZM90.3506 88.0971C91.2716 88.0971 91.8304 87.2486 91.8304 86.0069C91.8304 84.7858 91.2716 84.165 90.3506 84.165C89.4607 84.165 88.8088 84.8065 88.8088 86.069C88.8088 87.3314 89.4607 88.0971 90.3506 88.0971ZM98.2472 84.1546V87.4866C98.2472 87.8798 98.3714 88.004 98.7646 88.004H99.4579V88.8008H98.4852C97.6574 88.8008 97.2952 88.4386 97.2952 87.6108V84.1546L96.4985 84.196V83.4613L97.2952 83.4923V81.8263H98.2472V83.5027L99.4683 83.4613V84.196L98.2472 84.1546ZM102.867 88.9353C101.335 88.9353 100.3 87.8074 100.3 86.131C100.3 84.4133 101.366 83.3268 102.898 83.3268C104.388 83.3268 105.443 84.3926 105.443 86.0897C105.443 87.766 104.367 88.9353 102.867 88.9353ZM102.867 88.1385C103.902 88.1385 104.491 87.3003 104.491 86.0897C104.491 84.879 103.902 84.1236 102.867 84.1236C101.853 84.1236 101.252 84.9203 101.252 86.131C101.252 87.3417 101.863 88.1385 102.867 88.1385ZM115.245 83.3268C116.29 83.3268 116.88 83.8959 116.88 85.1377V88.8008H115.928V85.148C115.928 84.5271 115.597 84.1546 115.007 84.1546C114.386 84.1546 113.703 84.5271 113.703 85.9034V88.8008H112.751V85.148C112.751 84.5271 112.42 84.1546 111.83 84.1546C111.209 84.1546 110.526 84.5789 110.526 85.9551V88.8008H109.574V83.4613H110.485L110.444 84.2477C110.795 83.6579 111.323 83.3268 112.068 83.3268C112.792 83.3268 113.31 83.6476 113.548 84.2581C113.9 83.6372 114.469 83.3268 115.245 83.3268ZM122.046 83.4613H123.029L120.545 89.8459C120.224 90.6634 119.831 90.9117 119.076 90.9117H118.486V90.115H118.983C119.469 90.115 119.655 89.9597 119.873 89.401L120.121 88.749L117.969 83.4613H119.003L120.39 87.1451L120.504 87.7867L122.046 83.4613ZM128.716 88.9353C127.371 88.9353 126.615 88.3351 126.491 87.1141H127.402C127.495 87.8591 127.94 88.1696 128.757 88.1696C129.626 88.1696 130.03 87.8384 130.03 87.3314C130.03 86.9071 129.751 86.6691 129.192 86.5553L128.116 86.3277C127.081 86.1103 126.636 85.6343 126.636 84.879C126.636 83.9477 127.308 83.3371 128.623 83.3371C129.833 83.3371 130.661 83.8649 130.796 85.0135H129.854C129.751 84.3926 129.347 84.0925 128.592 84.0925C127.919 84.0925 127.515 84.3202 127.515 84.7962C127.515 85.1377 127.712 85.3757 128.343 85.5102L129.378 85.7378C130.485 85.9862 130.941 86.4725 130.941 87.2486C130.941 88.2937 130.123 88.9353 128.716 88.9353ZM135.668 83.4613H136.62V88.8008H135.73V88.0454C135.368 88.6145 134.727 88.9353 133.94 88.9353C132.823 88.9353 132.129 88.2937 132.129 87.1658V83.4613H133.081V86.9796C133.081 87.7143 133.423 88.1075 134.147 88.1075C134.882 88.1075 135.668 87.7039 135.668 86.4311V83.4613ZM140.85 83.3475C142.206 83.3475 143.147 84.3926 143.147 86.0069C143.147 87.6625 142.257 88.9146 140.809 88.9146C140.126 88.9146 139.567 88.6042 139.225 88.1489V90.9117H138.273V83.4613H139.101V84.3202C139.412 83.7303 140.064 83.3475 140.85 83.3475ZM140.715 88.0971C141.636 88.0971 142.195 87.2486 142.195 86.0069C142.195 84.7858 141.636 84.165 140.715 84.165C139.826 84.165 139.174 84.8065 139.174 86.069C139.174 87.3314 139.826 88.0971 140.715 88.0971ZM149.134 86.0069V86.3587H145.13C145.161 87.559 145.782 88.1489 146.744 88.1489C147.53 88.1489 147.986 87.7557 148.224 87.083L149.093 87.1865C148.762 88.2937 147.882 88.925 146.713 88.925C145.119 88.925 144.178 87.7557 144.178 86.1103C144.178 84.4754 145.099 83.3371 146.692 83.3371C148.193 83.3371 149.134 84.3409 149.134 86.0069ZM146.703 84.1132C145.854 84.1132 145.233 84.6306 145.14 85.6757H148.244C148.12 84.6617 147.572 84.1132 146.703 84.1132ZM153.109 83.3164C153.181 83.3164 153.243 83.3164 153.306 83.3268V84.2581C153.192 84.2477 153.088 84.2477 152.964 84.2477C152.26 84.2477 151.474 84.7962 151.433 85.8827V88.8008H150.481V83.4613H151.37V84.5375C151.712 83.7924 152.271 83.3164 153.109 83.3164ZM161.726 86.0069V86.3587H157.721C157.752 87.559 158.373 88.1489 159.335 88.1489C160.122 88.1489 160.577 87.7557 160.815 87.083L161.684 87.1865C161.353 88.2937 160.473 88.925 159.304 88.925C157.711 88.925 156.769 87.7557 156.769 86.1103C156.769 84.4754 157.69 83.3371 159.283 83.3371C160.784 83.3371 161.726 84.3409 161.726 86.0069ZM159.294 84.1132C158.445 84.1132 157.824 84.6306 157.731 85.6757H160.836C160.711 84.6617 160.163 84.1132 159.294 84.1132ZM166.284 83.4613H167.247L165.291 88.8008H164.349L162.301 83.4613H163.325L164.391 86.545L164.836 87.9833L165.27 86.545L166.284 83.4613ZM172.781 86.0069V86.3587H168.776C168.807 87.559 169.428 88.1489 170.39 88.1489C171.177 88.1489 171.632 87.7557 171.87 87.083L172.739 87.1865C172.408 88.2937 171.529 88.925 170.359 88.925C168.766 88.925 167.824 87.7557 167.824 86.1103C167.824 84.4754 168.745 83.3371 170.339 83.3371C171.839 83.3371 172.781 84.3409 172.781 86.0069ZM170.349 84.1132C169.5 84.1132 168.88 84.6306 168.786 85.6757H171.891C171.767 84.6617 171.218 84.1132 170.349 84.1132ZM176.807 83.3268C177.925 83.3268 178.618 83.9683 178.618 85.0963V88.8008H177.666V85.2825C177.666 84.5478 177.324 84.1546 176.6 84.1546C175.865 84.1546 175.079 84.5582 175.079 85.831V88.8008H174.127V83.4613H175.017V84.2167C175.379 83.6476 176.021 83.3268 176.807 83.3268ZM181.606 84.1546V87.4866C181.606 87.8798 181.73 88.004 182.123 88.004H182.817V88.8008H181.844C181.016 88.8008 180.654 88.4386 180.654 87.6108V84.1546L179.857 84.196V83.4613L180.654 83.4923V81.8263H181.606V83.5027L182.827 83.4613V84.196L181.606 84.1546ZM184.021 88.8008V87.7557H185.191V88.8008H184.021ZM186.952 88.8008V87.7557H188.121V88.8008H186.952ZM189.882 88.8008V87.7557H191.052V88.8008H189.882Z" fill="#5D5D5D"/>
</g>
<rect x="231.383" y="63.3018" width="19.2174" height="28.087" rx="9.6087" fill="#BBD60F"/>
<g clip-path="url(#clip3_1_2043)">
<path d="M239.698 74.1113L242.931 77.345L239.698 80.5787" stroke="black" stroke-width="1.03478" stroke-linecap="round" stroke-linejoin="round"/>
</g>
<path d="M9.3399 58.3022C9.3399 56.6694 10.6636 55.3457 12.2964 55.3457H15.9921L15.9921 115.215H12.2964C10.6636 115.215 9.3399 113.892 9.3399 112.259L9.3399 58.3022Z" fill="black"/>
</g>
<g clip-path="url(#clip4_1_2043)">
<rect x="9.24591" y="102.783" width="250" height="44.3478" rx="11.8261" fill="#EFEFEF"/>
<g clip-path="url(#clip5_1_2043)">
<path d="M37.9846 127.96C39.6429 127.96 40.9873 126.615 40.9873 124.957C40.9873 123.298 39.6429 121.954 37.9846 121.954C36.3262 121.954 34.9818 123.298 34.9818 124.957C34.9818 126.615 36.3262 127.96 37.9846 127.96Z" stroke="black" stroke-width="1.09391" stroke-miterlimit="10"/>
<path d="M41.5907 117.751H34.3842C32.3941 117.751 30.7809 119.364 30.7809 121.354V128.561C30.7809 130.551 32.3941 132.164 34.3842 132.164H41.5907C43.5807 132.164 45.194 130.551 45.194 128.561V121.354C45.194 119.364 43.5807 117.751 41.5907 117.751Z" stroke="black" stroke-width="1.09391" stroke-linecap="round" stroke-linejoin="round"/>
<path d="M41.8881 121.955C42.3856 121.955 42.7889 121.552 42.7889 121.054C42.7889 120.557 42.3856 120.153 41.8881 120.153C41.3906 120.153 40.9873 120.557 40.9873 121.054C40.9873 121.552 41.3906 121.955 41.8881 121.955Z" fill="black"/>
</g>
<path d="M58.3816 129.457V119.984H60.6201L62.7321 125.569C62.8408 125.888 62.9417 126.192 63.0348 126.48C63.1301 126.768 63.2211 127.057 63.3075 127.345C63.3452 127.476 63.3818 127.607 63.4173 127.737C63.4528 127.868 63.4883 127.997 63.5237 128.123H63.1412C63.2366 127.762 63.3574 127.347 63.5038 126.879C63.6501 126.411 63.792 125.97 63.9295 125.556L66.005 119.984H68.2468V129.457H66.7268V124.305C66.7268 123.822 66.7312 123.35 66.7401 122.891C66.7511 122.43 66.7744 121.855 66.8099 121.165H66.9696C66.8653 121.527 66.7622 121.865 66.6602 122.18C66.5605 122.494 66.4485 122.825 66.3243 123.171C66.2023 123.517 66.0682 123.895 65.9218 124.305L63.9827 129.457H62.6556L60.7032 124.318C60.6079 124.052 60.5181 123.802 60.4338 123.567C60.3495 123.329 60.2697 123.103 60.1943 122.888C60.1211 122.671 60.0502 122.456 59.9815 122.243C59.926 122.074 59.8717 121.901 59.8185 121.724C59.7653 121.546 59.7098 121.362 59.6522 121.172L59.7919 121.152C59.8052 121.342 59.8174 121.53 59.8285 121.714C59.8395 121.898 59.8495 122.079 59.8584 122.256C59.8761 122.629 59.8894 122.987 59.8983 123.33C59.9072 123.674 59.9116 124.003 59.9116 124.318V129.457H58.3816ZM69.4773 130.994C69.6104 130.994 69.7379 130.994 69.8598 130.994C69.9818 130.994 70.0982 130.994 70.2091 130.994C70.4242 130.994 70.6071 130.963 70.7579 130.901C70.9109 130.841 71.0362 130.752 71.1337 130.634C71.2313 130.517 71.3122 130.368 71.3765 130.189L71.7989 129.021L71.7823 130.172L69.0017 122.592H70.6015L71.8921 126.52C72.014 126.906 72.1282 127.284 72.2347 127.654C72.3433 128.022 72.4486 128.398 72.5506 128.782L72.1914 128.792C72.3156 128.335 72.4331 127.912 72.544 127.521C72.6571 127.129 72.7591 126.793 72.85 126.513L74.1205 122.592H75.6938L72.8766 130.365C72.7036 130.84 72.5041 131.208 72.2779 131.469C72.0517 131.733 71.7768 131.921 71.453 132.031C71.1293 132.142 70.7213 132.198 70.229 132.198C70.1048 132.198 69.9796 132.194 69.8532 132.188C69.7268 132.183 69.6015 132.178 69.4773 132.171V130.994ZM79.2086 129.457V119.984H85.7777V121.391H80.7952V129.457H79.2086ZM80.253 125.289V123.912H85.3353V125.289H80.253ZM92.1065 129.507C91.7672 129.507 91.4934 129.455 91.2849 129.351C91.0765 129.246 90.9235 129.088 90.8259 128.875C90.7306 128.662 90.6829 128.387 90.6829 128.05L90.6297 127.844V125.575V125.176V124.511C90.6297 124.3 90.5864 124.128 90.5 123.992C90.4157 123.857 90.2749 123.756 90.0776 123.69C89.8802 123.621 89.6152 123.586 89.2826 123.586C88.9345 123.586 88.654 123.623 88.4411 123.696C88.2305 123.769 88.0708 123.891 87.9622 124.062C87.8535 124.233 87.7892 124.467 87.7692 124.764H86.2958C86.3202 124.274 86.4355 123.857 86.6417 123.513C86.8501 123.167 87.1717 122.901 87.6063 122.715C88.0409 122.527 88.6019 122.432 89.2893 122.432C89.9478 122.432 90.4844 122.517 90.8991 122.685C91.3137 122.851 91.6153 123.086 91.8038 123.39C91.9945 123.692 92.0898 124.052 92.0898 124.471V127.984C92.0898 128.061 92.1031 128.128 92.1297 128.183C92.1564 128.236 92.1985 128.277 92.2561 128.306C92.3138 128.335 92.3881 128.349 92.479 128.349C92.5278 128.349 92.581 128.349 92.6386 128.349C92.6963 128.349 92.7551 128.349 92.8149 128.349V129.457C92.7041 129.473 92.5876 129.485 92.4657 129.494C92.3459 129.502 92.2262 129.507 92.1065 129.507ZM88.4511 129.627C87.9566 129.627 87.5253 129.549 87.1572 129.394C86.7892 129.239 86.5042 129.008 86.3024 128.702C86.1007 128.396 85.9998 128.026 85.9998 127.591C85.9998 127.203 86.0851 126.864 86.2559 126.573C86.4266 126.281 86.7016 126.039 87.0807 125.848C87.4621 125.655 87.9611 125.527 88.5775 125.462L89.6186 125.353C89.8447 125.328 90.031 125.285 90.1773 125.223C90.3259 125.159 90.4379 125.069 90.5133 124.954C90.5909 124.838 90.6297 124.691 90.6297 124.511L91.0388 124.737C91.0344 125.119 90.9933 125.417 90.9157 125.632C90.8381 125.847 90.7117 126.008 90.5366 126.114C90.3636 126.219 90.1175 126.291 89.7982 126.331L88.8835 126.444C88.5442 126.486 88.2748 126.553 88.0752 126.646C87.8757 126.737 87.7338 126.855 87.6495 126.999C87.5652 127.141 87.5231 127.314 87.5231 127.518C87.5231 127.726 87.5675 127.905 87.6562 128.053C87.7471 128.202 87.8834 128.317 88.0653 128.399C88.2493 128.479 88.4788 128.519 88.7538 128.519C89.0819 128.519 89.3891 128.455 89.6751 128.326C89.9611 128.198 90.1917 128.001 90.3669 127.737C90.5421 127.474 90.6297 127.148 90.6297 126.76H91.0687V127.591C90.9712 128.028 90.806 128.398 90.5731 128.702C90.3403 129.006 90.0454 129.236 89.6884 129.394C89.3314 129.549 88.919 129.627 88.4511 129.627ZM96.5479 129.617C95.8872 129.617 95.3051 129.47 94.8017 129.178C94.3006 128.883 93.9115 128.465 93.6343 127.924C93.3571 127.383 93.2185 126.75 93.2185 126.025C93.2185 125.299 93.356 124.666 93.631 124.125C93.9059 123.582 94.2951 123.164 94.7984 122.871C95.3018 122.579 95.8883 122.432 96.5579 122.432C97.1455 122.432 97.6633 122.54 98.1112 122.755C98.5613 122.968 98.9217 123.271 99.1922 123.663C99.4627 124.053 99.6301 124.508 99.6944 125.027H98.1877C98.13 124.732 98.0225 124.485 97.8651 124.285C97.7098 124.083 97.518 123.934 97.2897 123.836C97.0635 123.736 96.8162 123.686 96.5479 123.686C96.1887 123.686 95.8738 123.772 95.6033 123.942C95.3328 124.113 95.1221 124.374 94.9714 124.724C94.8206 125.072 94.7452 125.506 94.7452 126.025C94.7452 126.543 94.8217 126.978 94.9747 127.328C95.1299 127.679 95.3417 127.939 95.61 128.11C95.8805 128.278 96.192 128.363 96.5446 128.363C96.8196 128.363 97.0712 128.313 97.2996 128.213C97.5302 128.111 97.7243 127.956 97.8817 127.747C98.0413 127.537 98.1489 127.277 98.2043 126.969H99.7011C99.6323 127.506 99.4572 127.974 99.1755 128.373C98.8939 128.772 98.527 129.079 98.0746 129.294C97.6245 129.509 97.1156 129.617 96.5479 129.617ZM103.815 129.617C103.154 129.617 102.569 129.471 102.059 129.181C101.551 128.89 101.156 128.475 100.874 127.934C100.595 127.393 100.455 126.757 100.455 126.028C100.455 125.316 100.593 124.689 100.868 124.145C101.145 123.6 101.535 123.178 102.039 122.881C102.542 122.582 103.126 122.432 103.791 122.432C104.472 122.432 105.062 122.588 105.561 122.898C106.06 123.208 106.44 123.636 106.702 124.182C106.966 124.725 107.098 125.343 107.098 126.034C107.098 126.103 107.096 126.175 107.094 126.251C107.094 126.324 107.092 126.401 107.088 126.484H101.21V125.403H106.123L105.604 125.695C105.6 125.294 105.527 124.938 105.385 124.628C105.245 124.315 105.039 124.07 104.766 123.892C104.493 123.715 104.163 123.626 103.775 123.626C103.404 123.626 103.081 123.711 102.804 123.879C102.529 124.045 102.314 124.299 102.158 124.641C102.003 124.98 101.923 125.401 101.919 125.905V126.161C101.919 126.669 101.996 127.092 102.152 127.431C102.307 127.768 102.528 128.02 102.814 128.186C103.1 128.353 103.44 128.436 103.835 128.436C104.121 128.436 104.375 128.392 104.596 128.303C104.818 128.214 105.002 128.089 105.148 127.927C105.297 127.763 105.408 127.567 105.481 127.338H106.935C106.819 127.793 106.622 128.192 106.343 128.536C106.063 128.877 105.708 129.143 105.278 129.334C104.85 129.522 104.362 129.617 103.815 129.617ZM111.825 129.617C111.242 129.617 110.743 129.467 110.328 129.168C109.916 128.866 109.603 128.446 109.39 127.907C109.177 127.368 109.071 126.741 109.071 126.025V125.998C109.071 125.288 109.177 124.665 109.39 124.129C109.605 123.592 109.919 123.175 110.331 122.878C110.746 122.581 111.244 122.432 111.825 122.432C112.432 122.432 112.962 122.58 113.415 122.875C113.869 123.167 114.219 123.584 114.462 124.125C114.709 124.666 114.832 125.299 114.832 126.025C114.832 126.75 114.709 127.383 114.462 127.924C114.219 128.465 113.869 128.883 113.415 129.178C112.962 129.47 112.432 129.617 111.825 129.617ZM108.219 129.457V119.984H109.703V124.215H109.537V127.847H109.643V129.457H108.219ZM111.482 128.373C111.853 128.373 112.174 128.277 112.447 128.087C112.722 127.894 112.934 127.618 113.082 127.258C113.233 126.899 113.308 126.472 113.308 125.978C113.308 125.486 113.234 125.068 113.085 124.724C112.937 124.378 112.725 124.116 112.45 123.939C112.177 123.762 111.855 123.673 111.482 123.673C111.108 123.673 110.783 123.766 110.508 123.952C110.233 124.136 110.021 124.405 109.872 124.757C109.724 125.11 109.65 125.531 109.65 126.021C109.65 126.513 109.724 126.936 109.872 127.288C110.021 127.641 110.233 127.91 110.508 128.097C110.783 128.281 111.108 128.373 111.482 128.373ZM119.109 129.617C118.433 129.617 117.832 129.469 117.307 129.174C116.783 128.879 116.375 128.461 116.083 127.92C115.79 127.377 115.644 126.746 115.644 126.028C115.644 125.309 115.79 124.679 116.083 124.135C116.375 123.592 116.783 123.173 117.307 122.878C117.832 122.583 118.433 122.436 119.109 122.436C119.783 122.436 120.381 122.583 120.902 122.878C121.425 123.173 121.833 123.592 122.126 124.135C122.419 124.679 122.565 125.309 122.565 126.028C122.565 126.746 122.419 127.377 122.126 127.92C121.833 128.461 121.425 128.879 120.902 129.174C120.381 129.469 119.783 129.617 119.109 129.617ZM119.109 128.376C119.497 128.376 119.836 128.285 120.124 128.103C120.414 127.921 120.639 127.654 120.799 127.302C120.959 126.949 121.039 126.525 121.039 126.028C121.039 125.531 120.959 125.107 120.799 124.754C120.639 124.399 120.414 124.131 120.124 123.949C119.836 123.767 119.497 123.676 119.109 123.676C118.717 123.676 118.375 123.767 118.085 123.949C117.794 124.131 117.569 124.398 117.41 124.751C117.25 125.103 117.17 125.529 117.17 126.028C117.17 126.527 117.25 126.952 117.41 127.305C117.569 127.655 117.794 127.921 118.085 128.103C118.375 128.285 118.717 128.376 119.109 128.376ZM126.84 129.617C126.164 129.617 125.563 129.469 125.037 129.174C124.514 128.879 124.106 128.461 123.813 127.92C123.521 127.377 123.374 126.746 123.374 126.028C123.374 125.309 123.521 124.679 123.813 124.135C124.106 123.592 124.514 123.173 125.037 122.878C125.563 122.583 126.164 122.436 126.84 122.436C127.514 122.436 128.112 122.583 128.633 122.878C129.156 123.173 129.564 123.592 129.857 124.135C130.149 124.679 130.296 125.309 130.296 126.028C130.296 126.746 130.149 127.377 129.857 127.92C129.564 128.461 129.156 128.879 128.633 129.174C128.112 129.469 127.514 129.617 126.84 129.617ZM126.84 128.376C127.228 128.376 127.566 128.285 127.854 128.103C128.145 127.921 128.37 127.654 128.53 127.302C128.689 126.949 128.769 126.525 128.769 126.028C128.769 125.531 128.689 125.107 128.53 124.754C128.37 124.399 128.145 124.131 127.854 123.949C127.566 123.767 127.228 123.676 126.84 123.676C126.447 123.676 126.106 123.767 125.816 123.949C125.525 124.131 125.3 124.398 125.14 124.751C124.981 125.103 124.901 125.529 124.901 126.028C124.901 126.527 124.981 126.952 125.14 127.305C125.3 127.655 125.525 127.921 125.816 128.103C126.106 128.285 126.447 128.376 126.84 128.376ZM132.761 127.305L132.485 125.921L133.842 124.568L135.821 122.592H137.631L134.491 125.689L134.418 125.699L132.761 127.305ZM131.424 129.457V119.984H132.894V125.017V126.038V126.39V129.457H131.424ZM136.077 129.457L134.707 127.262L133.752 125.719V125L134.916 124.99L137.784 129.457H136.077Z" fill="black"/>
<rect x="231.289" y="110.914" width="19.2174" height="28.087" rx="9.6087" fill="#BBD60F"/>
<g clip-path="url(#clip6_1_2043)">
<path d="M239.604 121.724L242.837 124.957L239.604 128.191" stroke="black" stroke-width="1.03478" stroke-linecap="round" stroke-linejoin="round"/>
</g>
<path d="M9.24591 105.74C9.24591 104.107 10.5696 102.783 12.2024 102.783H15.8981L15.8981 162.653H12.2024C10.5696 162.653 9.24591 161.329 9.24591 159.696L9.24591 105.74Z" fill="black"/>
</g>
<g clip-path="url(#clip7_1_2043)">
<rect x="9.24591" y="149.783" width="250" height="44.3478" rx="11.8261" fill="#EFEFEF"/>
<path d="M40.3838 171.957L36.7806 169.555V174.359L40.3838 171.957Z" stroke="black" stroke-width="1.03478" stroke-linecap="round" stroke-linejoin="round"/>
<path d="M30.1775 171.958C30.1775 174.203 30.4079 175.52 30.5836 176.197C30.6301 176.381 30.7195 176.551 30.8447 176.694C30.9698 176.837 31.1271 176.948 31.3035 177.019C33.8198 177.989 37.9846 177.963 37.9846 177.963C37.9846 177.963 42.1493 177.989 44.6656 177.019C44.8426 176.949 45.0005 176.838 45.1261 176.695C45.2518 176.552 45.3418 176.381 45.3885 176.197C45.5642 175.521 45.7946 174.203 45.7946 171.958C45.7946 169.712 45.5642 168.396 45.3885 167.719C45.3423 167.533 45.2526 167.362 45.1269 167.218C45.0012 167.075 44.843 166.963 44.6656 166.893C42.1493 165.926 37.9846 165.952 37.9846 165.952C37.9846 165.952 33.8198 165.926 31.3035 166.897C31.1261 166.967 30.9679 167.078 30.8422 167.222C30.7165 167.366 30.6268 167.537 30.5806 167.722C30.4079 168.395 30.1775 169.712 30.1775 171.958Z" stroke="black" stroke-width="1.03478" stroke-linecap="round" stroke-linejoin="round"/>
<path d="M61.272 176.457V171.977L61.6611 173.344L57.7164 166.984H59.4892L61.2886 169.948C61.4793 170.261 61.6556 170.557 61.8175 170.836C61.9815 171.115 62.1356 171.388 62.2798 171.654H61.8806C62.0203 171.395 62.1689 171.13 62.3263 170.859C62.4838 170.589 62.6656 170.285 62.8718 169.948L64.6413 166.984H66.3842L62.4727 173.321L62.8485 171.957V176.457H61.272ZM68.3996 176.617C67.7233 176.617 67.1224 176.469 66.5968 176.174C66.0735 175.879 65.6655 175.461 65.3728 174.92C65.0801 174.377 64.9338 173.746 64.9338 173.028C64.9338 172.309 65.0801 171.679 65.3728 171.135C65.6655 170.592 66.0735 170.173 66.5968 169.878C67.1224 169.583 67.7233 169.436 68.3996 169.436C69.0737 169.436 69.6712 169.583 70.1923 169.878C70.7156 170.173 71.1236 170.592 71.4163 171.135C71.709 171.679 71.8554 172.309 71.8554 173.028C71.8554 173.746 71.709 174.377 71.4163 174.92C71.1236 175.461 70.7156 175.879 70.1923 176.174C69.6712 176.469 69.0737 176.617 68.3996 176.617ZM68.3996 175.376C68.7876 175.376 69.1258 175.285 69.414 175.103C69.7045 174.921 69.9296 174.654 70.0892 174.302C70.2489 173.949 70.3287 173.525 70.3287 173.028C70.3287 172.531 70.2489 172.107 70.0892 171.754C69.9296 171.399 69.7045 171.131 69.414 170.949C69.1258 170.767 68.7876 170.676 68.3996 170.676C68.0071 170.676 67.6656 170.767 67.3751 170.949C67.0847 171.131 66.8596 171.398 66.6999 171.751C66.5403 172.103 66.4605 172.529 66.4605 173.028C66.4605 173.527 66.5403 173.952 66.6999 174.305C66.8596 174.655 67.0847 174.921 67.3751 175.103C67.6656 175.285 68.0071 175.376 68.3996 175.376ZM75.1999 176.617C74.7009 176.617 74.2719 176.524 73.9127 176.337C73.5557 176.149 73.2807 175.871 73.0878 175.502C72.8971 175.132 72.8018 174.681 72.8018 174.149V169.592H74.2852V173.952C74.2852 174.261 74.3384 174.517 74.4448 174.721C74.5513 174.923 74.7054 175.073 74.9072 175.173C75.1112 175.273 75.3606 175.323 75.6555 175.323C75.9349 175.323 76.1999 175.255 76.4505 175.12C76.701 174.982 76.9061 174.774 77.0658 174.495C77.2254 174.213 77.3053 173.865 77.3053 173.45H78.0437V174.884H77.6346C77.5059 175.219 77.3263 175.517 77.0957 175.779C76.8673 176.04 76.5913 176.245 76.2675 176.394C75.946 176.542 75.5901 176.617 75.1999 176.617ZM77.3585 176.457V174.824H77.3053V169.592H78.7854V176.457H77.3585ZM82.7912 176.49C82.3389 176.49 81.9653 176.437 81.6703 176.331C81.3777 176.222 81.1559 176.049 81.0051 175.812C80.8543 175.575 80.779 175.263 80.779 174.877V171.212V170.167V169.116V167.49H82.2624V169.116V170.167V171.212V174.688C82.2624 174.829 82.2868 174.944 82.3356 175.03C82.3866 175.114 82.4686 175.176 82.5817 175.216C82.6948 175.256 82.85 175.276 83.0473 175.276C83.1227 175.276 83.2026 175.276 83.2868 175.276C83.3711 175.276 83.4565 175.276 83.5429 175.276H83.6394V176.457C83.6261 176.457 83.6117 176.457 83.5962 176.457C83.5806 176.459 83.5662 176.461 83.5529 176.464C83.4221 176.47 83.2902 176.476 83.1571 176.48C83.0241 176.487 82.9021 176.49 82.7912 176.49ZM79.688 170.783V169.592H81.524H83.6394V170.783H81.524H79.688ZM87.075 176.617C86.5761 176.617 86.1471 176.524 85.7878 176.337C85.4308 176.149 85.1559 175.871 84.963 175.502C84.7723 175.132 84.6769 174.681 84.6769 174.149V169.592H86.1604V173.952C86.1604 174.261 86.2136 174.517 86.32 174.721C86.4264 174.923 86.5806 175.073 86.7823 175.173C86.9863 175.273 87.2358 175.323 87.5307 175.323C87.8101 175.323 88.0751 175.255 88.3256 175.12C88.5762 174.982 88.7813 174.774 88.941 174.495C89.1006 174.213 89.1804 173.865 89.1804 173.45H89.9188V174.884H89.5097C89.3811 175.219 89.2015 175.517 88.9709 175.779C88.7425 176.04 88.4664 176.245 88.1427 176.394C87.8212 176.542 87.4653 176.617 87.075 176.617ZM89.2337 176.457V174.824H89.1804V169.592H90.6606V176.457H89.2337ZM95.7141 176.617C95.131 176.617 94.632 176.467 94.2174 176.168C93.805 175.866 93.4923 175.446 93.2794 174.907C93.0666 174.368 92.9601 173.741 92.9601 173.025V172.998C92.9601 172.288 93.0666 171.665 93.2794 171.129C93.4945 170.592 93.8083 170.175 94.2207 169.878C94.6354 169.581 95.1332 169.432 95.7141 169.432C96.3217 169.432 96.8516 169.58 97.304 169.875C97.7586 170.167 98.1078 170.584 98.3517 171.125C98.5978 171.666 98.7209 172.299 98.7209 173.025C98.7209 173.75 98.5978 174.383 98.3517 174.924C98.1078 175.465 97.7586 175.883 97.304 176.178C96.8516 176.47 96.3217 176.617 95.7141 176.617ZM92.1086 176.457V166.984H93.5921V171.215H93.4258V174.847H93.5322V176.457H92.1086ZM95.3715 175.373C95.7418 175.373 96.0634 175.277 96.3361 175.087C96.6111 174.894 96.8228 174.618 96.9714 174.258C97.1222 173.899 97.1976 173.472 97.1976 172.978C97.1976 172.486 97.1233 172.068 96.9747 171.724C96.8261 171.378 96.6144 171.116 96.3394 170.939C96.0667 170.762 95.7441 170.673 95.3715 170.673C94.9968 170.673 94.672 170.766 94.397 170.952C94.122 171.136 93.9103 171.405 93.7617 171.757C93.6131 172.11 93.5389 172.531 93.5389 173.021C93.5389 173.513 93.6131 173.936 93.7617 174.288C93.9103 174.641 94.122 174.91 94.397 175.097C94.672 175.281 94.9968 175.373 95.3715 175.373ZM102.892 176.617C102.231 176.617 101.646 176.471 101.136 176.181C100.628 175.89 100.234 175.475 99.952 174.934C99.6726 174.393 99.5329 173.757 99.5329 173.028C99.5329 172.316 99.6704 171.689 99.9453 171.145C100.222 170.6 100.613 170.178 101.116 169.881C101.619 169.582 102.204 169.432 102.869 169.432C103.55 169.432 104.14 169.588 104.638 169.898C105.137 170.208 105.518 170.636 105.779 171.182C106.043 171.725 106.175 172.343 106.175 173.034C106.175 173.103 106.174 173.175 106.172 173.251C106.172 173.324 106.17 173.401 106.165 173.484H100.288V172.403H105.201L104.682 172.695C104.677 172.294 104.604 171.938 104.462 171.628C104.322 171.315 104.116 171.07 103.843 170.892C103.571 170.715 103.24 170.626 102.852 170.626C102.482 170.626 102.158 170.711 101.881 170.879C101.606 171.045 101.391 171.299 101.236 171.641C101.081 171.98 101.001 172.401 100.996 172.905V173.161C100.996 173.669 101.074 174.092 101.229 174.431C101.384 174.768 101.605 175.02 101.891 175.186C102.177 175.353 102.517 175.436 102.912 175.436C103.198 175.436 103.452 175.392 103.674 175.303C103.896 175.214 104.08 175.089 104.226 174.927C104.375 174.763 104.485 174.567 104.559 174.338H106.012C105.897 174.793 105.699 175.192 105.42 175.536C105.141 175.877 104.786 176.143 104.356 176.334C103.928 176.522 103.44 176.617 102.892 176.617ZM109.354 176.457L112.993 166.984H114.836L118.561 176.457H116.901L114.623 170.427C114.505 170.11 114.392 169.802 114.284 169.502C114.175 169.201 114.071 168.91 113.971 168.631C113.871 168.349 113.769 168.053 113.665 167.743H114.137C114.042 168.049 113.948 168.34 113.855 168.617C113.764 168.892 113.664 169.182 113.555 169.486C113.447 169.789 113.335 170.101 113.219 170.42L110.978 176.457H109.354ZM111.576 174.089V172.758H116.346V174.089H111.576ZM119.38 176.457V166.984H120.863V176.457H119.38ZM125.343 176.617C124.683 176.617 124.097 176.471 123.587 176.181C123.079 175.89 122.685 175.475 122.403 174.934C122.124 174.393 121.984 173.757 121.984 173.028C121.984 172.316 122.121 171.689 122.396 171.145C122.674 170.6 123.064 170.178 123.567 169.881C124.071 169.582 124.655 169.432 125.32 169.432C126.001 169.432 126.591 169.588 127.09 169.898C127.588 170.208 127.969 170.636 128.23 171.182C128.494 171.725 128.626 172.343 128.626 173.034C128.626 173.103 128.625 173.175 128.623 173.251C128.623 173.324 128.621 173.401 128.616 173.484H122.739V172.403H127.652L127.133 172.695C127.128 172.294 127.055 171.938 126.913 171.628C126.774 171.315 126.567 171.07 126.295 170.892C126.022 170.715 125.691 170.626 125.303 170.626C124.933 170.626 124.609 170.711 124.332 170.879C124.057 171.045 123.842 171.299 123.687 171.641C123.532 171.98 123.452 172.401 123.447 172.905V173.161C123.447 173.669 123.525 174.092 123.68 174.431C123.835 174.768 124.056 175.02 124.342 175.186C124.628 175.353 124.969 175.436 125.363 175.436C125.649 175.436 125.903 175.392 126.125 175.303C126.347 175.214 126.531 175.089 126.677 174.927C126.826 174.763 126.937 174.567 127.01 174.338H128.463C128.348 174.793 128.151 175.192 127.871 175.536C127.592 175.877 127.237 176.143 126.807 176.334C126.379 176.522 125.891 176.617 125.343 176.617ZM128.468 176.457L131.279 172.629L131.269 173.234L128.621 169.592H130.314L131.432 171.182C131.541 171.344 131.647 171.506 131.751 171.667C131.856 171.827 131.955 171.987 132.051 172.146L131.718 172.136C131.822 171.979 131.928 171.822 132.034 171.664C132.14 171.504 132.248 171.344 132.357 171.182L133.478 169.592H135.141L132.476 173.234L132.496 172.629L135.27 176.457H133.574L132.224 174.511C132.128 174.367 132.036 174.225 131.948 174.086C131.859 173.946 131.772 173.811 131.688 173.68H132.064C131.978 173.819 131.889 173.958 131.798 174.096C131.707 174.233 131.612 174.376 131.512 174.525L130.148 176.457H128.468ZM135.919 176.457V169.592H137.403V176.457H135.919ZM135.919 168.857V167.36H137.403V168.857H135.919ZM144.13 176.457V167.679H145.74V176.457H144.13ZM141.053 168.391V166.984H148.826V168.391H141.053ZM148.613 176.457V169.592H150.043V171.332H150.097V176.457H148.613ZM149.724 172.25C149.724 171.793 149.811 171.354 149.983 170.932C150.156 170.511 150.425 170.165 150.788 169.895C151.154 169.622 151.611 169.486 152.159 169.486C152.223 169.486 152.287 169.488 152.352 169.492C152.416 169.497 152.482 169.502 152.551 169.509V170.883C152.485 170.883 152.42 170.883 152.358 170.883C152.298 170.883 152.242 170.883 152.189 170.883C151.752 170.883 151.377 170.956 151.064 171.102C150.752 171.248 150.512 171.469 150.346 171.764C150.18 172.059 150.097 172.424 150.097 172.858H149.724V172.25ZM158.771 176.507C158.432 176.507 158.158 176.455 157.95 176.351C157.741 176.246 157.588 176.088 157.491 175.875C157.395 175.662 157.348 175.387 157.348 175.05L157.294 174.844V172.575V172.176V171.511C157.294 171.3 157.251 171.128 157.165 170.992C157.08 170.857 156.94 170.756 156.742 170.69C156.545 170.621 156.28 170.586 155.947 170.586C155.599 170.586 155.319 170.623 155.106 170.696C154.895 170.769 154.735 170.891 154.627 171.062C154.518 171.233 154.454 171.467 154.434 171.764H152.96C152.985 171.274 153.1 170.857 153.306 170.513C153.515 170.167 153.836 169.901 154.271 169.715C154.706 169.527 155.267 169.432 155.954 169.432C156.612 169.432 157.149 169.517 157.564 169.685C157.978 169.851 158.28 170.086 158.468 170.39C158.659 170.692 158.754 171.052 158.754 171.471V174.984C158.754 175.061 158.768 175.128 158.794 175.183C158.821 175.236 158.863 175.277 158.921 175.306C158.978 175.335 159.053 175.349 159.144 175.349C159.192 175.349 159.246 175.349 159.303 175.349C159.361 175.349 159.42 175.349 159.48 175.349V176.457C159.369 176.473 159.252 176.485 159.13 176.494C159.011 176.502 158.891 176.507 158.771 176.507ZM155.116 176.627C154.621 176.627 154.19 176.549 153.822 176.394C153.454 176.239 153.169 176.008 152.967 175.702C152.765 175.396 152.664 175.026 152.664 174.591C152.664 174.203 152.75 173.864 152.921 173.573C153.091 173.281 153.366 173.039 153.745 172.848C154.127 172.655 154.626 172.527 155.242 172.462L156.283 172.353C156.509 172.328 156.696 172.285 156.842 172.223C156.991 172.159 157.103 172.069 157.178 171.954C157.256 171.838 157.294 171.691 157.294 171.511L157.703 171.737C157.699 172.119 157.658 172.417 157.58 172.632C157.503 172.847 157.376 173.008 157.201 173.114C157.028 173.219 156.782 173.291 156.463 173.331L155.548 173.444C155.209 173.486 154.939 173.553 154.74 173.646C154.54 173.737 154.398 173.855 154.314 173.999C154.23 174.141 154.188 174.314 154.188 174.518C154.188 174.726 154.232 174.905 154.321 175.053C154.412 175.202 154.548 175.317 154.73 175.399C154.914 175.479 155.143 175.519 155.418 175.519C155.747 175.519 156.054 175.455 156.34 175.326C156.626 175.198 156.856 175.001 157.032 174.737C157.207 174.474 157.294 174.148 157.294 173.76H157.733V174.591C157.636 175.028 157.471 175.398 157.238 175.702C157.005 176.006 156.71 176.236 156.353 176.394C155.996 176.549 155.584 176.627 155.116 176.627ZM160.332 176.457V169.592H161.816V176.457H160.332ZM160.332 168.857V167.36H161.816V168.857H160.332ZM163.256 176.457V169.592H164.686V171.225H164.739V176.457H163.256ZM167.759 172.097C167.759 171.788 167.706 171.533 167.6 171.332C167.493 171.128 167.338 170.976 167.134 170.876C166.93 170.776 166.68 170.726 166.386 170.726C166.108 170.726 165.843 170.795 165.591 170.932C165.34 171.068 165.135 171.276 164.975 171.558C164.818 171.837 164.739 172.184 164.739 172.599H163.997V171.165H164.407C164.533 170.83 164.71 170.533 164.939 170.274C165.169 170.012 165.447 169.807 165.77 169.659C166.094 169.508 166.451 169.432 166.841 169.432C167.34 169.432 167.768 169.527 168.125 169.715C168.484 169.901 168.759 170.18 168.95 170.55C169.143 170.918 169.239 171.368 169.239 171.9V176.457H167.759V172.097ZM173.727 176.617C173.067 176.617 172.481 176.471 171.971 176.181C171.464 175.89 171.069 175.475 170.787 174.934C170.508 174.393 170.368 173.757 170.368 173.028C170.368 172.316 170.506 171.689 170.781 171.145C171.058 170.6 171.448 170.178 171.951 169.881C172.455 169.582 173.039 169.432 173.704 169.432C174.385 169.432 174.975 169.588 175.474 169.898C175.973 170.208 176.353 170.636 176.615 171.182C176.878 171.725 177.01 172.343 177.01 173.034C177.01 173.103 177.009 173.175 177.007 173.251C177.007 173.324 177.005 173.401 177 173.484H171.123V172.403H176.036L175.517 172.695C175.512 172.294 175.439 171.938 175.297 171.628C175.158 171.315 174.951 171.07 174.679 170.892C174.406 170.715 174.076 170.626 173.688 170.626C173.317 170.626 172.994 170.711 172.716 170.879C172.441 171.045 172.226 171.299 172.071 171.641C171.916 171.98 171.836 172.401 171.832 172.905V173.161C171.832 173.669 171.909 174.092 172.064 174.431C172.22 174.768 172.44 175.02 172.726 175.186C173.012 175.353 173.353 175.436 173.747 175.436C174.033 175.436 174.287 175.392 174.509 175.303C174.731 175.214 174.915 175.089 175.061 174.927C175.21 174.763 175.321 174.567 175.394 174.338H176.847C176.732 174.793 176.535 175.192 176.255 175.536C175.976 175.877 175.621 176.143 175.191 176.334C174.763 176.522 174.275 176.617 173.727 176.617ZM178.132 176.457V169.592H179.562V171.332H179.616V176.457H178.132ZM179.243 172.25C179.243 171.793 179.33 171.354 179.503 170.932C179.675 170.511 179.944 170.165 180.307 169.895C180.673 169.622 181.13 169.486 181.678 169.486C181.742 169.486 181.806 169.488 181.871 169.492C181.935 169.497 182.002 169.502 182.07 169.509V170.883C182.004 170.883 181.939 170.883 181.877 170.883C181.817 170.883 181.761 170.883 181.708 170.883C181.271 170.883 180.896 170.956 180.583 171.102C180.271 171.248 180.031 171.469 179.865 171.764C179.699 172.059 179.616 172.424 179.616 172.858H179.243V172.25Z" fill="black"/>
<rect x="231.289" y="157.914" width="19.2174" height="28.087" rx="9.6087" fill="#BBD60F"/>
<g clip-path="url(#clip8_1_2043)">
<path d="M239.604 168.724L242.837 171.957L239.604 175.191" stroke="black" stroke-width="1.03478" stroke-linecap="round" stroke-linejoin="round"/>
</g>
<path d="M9.24591 152.74C9.24591 151.107 10.5696 149.783 12.2024 149.783H15.8981L15.8981 209.653H12.2024C10.5696 209.653 9.24591 208.329 9.24591 206.696L9.24591 152.74Z" fill="black"/>
</g>
<path d="M13.0899 37.7832V26.3912H16.7419L18.6539 31.9552C18.7872 32.4459 18.9086 32.8952 19.0179 33.3032C19.1299 33.7085 19.2366 34.1245 19.3379 34.5512C19.3859 34.7619 19.4326 34.9765 19.4779 35.1952C19.5259 35.4139 19.5712 35.6299 19.6139 35.8432H18.9979C19.1232 35.2272 19.2712 34.5805 19.4419 33.9032C19.6126 33.2259 19.7819 32.5739 19.9499 31.9472L21.8299 26.3912H25.4819V37.7832H23.1059V32.2352C23.1059 31.6139 23.1152 30.9659 23.1339 30.2912C23.1526 29.6139 23.1899 28.8112 23.2459 27.8832L23.4299 27.9352C23.2966 28.4925 23.1699 28.9912 23.0499 29.4312C22.9299 29.8685 22.8032 30.3019 22.6699 30.7312C22.5366 31.1579 22.3819 31.6592 22.2059 32.2352L20.3219 37.7832H18.2659L16.3619 32.2472C16.2526 31.9005 16.1499 31.5739 16.0539 31.2672C15.9606 30.9579 15.8712 30.6605 15.7859 30.3752C15.7006 30.0872 15.6166 29.7965 15.5339 29.5032C15.4699 29.2659 15.4032 29.0179 15.3339 28.7592C15.2672 28.4979 15.1979 28.2219 15.1259 27.9312L15.3099 27.8752C15.3259 28.1499 15.3419 28.4192 15.3579 28.6832C15.3739 28.9445 15.3886 29.2005 15.4019 29.4512C15.4259 29.9765 15.4432 30.4739 15.4539 30.9432C15.4672 31.4099 15.4739 31.8445 15.4739 32.2472V37.7832H13.0899ZM31.08 37.9752C30.2294 37.9752 29.4747 37.7979 28.816 37.4432C28.16 37.0885 27.6494 36.5859 27.284 35.9352C26.9187 35.2819 26.736 34.5245 26.736 33.6632C26.736 32.8019 26.9187 32.0459 27.284 31.3952C27.6494 30.7419 28.16 30.2365 28.816 29.8792C29.4747 29.5219 30.2294 29.3432 31.08 29.3432C31.9307 29.3432 32.6827 29.5219 33.336 29.8792C33.992 30.2365 34.5027 30.7419 34.868 31.3952C35.2334 32.0459 35.416 32.8019 35.416 33.6632C35.416 34.5245 35.2334 35.2819 34.868 35.9352C34.5054 36.5859 33.996 37.0885 33.34 37.4432C32.684 37.7979 31.9307 37.9752 31.08 37.9752ZM31.08 36.1192C31.48 36.1192 31.828 36.0285 32.124 35.8472C32.4227 35.6659 32.656 35.3912 32.824 35.0232C32.992 34.6552 33.076 34.2045 33.076 33.6712C33.076 33.1352 32.992 32.6819 32.824 32.3112C32.656 31.9405 32.4227 31.6632 32.124 31.4792C31.8254 31.2925 31.4774 31.1992 31.08 31.1992C30.6774 31.1992 30.3254 31.2925 30.024 31.4792C29.7254 31.6632 29.4934 31.9405 29.328 32.3112C29.1627 32.6792 29.08 33.1325 29.08 33.6712C29.08 34.2045 29.1627 34.6552 29.328 35.0232C29.4934 35.3885 29.7254 35.6632 30.024 35.8472C30.3227 36.0285 30.6747 36.1192 31.08 36.1192ZM35.364 39.2912C35.4094 39.2912 35.4614 39.2912 35.52 39.2912C35.5787 39.2912 35.6587 39.2912 35.76 39.2912C35.9494 39.2912 36.104 39.2685 36.224 39.2232C36.344 39.1805 36.4347 39.1019 36.496 38.9872C36.56 38.8752 36.592 38.7205 36.592 38.5232V29.5272H38.9V38.7592C38.9 39.3112 38.8014 39.7565 38.604 40.0952C38.4067 40.4365 38.1094 40.6859 37.712 40.8432C37.3147 41.0005 36.8094 41.0792 36.196 41.0792C36.0174 41.0792 35.8667 41.0765 35.744 41.0712C35.6214 41.0659 35.4947 41.0579 35.364 41.0472V39.2912ZM36.592 28.7152V26.6912H38.9V28.7152H36.592ZM44.3238 37.9752C43.4731 37.9752 42.7278 37.8019 42.0878 37.4552C41.4478 37.1085 40.9531 36.6112 40.6038 35.9632C40.2545 35.3125 40.0798 34.5485 40.0798 33.6712C40.0798 32.8099 40.2518 32.0525 40.5958 31.3992C40.9425 30.7432 41.4345 30.2352 42.0718 29.8752C42.7091 29.5152 43.4518 29.3352 44.2998 29.3352C45.1478 29.3352 45.8865 29.5152 46.5158 29.8752C47.1478 30.2352 47.6331 30.7405 47.9718 31.3912C48.3105 32.0392 48.4798 32.7859 48.4798 33.6312C48.4798 33.7272 48.4771 33.8312 48.4718 33.9432C48.4665 34.0525 48.4598 34.1725 48.4518 34.3032H41.3598V32.8552H46.7798L46.2118 33.1792C46.2091 32.7499 46.1331 32.3752 45.9838 32.0552C45.8371 31.7325 45.6198 31.4819 45.3318 31.3032C45.0438 31.1219 44.6918 31.0312 44.2758 31.0312C43.8651 31.0312 43.5131 31.1205 43.2198 31.2992C42.9291 31.4779 42.7038 31.7472 42.5438 32.1072C42.3865 32.4672 42.3065 32.9165 42.3038 33.4552V34.0472C42.3038 34.5432 42.3838 34.9605 42.5438 35.2992C42.7065 35.6352 42.9411 35.8885 43.2478 36.0592C43.5571 36.2299 43.9291 36.3152 44.3638 36.3152C44.6705 36.3152 44.9411 36.2712 45.1758 36.1832C45.4131 36.0952 45.6091 35.9685 45.7638 35.8032C45.9211 35.6379 46.0398 35.4379 46.1198 35.2032H48.2958C48.1545 35.7712 47.9038 36.2632 47.5438 36.6792C47.1838 37.0952 46.7291 37.4152 46.1798 37.6392C45.6331 37.8632 45.0145 37.9752 44.3238 37.9752ZM53.0139 37.7832V26.3912H55.3219V37.7832H53.0139ZM56.8577 37.7832V29.5272H59.1657V37.7832H56.8577ZM56.8577 28.7152V26.6912H59.1657V28.7152H56.8577ZM60.7014 37.7832V29.5272H62.9454V31.3192H63.0094V37.7832H60.7014ZM66.0974 32.7672C66.0974 32.4472 66.0427 32.1792 65.9334 31.9632C65.8267 31.7445 65.6694 31.5819 65.4614 31.4752C65.2534 31.3659 64.9961 31.3112 64.6894 31.3112C64.4014 31.3112 64.1294 31.3779 63.8734 31.5112C63.6201 31.6445 63.4121 31.8512 63.2494 32.1312C63.0894 32.4085 63.0094 32.7552 63.0094 33.1712H62.3174V31.1832H62.7254C62.8881 30.8072 63.1054 30.4805 63.3774 30.2032C63.6494 29.9259 63.9694 29.7125 64.3374 29.5632C64.7054 29.4112 65.1081 29.3352 65.5454 29.3352C66.1401 29.3352 66.6494 29.4485 67.0734 29.6752C67.5001 29.9019 67.8281 30.2459 68.0574 30.7072C68.2894 31.1685 68.4054 31.7419 68.4054 32.4272V37.7832H66.0974V32.7672ZM71.9678 35.6072L71.7478 33.3512L73.3518 31.6712L75.4278 29.5272H78.1238L74.1758 33.5112L74.0758 33.5232L71.9678 35.6072ZM69.9358 37.7832V26.3912H72.2358V32.2352V33.5912V34.0832V37.7832H69.9358ZM75.6038 37.7832L74.1758 35.4712L73.0278 33.5872V32.5032L74.8038 32.4752L78.2318 37.7832H75.6038ZM78.8733 37.7832V29.5272H81.1813V37.7832H78.8733ZM78.8733 28.7152V26.6912H81.1813V28.7152H78.8733Z" fill="#191D31"/>
<defs>
<clipPath id="clip0_1_2043">
<rect x="9.3399" y="55.3457" width="250" height="44" rx="11.8261" fill="white"/>
</clipPath>
<clipPath id="clip1_1_2043">
<rect width="17.7391" height="17.7391" fill="white" transform="translate(28.4698 68.4756)"/>
</clipPath>
<clipPath id="clip2_1_2043">
<rect width="136" height="35.4783" fill="white" transform="translate(56.209 59.6064)"/>
</clipPath>
<clipPath id="clip3_1_2043">
<rect width="10.3478" height="10.3478" fill="white" transform="translate(235.817 72.1709)"/>
</clipPath>
<clipPath id="clip4_1_2043">
<rect x="9.24591" y="102.783" width="250" height="44.3478" rx="11.8261" fill="white"/>
</clipPath>
<clipPath id="clip5_1_2043">
<rect width="19.2174" height="19.2174" fill="white" transform="translate(28.3759 115.349)"/>
</clipPath>
<clipPath id="clip6_1_2043">
<rect width="10.3478" height="10.3478" fill="white" transform="translate(235.723 119.783)"/>
</clipPath>
<clipPath id="clip7_1_2043">
<rect x="9.24591" y="149.783" width="250" height="44.3478" rx="11.8261" fill="white"/>
</clipPath>
<clipPath id="clip8_1_2043">
<rect width="10.3478" height="10.3478" fill="white" transform="translate(235.723 166.783)"/>
</clipPath>
</defs>
</svg>
