<svg width="196" height="58" viewBox="0 0 196 58" fill="none" xmlns="http://www.w3.org/2000/svg">
<path d="M67.4977 44.4765C65.5255 44.4765 63.7784 44.043 62.2562 43.1761C60.7407 42.3091 59.5627 41.0682 58.7222 39.4534C57.8883 37.8386 57.4714 35.9425 57.4714 33.7652C57.4714 31.6408 57.8817 29.7679 58.7023 28.1465C59.5296 26.5184 60.6944 25.261 62.1967 24.3742C63.699 23.4807 65.4428 23.034 67.4282 23.034C69.46 23.034 71.2204 23.4973 72.7094 24.4238C74.1985 25.3503 75.3335 26.6276 76.1144 28.2557C76.902 29.8771 77.2957 31.7202 77.2957 33.785C77.2957 33.9902 77.2924 34.2053 77.2858 34.4303C77.2858 34.6487 77.2792 34.8803 77.266 35.1252H59.7248V31.8989H74.3871L72.8385 32.7725C72.8253 31.5746 72.6069 30.5124 72.1833 29.5859C71.7664 28.6527 71.1509 27.9215 70.3369 27.392C69.5228 26.8626 68.5368 26.5978 67.3786 26.5978C66.2734 26.5978 65.3071 26.8493 64.4799 27.3523C63.6593 27.8487 63.0173 28.6064 62.554 29.6256C62.0908 30.6382 61.8525 31.8956 61.8393 33.3979V34.1623C61.8393 35.6778 62.0709 36.9419 62.5342 37.9544C62.9974 38.9604 63.6559 39.7115 64.5097 40.2079C65.3634 40.7042 66.3793 40.9524 67.5573 40.9524C68.411 40.9524 69.1688 40.82 69.8306 40.5553C70.4924 40.2906 71.0417 39.9167 71.4785 39.4335C71.9219 38.9438 72.2528 38.3581 72.4712 37.6765H76.8093C76.4652 39.0332 75.8762 40.2244 75.0423 41.2502C74.2084 42.2694 73.1495 43.0635 71.8656 43.6327C70.5884 44.1952 69.1324 44.4765 67.4977 44.4765ZM76.8251 44L85.2135 32.5739L85.1837 34.3807L77.2818 23.5105H82.3347L85.6702 28.2557C85.9944 28.7388 86.3121 29.2219 86.6232 29.705C86.9342 30.1815 87.232 30.658 87.5166 31.1345L86.5239 31.1047C86.8349 30.6349 87.1493 30.165 87.467 29.6951C87.7846 29.2186 88.1056 28.7388 88.4299 28.2557L91.7753 23.5105H96.7388L88.7873 34.3807L88.8468 32.5739L97.126 44H92.0632L88.0328 38.1927C87.7482 37.7625 87.4736 37.3389 87.2089 36.922C86.9441 36.5051 86.686 36.1014 86.4345 35.7109H87.5563C87.2982 36.1278 87.0335 36.5415 86.7621 36.9518C86.4908 37.3621 86.2062 37.789 85.9084 38.2324L81.8383 44H76.8251ZM109.863 44.4765C108.123 44.4765 106.633 44.0298 105.396 43.1363C104.165 42.2363 103.232 40.9822 102.596 39.374C101.961 37.7658 101.643 35.8929 101.643 33.7553V33.6758C101.643 31.5581 101.961 29.6984 102.596 28.0968C103.238 26.4953 104.175 25.2511 105.406 24.3643C106.643 23.4774 108.129 23.034 109.863 23.034C111.676 23.034 113.258 23.4741 114.608 24.3543C115.965 25.2279 117.007 26.4721 117.735 28.0869C118.47 29.7017 118.837 31.5912 118.837 33.7553C118.837 35.9194 118.47 37.8088 117.735 39.4236C117.007 41.0384 115.965 42.2859 114.608 43.1661C113.258 44.0397 111.676 44.4765 109.863 44.4765ZM99.1021 52.1005V23.5105H103.351V28.2854H103.033V39.1258H103.53V52.1005H99.1021ZM108.841 40.7638C109.946 40.7638 110.905 40.4792 111.719 39.91C112.54 39.3343 113.172 38.5103 113.615 37.4382C114.066 36.3661 114.291 35.0921 114.291 33.6163C114.291 32.1471 114.069 30.8996 113.625 29.8738C113.182 28.8414 112.55 28.0604 111.729 27.531C110.915 27.0015 109.952 26.7368 108.841 26.7368C107.722 26.7368 106.753 27.0148 105.932 27.5707C105.111 28.12 104.479 28.9208 104.036 29.973C103.592 31.0253 103.371 32.2827 103.371 33.7453C103.371 35.2145 103.592 36.4753 104.036 37.5275C104.479 38.5798 105.111 39.3839 105.932 39.9398C106.753 40.4891 107.722 40.7638 108.841 40.7638ZM131.287 44.4765C129.315 44.4765 127.568 44.043 126.045 43.1761C124.53 42.3091 123.352 41.0682 122.511 39.4534C121.678 37.8386 121.261 35.9425 121.261 33.7652C121.261 31.6408 121.671 29.7679 122.492 28.1465C123.319 26.5184 124.484 25.261 125.986 24.3742C127.488 23.4807 129.232 23.034 131.217 23.034C133.249 23.034 135.01 23.4973 136.499 24.4238C137.988 25.3503 139.123 26.6276 139.904 28.2557C140.691 29.8771 141.085 31.7202 141.085 33.785C141.085 33.9902 141.082 34.2053 141.075 34.4303C141.075 34.6487 141.068 34.8803 141.055 35.1252H123.514V31.8989H138.176L136.628 32.7725C136.614 31.5746 136.396 30.5124 135.972 29.5859C135.556 28.6527 134.94 27.9215 134.126 27.392C133.312 26.8626 132.326 26.5978 131.168 26.5978C130.063 26.5978 129.096 26.8493 128.269 27.3523C127.448 27.8487 126.806 28.6064 126.343 29.6256C125.88 30.6382 125.642 31.8956 125.628 33.3979V34.1623C125.628 35.6778 125.86 36.9419 126.323 37.9544C126.787 38.9604 127.445 39.7115 128.299 40.2079C129.153 40.7042 130.168 40.9524 131.346 40.9524C132.2 40.9524 132.958 40.82 133.62 40.5553C134.282 40.2906 134.831 39.9167 135.268 39.4335C135.711 38.9438 136.042 38.3581 136.26 37.6765H140.599C140.254 39.0332 139.665 40.2244 138.831 41.2502C137.998 42.2694 136.939 43.0635 135.655 43.6327C134.378 44.1952 132.922 44.4765 131.287 44.4765ZM144.433 44V23.5105H148.702V28.7024H148.861V44H144.433ZM147.749 31.4423C147.749 30.0789 148.007 28.7686 148.523 27.5111C149.039 26.2537 149.84 25.2213 150.925 24.4139C152.017 23.5999 153.381 23.1929 155.015 23.1929C155.207 23.1929 155.399 23.1995 155.591 23.2127C155.783 23.2259 155.982 23.2425 156.187 23.2623V27.3622C155.988 27.3622 155.796 27.3622 155.611 27.3622C155.432 27.3622 155.264 27.3622 155.105 27.3622C153.801 27.3622 152.683 27.5806 151.749 28.0174C150.816 28.4542 150.102 29.1127 149.605 29.9929C149.109 30.8731 148.861 31.9618 148.861 33.2589H147.749V31.4423ZM166.919 44.0993C165.569 44.0993 164.454 43.9404 163.573 43.6228C162.7 43.2985 162.038 42.7823 161.588 42.0741C161.138 41.366 160.913 40.4362 160.913 39.2846V28.345V25.2279V22.091V17.2366H165.341V22.091V25.2279V28.345V38.7188C165.341 39.1424 165.413 39.4832 165.559 39.7413C165.711 39.9928 165.956 40.1781 166.294 40.2972C166.631 40.4163 167.094 40.4759 167.683 40.4759C167.908 40.4759 168.147 40.4759 168.398 40.4759C168.65 40.4759 168.904 40.4759 169.162 40.4759H169.45V44C169.411 44 169.368 44 169.321 44C169.275 44.0066 169.232 44.0132 169.192 44.0199C168.802 44.0397 168.408 44.0563 168.011 44.0695C167.614 44.0893 167.25 44.0993 166.919 44.0993ZM157.657 27.0644V23.5105H163.137H169.45V27.0644H163.137H157.657Z" fill="black"/>
<path d="M3.78221 44V29.0995V25.2577V21.7634C3.78221 20.4265 4.00723 19.3048 4.45726 18.3981C4.9139 17.4914 5.61541 16.8031 6.5618 16.3332C7.50818 15.8634 8.7259 15.6284 10.215 15.6284C10.5326 15.6284 10.9065 15.6384 11.3367 15.6582C11.7735 15.6714 12.1739 15.6913 12.5379 15.7178C12.5577 15.7178 12.5776 15.7211 12.5975 15.7277C12.6239 15.7277 12.6471 15.7277 12.6669 15.7277V19.2518C12.5809 19.2518 12.4949 19.2518 12.4088 19.2518C12.3228 19.2452 12.2335 19.2419 12.1408 19.2419C11.9158 19.2353 11.6908 19.232 11.4658 19.232C11.2474 19.232 11.0356 19.232 10.8304 19.232C10.2216 19.232 9.72522 19.3312 9.34138 19.5298C8.95753 19.7283 8.67295 20.0195 8.48765 20.4033C8.30234 20.7872 8.20969 21.2703 8.20969 21.8527V25.2577V29.1193V44H3.78221ZM0.526135 27.0644V23.5105H6.00588H12.5379V27.0644H6.00588H0.526135ZM15.784 44V23.5105H20.2115V44H15.784ZM15.784 21.3166V16.8495H20.2115V21.3166H15.784ZM32.1628 44.0993C30.8127 44.0993 29.6976 43.9404 28.8174 43.6228C27.9438 43.2985 27.282 42.7823 26.8319 42.0741C26.3819 41.366 26.1569 40.4362 26.1569 39.2846V28.345V25.2279V22.091V17.2366H30.5844V22.091V25.2279V28.345V38.7188C30.5844 39.1424 30.6572 39.4832 30.8028 39.7413C30.955 39.9928 31.1999 40.1781 31.5374 40.2972C31.8749 40.4163 32.3382 40.4759 32.9272 40.4759C33.1522 40.4759 33.3904 40.4759 33.6419 40.4759C33.8934 40.4759 34.1482 40.4759 34.4063 40.4759H34.6942V44C34.6545 44 34.6115 44 34.5651 44C34.5188 44.0066 34.4758 44.0132 34.4361 44.0199C34.0456 44.0397 33.6518 44.0563 33.2548 44.0695C32.8577 44.0893 32.4937 44.0993 32.1628 44.0993ZM22.9008 27.0644V23.5105H28.3806H34.6942V27.0644H28.3806H22.9008Z" fill="black"/>
<path opacity="0.5" d="M187.013 11.3388V12.3491H184.888V18.0615H183.746V12.3491H181.612V11.3388H187.013ZM192.999 11.3388H194.613V18.0615H193.556V14.5963L193.65 12.3491L193.178 13.9448L191.894 18.0615H190.751L189.392 13.8409L188.938 12.3113L189.033 14.5963V18.0615H187.985V11.3388H189.59L191.063 15.871L191.318 16.8813L191.573 15.871L192.999 11.3388Z" fill="black"/>
<rect x="40.9722" y="33.2891" width="11.0964" height="20.1753" rx="5.5482" fill="white"/>
</svg>
