<svg width="166" height="50" viewBox="0 0 166 50" fill="none" xmlns="http://www.w3.org/2000/svg">
<path d="M56.9905 38.207C55.3253 38.207 53.8501 37.841 52.5649 37.109C51.2853 36.377 50.2907 35.3293 49.581 33.9658C48.877 32.6024 48.5249 31.0015 48.5249 29.1631C48.5249 27.3694 48.8714 25.7881 49.5643 24.419C50.2627 23.0444 51.2462 21.9827 52.5146 21.234C53.7831 20.4796 55.2555 20.1024 56.9318 20.1024C58.6473 20.1024 60.1337 20.4936 61.3909 21.2759C62.6482 22.0582 63.6065 23.1366 64.2659 24.5112C64.9308 25.8803 65.2633 27.4365 65.2633 29.1799C65.2633 29.3531 65.2605 29.5347 65.2549 29.7247C65.2549 29.9091 65.2493 30.1047 65.2381 30.3114H50.4276V27.5873H62.8074L61.4999 28.3249C61.4887 27.3135 61.3043 26.4167 60.9467 25.6344C60.5946 24.8465 60.075 24.2291 59.3877 23.782C58.7004 23.335 57.8678 23.1115 56.8899 23.1115C55.9567 23.1115 55.1409 23.3238 54.4424 23.7485C53.7496 24.1676 53.2075 24.8074 52.8164 25.6679C52.4252 26.5229 52.2241 27.5845 52.2129 28.853V29.4984C52.2129 30.778 52.4085 31.8453 52.7996 32.7002C53.1908 33.5496 53.7468 34.1838 54.4676 34.6029C55.1884 35.0219 56.0462 35.2315 57.0408 35.2315C57.7616 35.2315 58.4014 35.1197 58.9602 34.8962C59.519 34.6727 59.9828 34.357 60.3516 33.9491C60.726 33.5356 61.0054 33.0411 61.1898 32.4655H64.8526C64.562 33.611 64.0647 34.6168 63.3606 35.4829C62.6566 36.3435 61.7625 37.014 60.6785 37.4946C59.6 37.9695 58.3707 38.207 56.9905 38.207ZM64.8659 37.8047L71.9485 28.1573L71.9234 29.6828L65.2515 20.5048H69.5178L72.3341 24.5112C72.6079 24.9191 72.8761 25.3271 73.1387 25.735C73.4013 26.1373 73.6528 26.5396 73.8931 26.9419L73.0549 26.9168C73.3175 26.5201 73.5829 26.1233 73.8512 25.7266C74.1194 25.3243 74.3904 24.9191 74.6642 24.5112L77.4888 20.5048H81.6797L74.9659 29.6828L75.0162 28.1573L82.0066 37.8047H77.7319L74.3289 32.9014C74.0886 32.5382 73.8568 32.1805 73.6332 31.8285C73.4097 31.4765 73.1918 31.1356 72.9795 30.8059H73.9266C73.7087 31.158 73.4852 31.5072 73.2561 31.8536C73.027 32.2001 72.7867 32.5605 72.5352 32.9349L69.0987 37.8047H64.8659ZM92.7609 38.207C91.2913 38.207 90.034 37.8298 88.9891 37.0755C87.9498 36.3155 87.1619 35.2566 86.6255 33.8988C86.089 32.541 85.8208 30.9596 85.8208 29.1547V29.0877C85.8208 27.2996 86.089 25.7294 86.6255 24.3771C87.1675 23.0249 87.9582 21.9744 88.9975 21.2256C90.0424 20.4768 91.2969 20.1024 92.7609 20.1024C94.292 20.1024 95.6275 20.474 96.7674 21.2172C97.9129 21.9548 98.793 23.0053 99.4076 24.3687C100.028 25.7322 100.338 27.3275 100.338 29.1547C100.338 30.9819 100.028 32.5773 99.4076 33.9407C98.793 35.3041 97.9129 36.3574 96.7674 37.1006C95.6275 37.8382 94.292 38.207 92.7609 38.207ZM83.6751 44.6442V20.5048H87.2625V24.5364H86.9943V33.6892H87.4134V44.6442H83.6751ZM91.8976 35.0722C92.8308 35.0722 93.641 34.832 94.3283 34.3514C95.0212 33.8653 95.5548 33.1696 95.9292 32.2644C96.3092 31.3591 96.4992 30.2835 96.4992 29.0374C96.4992 27.7969 96.312 26.7436 95.9376 25.8775C95.5632 25.0058 95.0296 24.3464 94.3367 23.8994C93.6494 23.4523 92.8363 23.2288 91.8976 23.2288C90.9532 23.2288 90.1346 23.4635 89.4417 23.9329C88.7488 24.3967 88.2152 25.0728 87.8408 25.9613C87.4664 26.8497 87.2792 27.9114 87.2792 29.1463C87.2792 30.3868 87.4664 31.4513 87.8408 32.3398C88.2152 33.2283 88.7488 33.9072 89.4417 34.3766C90.1346 34.8403 90.9532 35.0722 91.8976 35.0722ZM110.85 38.207C109.185 38.207 107.709 37.841 106.424 37.109C105.145 36.377 104.15 35.3293 103.44 33.9658C102.736 32.6024 102.384 31.0015 102.384 29.1631C102.384 27.3694 102.731 25.7881 103.424 24.419C104.122 23.0444 105.105 21.9827 106.374 21.234C107.642 20.4796 109.115 20.1024 110.791 20.1024C112.507 20.1024 113.993 20.4936 115.25 21.2759C116.507 22.0582 117.466 23.1366 118.125 24.5112C118.79 25.8803 119.123 27.4365 119.123 29.1799C119.123 29.3531 119.12 29.5347 119.114 29.7247C119.114 29.9091 119.109 30.1047 119.097 30.3114H104.287V27.5873H116.667L115.359 28.3249C115.348 27.3135 115.164 26.4167 114.806 25.6344C114.454 24.8465 113.934 24.2291 113.247 23.782C112.56 23.335 111.727 23.1115 110.749 23.1115C109.816 23.1115 109 23.3238 108.302 23.7485C107.609 24.1676 107.067 24.8074 106.676 25.6679C106.285 26.5229 106.083 27.5845 106.072 28.853V29.4984C106.072 30.778 106.268 31.8453 106.659 32.7002C107.05 33.5496 107.606 34.1838 108.327 34.6029C109.048 35.0219 109.905 35.2315 110.9 35.2315C111.621 35.2315 112.261 35.1197 112.819 34.8962C113.378 34.6727 113.842 34.357 114.211 33.9491C114.585 33.5356 114.865 33.0411 115.049 32.4655H118.712C118.421 33.611 117.924 34.6168 117.22 35.4829C116.516 36.3435 115.622 37.014 114.538 37.4946C113.459 37.9695 112.23 38.207 110.85 38.207ZM121.95 37.8047V20.5048H125.554V24.8884H125.688V37.8047H121.95ZM124.749 27.2018C124.749 26.0507 124.967 24.9443 125.403 23.8826C125.839 22.8209 126.515 21.9492 127.431 21.2675C128.353 20.5802 129.504 20.2365 130.884 20.2365C131.047 20.2365 131.209 20.2421 131.371 20.2533C131.533 20.2645 131.7 20.2785 131.874 20.2952V23.7569C131.706 23.7569 131.544 23.7569 131.387 23.7569C131.237 23.7569 131.094 23.7569 130.96 23.7569C129.859 23.7569 128.915 23.9413 128.127 24.3101C127.339 24.6789 126.736 25.2349 126.316 25.978C125.897 26.7212 125.688 27.6404 125.688 28.7356H124.749V27.2018ZM140.935 37.8885C139.795 37.8885 138.854 37.7544 138.11 37.4862C137.373 37.2124 136.814 36.7765 136.434 36.1786C136.054 35.5807 135.864 34.7956 135.864 33.8234V24.5867V21.9548V19.3062V15.2075H139.602V19.3062V21.9548V24.5867V33.3456C139.602 33.7032 139.664 33.991 139.787 34.2089C139.915 34.4213 140.122 34.5777 140.407 34.6783C140.692 34.7789 141.083 34.8292 141.58 34.8292C141.77 34.8292 141.972 34.8292 142.184 34.8292C142.396 34.8292 142.611 34.8292 142.829 34.8292H143.072V37.8047C143.039 37.8047 143.002 37.8047 142.963 37.8047C142.924 37.8103 142.888 37.8159 142.854 37.8215C142.525 37.8382 142.192 37.8522 141.857 37.8634C141.522 37.8801 141.214 37.8885 140.935 37.8885ZM133.115 23.5054V20.5048H137.742H143.072V23.5054H137.742H133.115Z" fill="black"/>
<path d="M3.19345 37.8047V25.2237V21.9799V19.0296C3.19345 17.9008 3.38343 16.9537 3.7634 16.1882C4.14896 15.4226 4.74127 14.8415 5.54033 14.4448C6.33939 14.048 7.36756 13.8497 8.62482 13.8497C8.89303 13.8497 9.20875 13.858 9.57195 13.8748C9.94075 13.886 10.2788 13.9027 10.5861 13.9251C10.6029 13.9251 10.6197 13.9279 10.6364 13.9335C10.6588 13.9335 10.6783 13.9335 10.6951 13.9335V16.909C10.6225 16.909 10.5498 16.909 10.4772 16.909C10.4045 16.9034 10.3291 16.9006 10.2509 16.9006C10.0609 16.895 9.8709 16.8922 9.68092 16.8922C9.49652 16.8922 9.31771 16.8922 9.14449 16.8922C8.63041 16.8922 8.21132 16.976 7.88722 17.1437C7.56313 17.3113 7.32285 17.5572 7.16639 17.8813C7.00993 18.2054 6.9317 18.6133 6.9317 19.105V21.9799V25.2404V37.8047H3.19345ZM0.444233 23.5054V20.5048H5.07096H10.5861V23.5054H5.07096H0.444233ZM13.327 37.8047V20.5048H17.0652V37.8047H13.327ZM13.327 18.6524V14.8806H17.0652V18.6524H13.327ZM27.1561 37.8885C26.0162 37.8885 25.0746 37.7544 24.3314 37.4862C23.5938 37.2124 23.035 36.7765 22.6551 36.1786C22.2751 35.5807 22.0851 34.7956 22.0851 33.8234V24.5867V21.9548V19.3062V15.2075H25.8234V19.3062V21.9548V24.5867V33.3456C25.8234 33.7032 25.8848 33.991 26.0078 34.2089C26.1363 34.4213 26.343 34.5777 26.628 34.6783C26.913 34.7789 27.3042 34.8292 27.8015 34.8292C27.9915 34.8292 28.1926 34.8292 28.405 34.8292C28.6173 34.8292 28.8324 34.8292 29.0503 34.8292H29.2934V37.8047C29.2599 37.8047 29.2236 37.8047 29.1845 37.8047C29.1453 37.8103 29.109 37.8159 29.0755 37.8215C28.7458 37.8382 28.4133 37.8522 28.0781 37.8634C27.7428 37.8801 27.4355 37.8885 27.1561 37.8885ZM19.3359 23.5054V20.5048H23.9626H29.2934V23.5054H23.9626H19.3359Z" fill="black"/>
<path opacity="0.5" d="M157.901 10.0906V10.9437H156.107V15.7668H155.143V10.9437H153.341V10.0906H157.901ZM162.955 10.0906H164.318V15.7668H163.425V12.841L163.505 10.9437L163.106 12.291L162.022 15.7668H161.058L159.91 12.2033L159.527 10.9118L159.607 12.841V15.7668H158.722V10.0906H160.077L161.321 13.9173L161.536 14.7703L161.751 13.9173L162.955 10.0906Z" fill="black"/>
<rect x="35.4385" y="28.9119" width="9.36905" height="17.0346" rx="4.68452" fill="#D0EA2A"/>
</svg>
