<svg width="22" height="22" viewBox="0 0 22 22" fill="none" xmlns="http://www.w3.org/2000/svg">
<g clip-path="url(#clip0_1_1089)">
<path d="M19.9375 10.9999C19.9347 13.1843 19.1332 15.2923 17.6841 16.9267C16.235 18.5612 14.2382 19.6094 12.0699 19.8739C12.0216 19.8793 11.9727 19.8745 11.9264 19.8597C11.8802 19.8449 11.8375 19.8204 11.8014 19.7879C11.7653 19.7555 11.7364 19.7157 11.7168 19.6712C11.6971 19.6268 11.6872 19.5787 11.6875 19.5301V13.0624H13.75C13.8442 13.0627 13.9375 13.0435 14.024 13.0061C14.1105 12.9688 14.1885 12.914 14.2529 12.8453C14.3174 12.7765 14.3671 12.6952 14.3988 12.6065C14.4305 12.5178 14.4437 12.4234 14.4375 12.3294C14.4223 12.1526 14.3407 11.9881 14.2092 11.869C14.0776 11.7499 13.9059 11.6851 13.7285 11.6874H11.6875V9.62495C11.6875 9.26027 11.8323 8.91054 12.0902 8.65268C12.3481 8.39481 12.6978 8.24995 13.0625 8.24995H14.4375C14.5317 8.25015 14.625 8.23098 14.7115 8.19362C14.798 8.15626 14.876 8.1015 14.9404 8.03276C15.0049 7.96401 15.0546 7.88274 15.0863 7.794C15.118 7.70526 15.1312 7.61094 15.125 7.5169C15.1098 7.33981 15.0279 7.17508 14.8961 7.05594C14.7642 6.9368 14.592 6.87212 14.4143 6.87495H13.0625C12.3331 6.87495 11.6336 7.16468 11.1179 7.6804C10.6022 8.19613 10.3125 8.8956 10.3125 9.62495V11.6874H8.24996C8.15571 11.6872 8.06243 11.7064 7.9759 11.7438C7.88938 11.7811 7.81146 11.8359 7.74698 11.9046C7.68251 11.9734 7.63286 12.0546 7.60112 12.1434C7.56937 12.2321 7.55622 12.3265 7.56246 12.4205C7.57767 12.5976 7.65947 12.7623 7.79137 12.8815C7.92327 13.0006 8.09545 13.0653 8.27316 13.0624H10.3125V19.5318C10.3128 19.5803 10.3028 19.6283 10.2832 19.6727C10.2636 19.7171 10.2348 19.7568 10.1988 19.7893C10.1628 19.8218 10.1203 19.8462 10.0741 19.8611C10.0279 19.876 9.97911 19.8809 9.9309 19.8756C7.70456 19.6044 5.66115 18.5074 4.20512 16.8015C2.74909 15.0956 1.98656 12.9052 2.06848 10.6639C2.24035 6.02331 5.99926 2.25065 10.6433 2.07018C11.8457 2.02361 13.045 2.22001 14.1697 2.64765C15.2944 3.07529 16.3213 3.72537 17.189 4.55901C18.0566 5.39266 18.7472 6.39274 19.2195 7.49943C19.6917 8.60613 19.9359 9.7967 19.9375 10.9999Z" fill="black"/>
</g>
<defs>
<clipPath id="clip0_1_1089">
<rect width="22" height="22" fill="white"/>
</clipPath>
</defs>
</svg>
