<svg width="18" height="18" viewBox="0 0 18 18" fill="none" xmlns="http://www.w3.org/2000/svg">
<g clip-path="url(#clip0_1_1086)">
<path d="M11.25 9C11.25 9.44501 11.118 9.88002 10.8708 10.25C10.6236 10.62 10.2722 10.9084 9.86104 11.0787C9.4499 11.249 8.9975 11.2936 8.56105 11.2068C8.12459 11.12 7.72368 10.9057 7.40901 10.591C7.09434 10.2763 6.88005 9.87541 6.79323 9.43895C6.70642 9.0025 6.75097 8.5501 6.92127 8.13896C7.09157 7.72783 7.37996 7.37643 7.74997 7.12919C8.11998 6.88196 8.55499 6.75 9 6.75C9.59674 6.75 10.169 6.98705 10.591 7.40901C11.0129 7.83097 11.25 8.40326 11.25 9ZM16.3125 5.625V12.375C16.3114 13.4189 15.8962 14.4198 15.158 15.158C14.4198 15.8962 13.4189 16.3114 12.375 16.3125H5.625C4.58105 16.3114 3.58018 15.8962 2.842 15.158C2.10382 14.4198 1.68862 13.4189 1.6875 12.375V5.625C1.68862 4.58105 2.10382 3.58018 2.842 2.842C3.58018 2.10382 4.58105 1.68862 5.625 1.6875H12.375C13.4189 1.68862 14.4198 2.10382 15.158 2.842C15.8962 3.58018 16.3114 4.58105 16.3125 5.625ZM12.375 9C12.375 8.33249 12.1771 7.67997 11.8062 7.12495C11.4354 6.56993 10.9083 6.13735 10.2916 5.88191C9.67486 5.62646 8.99626 5.55962 8.34157 5.68985C7.68688 5.82008 7.08552 6.14151 6.61351 6.61351C6.14151 7.08552 5.82008 7.68688 5.68985 8.34157C5.55962 8.99626 5.62646 9.67486 5.88191 10.2916C6.13735 10.9083 6.56993 11.4354 7.12495 11.8062C7.67997 12.1771 8.33249 12.375 9 12.375C9.89482 12.3741 10.7527 12.0182 11.3855 11.3855C12.0182 10.7527 12.3741 9.89482 12.375 9ZM14.0625 4.78125C14.0625 4.61437 14.013 4.45124 13.9203 4.31249C13.8276 4.17373 13.6958 4.06559 13.5416 4.00173C13.3875 3.93787 13.2178 3.92116 13.0541 3.95371C12.8905 3.98627 12.7401 4.06663 12.6221 4.18463C12.5041 4.30263 12.4238 4.45297 12.3912 4.61664C12.3587 4.78031 12.3754 4.94996 12.4392 5.10414C12.5031 5.25831 12.6112 5.39009 12.75 5.4828C12.8887 5.57552 13.0519 5.625 13.2188 5.625C13.4425 5.625 13.6571 5.53611 13.8154 5.37787C13.9736 5.21964 14.0625 5.00503 14.0625 4.78125Z" fill="black"/>
</g>
<defs>
<clipPath id="clip0_1_1086">
<rect width="18" height="18" fill="white"/>
</clipPath>
</defs>
</svg>
