<svg width="71" height="71" viewBox="0 0 71 71" fill="none" xmlns="http://www.w3.org/2000/svg">
<g clip-path="url(#clip0_1_1257)">
<path d="M35.4515 6.67944C29.7546 6.67944 24.1855 8.36879 19.4487 11.5339C14.7118 14.6989 11.0199 19.1976 8.83971 24.4609C6.65958 29.7242 6.08915 35.5158 7.20058 41.1033C8.312 46.6909 11.0554 51.8233 15.0837 55.8517C19.1121 59.8801 24.2446 62.6234 29.8321 63.7348C35.4196 64.8463 41.2112 64.2758 46.4745 62.0957C51.7378 59.9156 56.2365 56.2236 59.4016 51.4868C62.5666 46.7499 64.256 41.1809 64.256 35.4839C64.2479 27.8469 61.2106 20.5251 55.8104 15.125C50.4103 9.72484 43.0885 6.68751 35.4515 6.67944ZM46.6825 37.3063L32.2803 47.2771C31.9478 47.507 31.5587 47.6416 31.1553 47.6662C30.7518 47.6909 30.3492 47.6047 29.9912 47.417C29.6332 47.2293 29.3334 46.9472 29.1242 46.6013C28.915 46.2554 28.8044 45.8589 28.8044 45.4546V25.5131C28.8044 25.1089 28.915 24.7123 29.1242 24.3664C29.3334 24.0206 29.6332 23.7385 29.9912 23.5508C30.3492 23.3631 30.7518 23.2769 31.1553 23.3015C31.5587 23.3262 31.9478 23.4608 32.2803 23.6907L46.6825 33.6614C46.9773 33.8653 47.2182 34.1376 47.3846 34.455C47.5511 34.7724 47.638 35.1255 47.638 35.4839C47.638 35.8423 47.5511 36.1953 47.3846 36.5127C47.2182 36.8302 46.9773 37.1025 46.6825 37.3063Z" fill="white"/>
</g>
<defs>
<clipPath id="clip0_1_1257">
<rect width="70.9032" height="70.9032" fill="white" transform="translate(0 0.0322266)"/>
</clipPath>
</defs>
</svg>
