<svg width="18" height="18" viewBox="0 0 18 18" fill="none" xmlns="http://www.w3.org/2000/svg">
<g clip-path="url(#clip0_1_1083)">
<path d="M15.1172 15.4582C15.0688 15.5464 14.9976 15.62 14.911 15.6714C14.8244 15.7227 14.7257 15.7498 14.625 15.75H11.25C11.1554 15.75 11.0622 15.726 10.9793 15.6804C10.8963 15.6348 10.8262 15.569 10.7754 15.4891L7.92847 11.0152L3.79128 15.5658C3.69043 15.6741 3.55093 15.7383 3.40305 15.7445C3.25516 15.7507 3.1108 15.6983 3.00126 15.5988C2.89172 15.4992 2.82583 15.3605 2.81788 15.2127C2.80993 15.0649 2.86055 14.9199 2.95878 14.8092L7.30198 10.028L2.90042 3.11484C2.84621 3.0298 2.81586 2.93174 2.81256 2.83094C2.80925 2.73014 2.83311 2.6303 2.88163 2.54188C2.93015 2.45347 3.00155 2.37972 3.08836 2.32837C3.17516 2.27702 3.27417 2.24995 3.37503 2.25H6.75003C6.8447 2.25003 6.93783 2.27395 7.02079 2.31955C7.10376 2.36515 7.17387 2.43095 7.22464 2.51086L10.0716 6.98484L14.2088 2.43422C14.3096 2.32588 14.4491 2.26166 14.597 2.25548C14.7449 2.2493 14.8893 2.30166 14.9988 2.40121C15.1083 2.50076 15.1742 2.63947 15.1822 2.78727C15.1901 2.93508 15.1395 3.08006 15.0413 3.19078L10.6981 7.96852L15.0996 14.8859C15.1535 14.9709 15.1836 15.0689 15.1867 15.1696C15.1898 15.2703 15.1658 15.37 15.1172 15.4582Z" fill="black"/>
</g>
<defs>
<clipPath id="clip0_1_1083">
<rect width="18" height="18" fill="white"/>
</clipPath>
</defs>
</svg>
